<?xml version="1.0" standalone="no"?>
<!DOCTYPE svg PUBLIC "-//W3C//DTD SVG 1.1//EN" "http://www.w3.org/Graphics/SVG/1.1/DTD/svg11.dtd" >
<svg>
<metadata>
Created by FontForge 20090914 at Mon Apr  1 14:58:57 2013
 By www-data
Copyright 2004 Monotype Imaging Inc. All Rights Reserved. Neo Sans is designed by Sebastian Lester.
</metadata>
<defs>
<font id="NeoSansW01-Italic" horiz-adv-x="605" >
  <font-face 
    font-family="Neo Sans W01 Italic"
    font-weight="400"
    font-style="italic"
    font-stretch="normal"
    units-per-em="1000"
    panose-1="2 11 5 4 3 5 4 9 2 4"
    ascent="765"
    descent="-235"
    x-height="550"
    cap-height="743"
    bbox="-63.1142 -215.999 1137 979.999"
    underline-thickness="57"
    underline-position="-21"
    unicode-range="U+000D-U+2122"
  />
<missing-glyph horiz-adv-x="0" 
 />
    <glyph glyph-name=".notdef" horiz-adv-x="0" 
 />
    <glyph glyph-name="uni000D" unicode="&#xd;" horiz-adv-x="0" 
 />
    <glyph glyph-name="space" unicode=" " horiz-adv-x="273" 
 />
    <glyph glyph-name="exclam" unicode="!" horiz-adv-x="217" 
d="M283 733l-99.002 -520c-1.33301 -5.33301 -4.16602 -9.83301 -8.49902 -13.5s-9.16602 -5.5 -14.499 -5.5h-36c-10.667 0 -16 5.33301 -16 16v3l84 520c1.33301 5.33301 4.33301 9.83301 9 13.5s9.66699 5.5 15 5.5h50c10.667 0 16 -5.33301 16 -16v-3zM171.998 113
l-17 -94c-2 -12.667 -9.33301 -19 -22 -19h-48c-10.667 -0 -16 5.33301 -16 16v3l17 94c1.33301 5.33301 4 9.83301 8 13.5s8.66699 5.5 14 5.5h48c10.667 0 16 -5.33301 16 -16v-3z" />
    <glyph glyph-name="quotedbl" unicode="&#x22;" horiz-adv-x="362" 
d="M464 744c0 -2.66699 -1 -6.33301 -3 -11l-91 -189c-3.33301 -7.33301 -6.5 -12.333 -9.5 -15s-7.16699 -4 -12.5 -4h-47c-5.33301 0 -8 2.33301 -8 7c0 4 1 8 3 12l79 189c5.33301 12.667 13.333 19 24 19h56c6 0 9 -2.66699 9 -8zM294 744.001
c0 -2.66699 -1 -6.33301 -3 -11l-91 -189c-3.33301 -7.33301 -6.5 -12.333 -9.5 -15s-7.16699 -4 -12.5 -4h-47c-5.33301 0 -8 2.33301 -8 7c0 4 1 8 3 12l79 189c5.33301 12.667 13.333 19 24 19h56c6 0 9 -2.66699 9 -8z" />
    <glyph glyph-name="numbersign" unicode="#" horiz-adv-x="660" 
d="M701 517c0 -3.33301 -0.333008 -5.66504 -1 -6.99805l-6 -22c-3.33301 -12.667 -11 -19 -23 -19h-97l-54 -202h98c8.66699 0 13 -4.66699 13 -14c0 -3.33301 -0.333008 -5.66602 -1 -6.99902l-5 -21c-3.33301 -12.667 -11.333 -19 -24 -19h-98l-49 -187
c-1.33301 -5.33301 -3.83301 -9.83301 -7.5 -13.5s-8.16699 -5.5 -13.5 -5.5h-44c-9.33301 0 -14 4.66699 -14 14c0 0.666992 0.166992 1.33398 0.5 2.00098s0.5 1.66699 0.5 3l49 187h-155l-49 -187c-1.33301 -5.33301 -3.83301 -9.83301 -7.5 -13.5
s-8.16699 -5.5 -13.5 -5.5h-45c-9.33301 0 -14 4.66699 -14 14c0 1.33301 0.166992 2.16602 0.5 2.49902s0.5 1.16602 0.5 2.49902l49 187h-93c-8.66699 0 -13 4.66699 -13 14c0 3.33301 0.333008 5.66602 1 6.99902l6 21c3.33301 12.667 11 19 23 19h93l54 202h-94
c-4.66699 0 -8.16699 1.5 -10.5 4.5s-3.5 6.5 -3.5 10.5c0 2.66699 0.333008 4.66699 1 6l6 22c3.33301 12.667 11.333 19 24 19h93l51 193c1.33301 5.33301 4 9.83301 8 13.5s8.66699 5.5 14 5.5h45c8.66699 0 13 -4.66699 13 -14
c0 -0.666992 -0.166992 -1.33398 -0.5 -2.00098s-0.5 -1.66699 -0.5 -3l-51 -193h155l51 193c1.33301 5.33301 4 9.83301 8 13.5s8.66699 5.5 14 5.5h44c8.66699 0 13 -4.33301 13 -13c0 -2.66699 -0.333008 -4.66699 -1 -6l-51 -193h98c8.66699 0 13 -4.66699 13 -14z
M341 469.001l-54 -202h155l54 202h-155z" />
    <glyph glyph-name="dollar" unicode="$" 
d="M634 720l-8 -43c-2 -10.667 -8.33301 -16 -19 -16h-2c-22 0 -48.667 1.5 -80 4.5s-61.666 4.5 -90.999 4.5c-20.667 0 -41 -1.16699 -61 -3.5s-37.667 -7.5 -53 -15.5s-27.833 -19.5 -37.5 -34.5s-14.5 -35.5 -14.5 -61.5c0 -20 7.5 -37.167 22.5 -51.5
s37.5 -31.5 67.5 -51.5l82 -55c24.667 -16.667 45 -32.334 61 -47.001s28.667 -29 38 -43s15.833 -28 19.5 -42s5.5 -28.333 5.5 -43c0 -32 -5.83301 -61 -17.5 -87s-27.5 -48.5 -47.5 -67.5s-43.5 -34.5 -70.5 -46.5s-55.5 -20 -85.5 -24l-16 -94
c-1.33301 -5.33301 -4.33301 -10 -9 -14s-9.66699 -6 -15 -6h-47c-10.667 0 -16 5.33301 -16 16v3v1l16 90c-29.333 0.666992 -55.333 2.33398 -78 5.00098s-43.667 5.66699 -63 9c-11.333 2 -17 6 -17 12c0 1.33301 0.166992 2.33301 0.5 3s0.5 1.66699 0.5 3l8 41
c2 10.667 8.33301 16 19 16h2h1c11.333 -1.33301 24 -2.5 38 -3.5s28.5 -1.83301 43.5 -2.5l44 -2c14.333 -0.666992 27.166 -1 38.499 -1c22.667 0 44.5 2.33301 65.5 7s39.667 12.5 56 23.5s29.333 25.333 39 43s14.5 39.5 14.5 65.5c0 19.333 -7.5 37.333 -22.5 54
s-40.167 37 -75.5 61l-87 59c-37.333 25.333 -64.5 50.833 -81.5 76.5s-25.5 53.5 -25.5 83.5c0 32 5.66699 60 17 84s26.666 44 45.999 60s41.833 28.667 67.5 38s53.167 15.666 82.5 18.999l14 86c1.33301 5.33301 4.33301 10 9 14s9.66699 6 15 6h47
c10.667 0 16 -5.33301 16 -16v-3v-1l-14 -83c26.667 -1.33301 53.334 -3.16602 80.001 -5.49902s48 -4.83301 64 -7.5c9.33301 -1.33301 14 -6 14 -14v-2v-1z" />
    <glyph glyph-name="percent" unicode="%" horiz-adv-x="794" 
d="M797 294c0 -7.33301 -0.332031 -14.8311 -0.999023 -22.498s-1.66699 -15.5 -3 -23.5l-17 -93c-10.667 -58.667 -29.5 -100.334 -56.5 -125.001s-62.167 -37 -105.5 -37c-34 0 -61 10.333 -81 31s-30 50 -30 88c0 6.66699 0.333008 13.667 1 21s1.66699 14.666 3 21.999
l17 93c10.667 58 29.667 99.333 57 124s62.666 37 105.999 37c34.667 0 61.667 -9.66699 81 -29s29 -48 29 -86zM780.001 738.002c0 -4 -2.33301 -8.66699 -7 -14l-543 -708c-5.33301 -7.33301 -9.66602 -12.5 -12.999 -15.5s-7.66602 -4.5 -12.999 -4.5h-49
c-5.33301 0 -8 2 -8 6s2 8.66699 6 14l543 708c5.33301 7.33301 9.66602 12.333 12.999 15s7.66602 4 12.999 4h51c4.66699 0 7 -1.66699 7 -5zM422.001 635.002c0 -7.33301 -0.332031 -14.8311 -0.999023 -22.498s-1.66699 -15.5 -3 -23.5l-17 -93
c-10.667 -58.667 -29.5 -100.334 -56.5 -125.001s-62.167 -37 -105.5 -37c-34 0 -61 10.333 -81 31s-30 50 -30 88c0 6.66699 0.333008 13.667 1 21s1.66699 14.666 3 21.999l17 93c10.667 58 29.667 99.333 57 124s62.666 37 105.999 37c34.667 0 61.667 -9.66699 81 -29
s29 -48 29 -86zM735.002 290.004c0 23.333 -5.00098 39.665 -15.001 48.998s-24.333 14 -43 14c-21.333 0 -40 -8 -56 -24s-27.667 -43 -35 -81l-17 -93c-1.33301 -8 -2.33301 -15.5 -3 -22.5s-1 -13.5 -1 -19.5c0 -23.333 5.16699 -39.666 15.5 -48.999
s24.833 -14 43.5 -14c22 0 40.833 8.33301 56.5 25s26.834 43.334 33.501 80.001l17 93c1.33301 8 2.33301 15.5 3 22.5s1 13.5 1 19.5zM360.001 631.003c0 23.333 -5.00098 39.665 -15.001 48.998s-24.333 14 -43 14c-21.333 0 -40 -8 -56 -24s-27.667 -43 -35 -81l-17 -93
c-1.33301 -8 -2.33301 -15.5 -3 -22.5s-1 -13.5 -1 -19.5c0 -23.333 5.16699 -39.666 15.5 -48.999s24.833 -14 43.5 -14c22 0 40.833 8.33301 56.5 25s26.834 43.334 33.501 80.001l17 93c1.33301 8 2.33301 15.5 3 22.5s1 13.5 1 19.5z" />
    <glyph glyph-name="ampersand" unicode="&#x26;" horiz-adv-x="678" 
d="M674 361c-9.33301 -44 -22.1689 -86.8301 -38.502 -128.497s-39.5 -80.167 -69.5 -115.5l75 -100c2.66699 -3.33301 4 -6.33301 4 -9c0 -5.33301 -4 -8 -12 -8h-70c-4.66699 0 -8 0.666992 -10 2s-3.66699 3 -5 5l-40 54c-28.667 -21.333 -60.667 -38 -96 -50
s-73.666 -18 -114.999 -18c-32 0 -61.167 3 -87.5 9s-49 15.333 -68 28s-33.667 28.834 -44 48.501s-15.5 43.167 -15.5 70.5s4.16699 51.666 12.5 72.999s20.333 41 36 59s34.834 35 57.501 51s48.667 32.333 78 49l-10 14c-21.333 30 -38.333 57.167 -51 81.5
s-19 52.166 -19 83.499c0 33.333 5.33301 62 16 86s25.667 43.667 45 59s42.166 26.666 68.499 33.999s55.5 11 87.5 11c64.667 0 113.834 -12.167 147.501 -36.5s50.5 -57.5 50.5 -99.5c0 -24.667 -3.83301 -46.834 -11.5 -66.501s-19.167 -38.167 -34.5 -55.5
s-35 -34.5 -59 -51.5s-52.333 -35.167 -85 -54.5l-34 -20l146 -194c20.667 28 36.5 58 47.5 90s20.167 65 27.5 99c1.33301 5.33301 3 9.33301 5 12s5.66699 4 11 4h45c10 0 15 -4 15 -12v-4zM518.997 614.003c0 22.667 -8.33301 40 -25 52s-47 18 -91 18
c-46 0 -80 -9.16699 -102 -27.5s-33 -50.5 -33 -96.5c0 -11.333 1.16699 -22 3.5 -32s6 -19.833 11 -29.5s11.167 -19.667 18.5 -30l25 -34.5l9 -12l40 22l60.5 34.5c17.667 10.333 32.667 21.5 45 33.5s21.833 26 28.5 42s10 36 10 60zM306.997 326.003
c-18 -10 -35.1689 -20.3311 -51.502 -30.998s-30.666 -22.834 -42.999 -36.501s-22.166 -29 -29.499 -46s-11 -37.167 -11 -60.5c0 -36 11.833 -60 35.5 -72s57.5 -18 101.5 -18c32 0 61.5 4.66699 88.5 14s50.833 21.666 71.5 36.999z" />
    <glyph glyph-name="quotesingle" unicode="'" horiz-adv-x="192" 
d="M294 744c0 -2.66699 -1 -6.33301 -3 -11l-91 -189c-3.33301 -7.33301 -6.5 -12.333 -9.5 -15s-7.16699 -4 -12.5 -4h-47c-5.33301 0 -8 2.33301 -8 7c0 4 1 8 3 12l79 189c5.33301 12.667 13.333 19 24 19h56c6 0 9 -2.66699 9 -8z" />
    <glyph glyph-name="parenleft" unicode="(" horiz-adv-x="305" 
d="M415 746c0 -2.66699 -1.99902 -6.66895 -5.99902 -12.002c-78 -91.333 -135.5 -191.333 -172.5 -300s-55.5 -222.334 -55.5 -341.001c0 -53.333 4.66699 -103.666 14 -150.999s24.666 -91.666 45.999 -132.999c1.33301 -4 2 -6.66699 2 -8c0 -6.66699 -4 -10 -12 -10h-42
c-5.33301 0 -9.33301 0.5 -12 1.5s-5.66699 4.16699 -9 9.5c-25.333 38 -43.833 83.833 -55.5 137.5s-17.5 110.834 -17.5 171.501c0 54.667 4.83301 111 14.5 169s24.167 114.667 43.5 170s43.5 107.833 72.5 157.5s63.167 94.167 102.5 133.5
c5.33301 5.33301 9.5 8.5 12.5 9.5s7.16699 1.5 12.5 1.5h53c6 0 9 -2 9 -6z" />
    <glyph glyph-name="parenright" unicode=")" horiz-adv-x="305" 
d="M320 432c0 -54.667 -4.83496 -110.998 -14.502 -168.998s-24.167 -114.667 -43.5 -170s-43.666 -108 -72.999 -158s-63.333 -94.333 -102 -133c-5.33301 -5.33301 -9.5 -8.5 -12.5 -9.5s-7.16699 -1.5 -12.5 -1.5h-53c-6 0 -9 2.33301 -9 7
c0 2.66699 1.66699 6.33398 5 11.001c78.667 91.333 136.5 191.166 173.5 299.499s55.5 222.166 55.5 341.499c0 50 -4.66699 99.5 -14 148.5s-24.666 94.167 -45.999 135.5c-1.33301 2.66699 -2 5 -2 7c0 7.33301 4.33301 11 13 11h41c5.33301 0 9.33301 -0.5 12 -1.5
s5.66699 -4.16699 9 -9.5c25.333 -38 43.833 -83.833 55.5 -137.5s17.5 -110.834 17.5 -171.501z" />
    <glyph glyph-name="asterisk" unicode="*" horiz-adv-x="465" 
d="M525 598c0 -6.66699 -4.66602 -11.665 -13.999 -14.998l-125 -39l77 -106c3.33301 -4.66699 5 -9 5 -13c0 -4.66699 -2 -8.33398 -6 -11.001l-24 -18c-3.33301 -2 -6 -3 -8 -3c-5.33301 0 -10.333 3.33301 -15 10l-76 106l-76 -106
c-4.66699 -6.66699 -9.66699 -10 -15 -10c-2.66699 0 -5.33398 1 -8.00098 3l-25 18c-4 2.66699 -6 6.33398 -6 11.001c0 4 1.66699 8.33301 5 13l78 106l-124 39c-4 1.33301 -7.5 3.33301 -10.5 6s-4.5 5.66699 -4.5 9c0 1.33301 0.166992 2.16602 0.5 2.49902
s0.5 1.16602 0.5 2.49902l9 29c2 6.66699 6.33301 10 13 10c2 0 5 -0.666992 9 -2l125 -41l-1 131c0 12.667 5 19 15 19h30c10 0 15 -6.33301 15 -19l-1 -131l125 41c4 1.33301 7 2 9 2c6.66699 0 11 -3.33301 13 -10l9 -29c0.666992 -1.33301 1 -3 1 -5z" />
    <glyph glyph-name="plus" unicode="+" horiz-adv-x="595" 
d="M596 371c0 -5.33301 -2 -9.33301 -6 -12s-8.66699 -4 -14 -4h-172v-171c0 -5.33301 -1.33301 -10 -4 -14s-6.66699 -6 -12 -6h-40c-5.33301 0 -9.33301 2 -12 6s-4 8.66699 -4 14v171h-171c-5.33301 0 -10 1.33301 -14 4s-6 6.66699 -6 12v40c0 5.33301 2 9.33301 6 12
s8.66699 4 14 4h171v172c0 5.33301 1.33301 10 4 14s6.66699 6 12 6h40c5.33301 0 9.33301 -2 12 -6s4 -8.66699 4 -14v-172h172c5.33301 0 10 -1.33301 14 -4s6 -6.66699 6 -12v-40v0z" />
    <glyph glyph-name="comma" unicode="," horiz-adv-x="214" 
d="M189 121c0 -3.33301 -1 -7 -3 -11l-108 -189c-3.33301 -6.66699 -6.5 -11.5 -9.5 -14.5s-7.16699 -4.5 -12.5 -4.5h-41c-7.33301 0 -11 3 -11 9c0 2.66699 1 6 3 10l90 189c6 12.667 14 19 24 19h58c6.66699 0 10 -2.66699 10 -8z" />
    <glyph glyph-name="hyphen" unicode="-" horiz-adv-x="333" 
d="M340 312l-7 -38.999c-2 -11.333 -9.33301 -17 -22 -17h-199c-10.667 0 -16 4.66699 -16 14v3l7 39c1.33301 5.33301 4 9.66602 8 12.999s8.66699 5 14 5h199c10.667 0 16 -5 16 -15v-3z" />
    <glyph glyph-name="period" unicode="." horiz-adv-x="214" 
d="M170 114l-16.002 -93c-1.33301 -5.33301 -4.16602 -10 -8.49902 -14s-9.16602 -6 -14.499 -6h-48c-10 0 -15 5.33301 -15 16v4l16 93c2 12.667 9.33301 19 22 19h48c10.667 0 16 -5.33301 16 -16v-3z" />
    <glyph glyph-name="slash" unicode="/" horiz-adv-x="355" 
d="M461 732c0 -2 -0.667969 -5 -2.00098 -9l-349 -703c-2.66699 -5.33301 -5.66699 -10 -9 -14s-7.66602 -6 -12.999 -6h-51c-7.33301 0 -11 3.66699 -11 11c0 2 0.666992 5 2 9l350 703c2.66699 5.33301 5.5 10 8.5 14s7.16699 6 12.5 6h51c7.33301 0 11 -3.66699 11 -11z
" />
    <glyph glyph-name="zero" unicode="0" 
d="M634 536c0 -30 -3.00293 -62.3311 -9.00293 -96.998l-23 -135c-10 -56.667 -23.833 -104.834 -41.5 -144.501s-39.167 -71.834 -64.5 -96.501s-54.166 -42.5 -86.499 -53.5s-68.166 -16.5 -107.499 -16.5c-61.333 0 -110 17.5 -146 52.5s-54 89.833 -54 164.5
c0 28.667 3 60 9 94l23 135c10 57.333 24 105.833 42 145.5s39.667 71.667 65 96s54.333 42 87 53s68.334 16.5 107.001 16.5c62.667 0 111.5 -17.333 146.5 -52s52.5 -88.667 52.5 -162zM542.997 533.002c0 51.333 -10.499 87.5 -31.499 108.5s-50.833 31.5 -89.5 31.5
c-22.667 0 -44.334 -4.66699 -65.001 -14s-39.5 -23.5 -56.5 -42.5s-32 -43.167 -45 -72.5s-22.833 -64.333 -29.5 -105l-23 -135c-6 -37.333 -9 -69.333 -9 -96c0 -51.333 10.333 -87.166 31 -107.499s50.667 -30.5 90 -30.5c22 0 43.333 4.5 64 13.5s39.667 23 57 42
s32.333 43.167 45 72.5s22.667 64.666 30 105.999l23 135c6 36 9 67.333 9 94z" />
    <glyph glyph-name="one" unicode="1" 
d="M90 0c-5.33301 0 -9.83398 1.66699 -13.501 5s-4.83398 7.66602 -3.50098 12.999l7 44c1.33301 5.33301 4.16602 9.5 8.49902 12.5s9.16602 4.5 14.499 4.5h159l101 570l-169 -66c-4 -1.33301 -8.66699 -2.16602 -14 -2.49902s-7.33301 3.16699 -6 10.5l9 51
c0.666992 5.33301 4.66699 9.66602 12 12.999l193 82c8.66699 4 16.334 6 23.001 6h41c5.33301 0 9.5 -1.83301 12.5 -5.5s3.83301 -8.16699 2.5 -13.5l-114 -645h160c5.33301 0 9.83301 -1.5 13.5 -4.5s4.83398 -7.16699 3.50098 -12.5l-7 -44
c-1.33301 -5.33301 -4.16602 -9.66602 -8.49902 -12.999s-9.16602 -5 -14.499 -5h-410z" />
    <glyph glyph-name="two" unicode="2" 
d="M631 599c0 -26 -4.16895 -49.501 -12.502 -70.501s-19.833 -40.5 -34.5 -58.5s-32.167 -34.833 -52.5 -50.5s-42.833 -30.834 -67.5 -45.501l-108 -65c-31.333 -18.667 -57.166 -36 -77.499 -52s-37 -32 -50 -48s-22.833 -32.833 -29.5 -50.5s-12 -37.167 -16 -58.5
l-4 -21h333c4.66699 0 8.66699 -1.16699 12 -3.5s5 -5.83301 5 -10.5v-3l-8 -44c-1.33301 -5.33301 -4.16602 -9.66602 -8.49902 -12.999s-9.16602 -5 -14.499 -5h-397c-11.333 0 -17 5.33301 -17 16v3l15 81c5.33301 30 13 57.333 23 82s23 47.667 39 69
s35.167 41.5 57.5 60.5s48.833 37.5 79.5 55.5l113 68c20 12 38 23.333 54 34s29.667 22.167 41 34.5s20.166 26 26.499 41s9.5 33.167 9.5 54.5c0 26.667 -10.167 45.834 -30.5 57.501s-55.166 17.5 -104.499 17.5c-26 0 -55.333 -1.5 -88 -4.5s-63.334 -6.5 -92.001 -10.5
c-6.66699 -1.33301 -11.667 -0.833008 -15 1.5s-4 7.83301 -2 16.5l7 35c1.33301 7.33301 4 11.833 8 13.5s8.66699 3.16699 14 4.5c27.333 6.66699 56.833 11.667 88.5 15s62.5 5 92.5 5c140.667 0 211 -50.333 211 -151z" />
    <glyph glyph-name="three" unicode="3" 
d="M623 599c0 -22 -2.83008 -43.833 -8.49707 -65.5s-14 -41.834 -25 -60.501s-24.5 -35.667 -40.5 -51s-34.333 -27.666 -55 -36.999c26 -14 43.833 -32.667 53.5 -56s14.5 -46.666 14.5 -69.999c0 -46 -6.83301 -85.667 -20.5 -119s-33.167 -61 -58.5 -83
s-55.833 -38.167 -91.5 -48.5s-75.834 -15.5 -120.501 -15.5c-32 0 -61.833 2 -89.5 6s-53.167 8.66699 -76.5 14c-5.33301 1.33301 -9.5 3 -12.5 5s-3.83301 6.66699 -2.5 14l6 34c1.33301 6 3.5 10.667 6.5 14s8.5 4.33301 16.5 3c30 -4 59.167 -7.33301 87.5 -10
s54.166 -4 77.499 -4c61.333 0 107.666 15.5 138.999 46.5s47 77.833 47 140.5c0 12 -1.5 23.5 -4.5 34.5s-8.33301 21 -16 30s-17.667 16.167 -30 21.5s-27.833 8 -46.5 8h-182c-5.33301 0 -9.66602 1.16699 -12.999 3.5s-4.33301 7.16602 -3 14.499l6 35
c1.33301 5.33301 3.33301 9.83301 6 13.5s8 5.5 16 5.5h182c24 0 45 4.33301 63 13s33 20.5 45 35.5s21 32.5 27 52.5s9 41 9 63c0 16.667 -2.33301 30.667 -7 42s-12.167 20.333 -22.5 27s-24.166 11.5 -41.499 14.5s-38.666 4.5 -63.999 4.5
c-29.333 0 -57.333 -1.5 -84 -4.5l-90 -10.5h-3c-11.333 0 -16 5.66699 -14 17l6 35c1.33301 7.33301 4.16602 12 8.49902 14s9.16602 3.66699 14.499 5c25.333 5.33301 52.333 10 81 14s59 6 91 6c67.333 0 120.666 -12.167 159.999 -36.5s59 -62.5 59 -114.5z" />
    <glyph glyph-name="four" unicode="4" 
d="M597 274c12.667 0 17.999 -6 15.999 -18l-7 -40c-1.33301 -7.33301 -4 -12.166 -8 -14.499s-8.66699 -3.5 -14 -3.5h-87l-31 -178c-2 -13.333 -9 -20 -21 -20h-58c-10.667 0 -15 6.66699 -13 20l31 178h-289c-23.333 0 -35 8.66699 -35 26
c0 5.33301 0.333008 9.66602 1 12.999l6 38c2 12.667 8.33301 25 19 37l369 415c3.33301 4 7.33301 7.66699 12 11s11.334 5 20.001 5h59c10 0 16.5 -1.83301 19.5 -5.5s3.83301 -9.16699 2.5 -16.5l-79 -447h87zM477.999 605c0 2.66699 -1.33301 4 -4 4c-2 0 -5 -2 -9 -6
l-279 -315c-3.33301 -4.66699 -5 -7.66699 -5 -9c0 -3.33301 2.33301 -5 7 -5h231l59 329v2z" />
    <glyph glyph-name="five" unicode="5" 
d="M614 743c8 0 13.1689 -1.50098 15.502 -4.50098s2.83301 -7.16699 1.5 -12.5l-8 -44c-2 -10.667 -9.66699 -16 -23 -16h-287l-54 -216h47c86.667 0 152.834 -13.5 198.501 -40.5s68.5 -71.167 68.5 -132.5c0 -46.667 -7 -87.667 -21 -123s-34.167 -65 -60.5 -89
s-58 -42 -95 -54s-78.5 -18 -124.5 -18c-32.667 0 -63.667 1.5 -93 4.5s-56 7.5 -80 13.5c-12.667 2 -18 8.66699 -16 20l7 37c2 13.333 9.66699 18.333 23 15c30.667 -5.33301 60.667 -9 90 -11s56.666 -3 81.999 -3c64 0 112.5 18.5 145.5 55.5s49.5 86.167 49.5 147.5
c0 20.667 -3.66699 37.667 -11 51s-18.5 23.833 -33.5 31.5s-34.333 13 -58 16s-51.834 4.5 -84.501 4.5h-117c-7.33301 0 -12.166 1.83301 -14.499 5.5s-2.83301 7.83398 -1.5 12.501l87 333c1.33301 5.33301 4.16602 9.5 8.49902 12.5s9.16602 4.5 14.499 4.5h344z" />
    <glyph glyph-name="six" unicode="6" 
d="M444 750c40 0 73.3311 -1.66992 99.998 -5.00293s49.667 -7.33301 69 -12c5.33301 -1.33301 10.333 -3.33301 15 -6s6.33398 -7 5.00098 -13l-7 -39c-1.33301 -8.66699 -4.16602 -14 -8.49902 -16s-10.5 -2.33301 -18.5 -1c-24.667 5.33301 -50.834 9.33301 -78.501 12
s-57.5 4 -89.5 4c-36 0 -66.167 -5.5 -90.5 -16.5s-44.333 -26.167 -60 -45.5s-28 -42.666 -37 -69.999s-16.5 -57.333 -22.5 -90l-2 -11c21.333 4.66699 44.5 9.16699 69.5 13.5s53.167 6.5 84.5 6.5c29.333 0 56.833 -3.16699 82.5 -9.5s48.167 -16.333 67.5 -30
s34.5 -31 45.5 -52s16.5 -46.167 16.5 -75.5c0 -44.667 -6.66699 -85.5 -20 -122.5s-32.666 -68.667 -57.999 -95s-56 -46.833 -92 -61.5s-77 -22 -123 -22c-64.667 0 -113.834 16 -147.501 48s-50.5 81.333 -50.5 148c0 12.667 0.333008 26.834 1 42.501
s2.33398 30.834 5.00098 45.501l31 175c10 56 23.833 103 41.5 141s39.5 68.667 65.5 92s56.167 40 90.5 50s72.833 15 115.5 15zM493.998 287.997c0 20.667 -3.66895 37.666 -11.002 50.999s-17.166 23.833 -29.499 31.5s-26.5 12.834 -42.5 15.501s-32.667 4 -50 4
c-12 0 -25 -0.5 -39 -1.5s-28 -2.33301 -42 -4s-27.333 -3.66699 -40 -6s-23.667 -4.5 -33 -6.5l-17 -95c-3.33301 -17.333 -5.5 -33.333 -6.5 -48s-1.5 -28.334 -1.5 -41.001c0 -24 2.66699 -43.833 8 -59.5s13.333 -28 24 -37s23.5 -15.333 38.5 -19s32.5 -5.5 52.5 -5.5
c30.667 0 57.834 6.16699 81.501 18.5s43.5 28.833 59.5 49.5s28 44.334 36 71.001s12 54 12 82z" />
    <glyph glyph-name="seven" unicode="7" 
d="M650 680c0 -11.333 -1.50098 -21.832 -4.50098 -31.499s-6.5 -17.5 -10.5 -23.5l-394 -610c-7.33301 -10 -15.666 -15 -24.999 -15h-63c-8 0 -12 3.66699 -12 11c0 4.66699 1.66699 9.66699 5 15l412 628c1.33301 2.66699 2 4.66699 2 6c0 3.33301 -2 5 -6 5h-338
c-5.33301 0 -9.83301 1 -13.5 3s-4.83398 6.66699 -3.50098 14l8 42c1.33301 5.33301 3.5 9.83301 6.5 13.5s8.5 5.5 16.5 5.5h324c34.667 0 59.334 -5.33301 74.001 -16s22 -26.334 22 -47.001z" />
    <glyph glyph-name="eight" unicode="8" 
d="M651 594c0 -44 -11.5029 -84.667 -34.5029 -122s-54.5 -65.333 -94.5 -84c24 -14.667 41.833 -34 53.5 -58s17.5 -49 17.5 -75c0 -42.667 -7.16699 -80.334 -21.5 -113.001s-34.166 -60 -59.499 -82s-55.5 -38.667 -90.5 -50s-73.167 -17 -114.5 -17h-10
c-29.333 0 -56.666 4 -81.999 12s-47.333 19.667 -66 35s-33.5 33.833 -44.5 55.5s-16.5 46.5 -16.5 74.5c0 46 11.667 88.5 35 127.5s55.666 69.167 96.999 90.5c-23.333 13.333 -40.833 30.5 -52.5 51.5s-17.5 44.5 -17.5 70.5c0 41.333 7.66699 77 23 107
s35.833 54.833 61.5 74.5s55.334 34.334 89.001 44.001s69.167 14.5 106.5 14.5h10c30 0 58 -3.33301 84 -10s48.333 -16.5 67 -29.5s33.334 -29.167 44.001 -48.5s16 -42 16 -68zM560.997 579c0 35.333 -11.168 60.333 -33.501 75s-55.833 22 -100.5 22h-10
c-24 0 -46.667 -3.5 -68 -10.5s-40.166 -17.167 -56.499 -30.5s-29.333 -29.833 -39 -49.5s-14.5 -42.167 -14.5 -67.5c0 -12.667 2 -24.667 6 -36s10.167 -21.333 18.5 -30s19.333 -15.5 33 -20.5s30.5 -7.5 50.5 -7.5h62c22.667 0 43.334 4 62.001 12
s34.667 18.833 48 32.5s23.666 30 30.999 49s11 39.5 11 61.5zM501.996 251c0 12.667 -1.83496 24.998 -5.50195 36.998s-9.66699 22.667 -18 32s-19.166 17 -32.499 23s-30 9 -50 9h-62c-25.333 0 -47.666 -4.83301 -66.999 -14.5s-35.5 -22.667 -48.5 -39
s-22.667 -35.166 -29 -56.499s-9.5 -43.666 -9.5 -66.999c0 -38 10.833 -65.167 32.5 -81.5s54.167 -24.5 97.5 -24.5h10c58 0 102.833 16.333 134.5 49s47.5 77 47.5 133z" />
    <glyph glyph-name="nine" unicode="9" 
d="M631 554c0 -12.667 -0.331055 -26.8311 -0.998047 -42.498s-2.33398 -30.834 -5.00098 -45.501l-31 -175c-10 -56 -23.833 -103 -41.5 -141s-39.5 -68.667 -65.5 -92s-56.167 -40 -90.5 -50s-72.833 -15 -115.5 -15c-40 0 -73.333 1.66699 -100 5s-49.667 7.33301 -69 12
c-7.33301 1.33301 -12.833 3.33301 -16.5 6s-4.83398 7 -3.50098 13l7 39c1.33301 8.66699 3.83301 14 7.5 16s10.167 2.33301 19.5 1c26 -5.33301 52.5 -9.33301 79.5 -12s56.5 -4 88.5 -4c36 0 66.167 5.5 90.5 16.5s44.333 26.167 60 45.5s28 42.666 37 69.999
s16.5 57.333 22.5 90l2 11c-21.333 -4.66699 -44.5 -9.16699 -69.5 -13.5s-53.167 -6.5 -84.5 -6.5c-29.333 0 -56.833 3.16699 -82.5 9.5s-48.167 16.166 -67.5 29.499s-34.5 30.666 -45.5 51.999s-16.5 46.666 -16.5 75.999c0 44.667 6.66699 85.334 20 122.001
s32.666 68.334 57.999 95.001s56 47.334 92 62.001s77 22 123 22c64.667 0 113.834 -16 147.501 -48s50.5 -81.333 50.5 -148zM543.002 555.003c0 24 -2.66699 43.834 -8 59.501s-13.333 28 -24 37s-23.5 15.333 -38.5 19s-32.5 5.5 -52.5 5.5
c-31.333 0 -58.666 -6.16699 -81.999 -18.5s-43 -28.833 -59 -49.5s-28 -44.334 -36 -71.001s-12 -54 -12 -82c0 -21.333 3.66699 -38.5 11 -51.5s17.166 -23.333 29.499 -31s26.5 -12.834 42.5 -15.501s32.667 -4 50 -4c12 0 25 0.5 39 1.5s28 2.33301 42 4
s27.333 3.66699 40 6s23.667 4.5 33 6.5l17 95c3.33301 17.333 5.5 33.333 6.5 48s1.5 28.334 1.5 41.001z" />
    <glyph glyph-name="colon" unicode=":" horiz-adv-x="219" 
d="M246 530l-16.002 -93c-1.33301 -5.33301 -4.16602 -9.83301 -8.49902 -13.5s-9.16602 -5.5 -14.499 -5.5h-47c-4.66699 0 -8.66699 1.5 -12 4.5s-5 6.83301 -5 11.5v3l16 93c1.33301 5.33301 4.33301 10 9 14s9.66699 6 15 6h47c4.66699 0 8.5 -1.66699 11.5 -5
s4.5 -7.33301 4.5 -12v-3zM172.998 113l-17 -94c-1.33301 -5.33301 -4.16602 -9.83301 -8.49902 -13.5s-9.16602 -5.5 -14.499 -5.5h-47c-4.66699 0 -8.66699 1.5 -12 4.5s-5 6.83301 -5 11.5v3l17 94c1.33301 5.33301 4.16602 9.83301 8.49902 13.5s9.16602 5.5 14.499 5.5
h47c11.333 0 17 -5.33301 17 -16v-3z" />
    <glyph glyph-name="semicolon" unicode=";" horiz-adv-x="219" 
d="M246 530l-15.998 -93c-2 -12.667 -9.33301 -19 -22 -19h-49c-10.667 0 -16 5.33301 -16 16v3l16 93c1.33301 5.33301 4.16602 10 8.49902 14s9.16602 6 14.499 6h49c10 0 15 -5.33301 15 -16v-4zM177.002 120c0 -3.33301 -1.00195 -7 -3.00195 -11l-108 -189
c-3.33301 -6.66699 -6.66602 -11.667 -9.99902 -15s-7.66602 -5 -12.999 -5h-40c-6.66699 0 -10 3 -10 9c0 3.33301 1 7 3 11l90 189c6 12.667 14 19 24 19h57c6.66699 0 10 -2.66699 10 -8z" />
    <glyph glyph-name="less" unicode="&#x3c;" horiz-adv-x="595" 
d="M535 150c0 -6.66699 -4 -10 -12 -10h-58c-5.33301 0 -10.333 0.833008 -15 2.5s-10 5.16699 -16 10.5l-241 204c-12 10 -18 21.333 -18 34s6 24 18 34l241 204c6 5.33301 11.333 8.83301 16 10.5s9.66699 2.5 15 2.5h58c8 0 12 -3.33301 12 -10
c0 -5.33301 -3.33301 -11 -10 -17l-262 -224l262 -224c6.66699 -6 10 -11.667 10 -17z" />
    <glyph glyph-name="equal" unicode="=" horiz-adv-x="595" 
d="M590 482c0 -5.33301 -2 -9.33301 -6 -12s-8.66699 -4 -14 -4h-385c-5.33301 0 -10 1.33301 -14 4s-6 6.66699 -6 12v40c0 5.33301 2 9.33301 6 12s8.66699 4 14 4h385c5.33301 0 10 -1.33301 14 -4s6 -6.66699 6 -12v-40zM590 261c0 -5.33301 -2 -9.33301 -6 -12
s-8.66699 -4 -14 -4h-385c-5.33301 0 -10 1.33301 -14 4s-6 6.66699 -6 12v40c0 5.33301 2 9.33301 6 12s8.66699 4 14 4h385c5.33301 0 10 -1.33301 14 -4s6 -6.66699 6 -12v-40z" />
    <glyph glyph-name="greater" unicode="&#x3e;" horiz-adv-x="595" 
d="M582 391c0 -12.667 -6 -24 -18 -34l-241 -204c-10.667 -8.66699 -21 -13 -31 -13h-58c-8 0 -12 3.33301 -12 10c0 5.33301 3.33301 11 10 17l262 224l-262 224c-6.66699 6 -10 11.667 -10 17c0 6.66699 4 10 12 10h58c5.33301 0 10.333 -0.833008 15 -2.5
s10 -5.16699 16 -10.5l241 -204c12 -10 18 -21.333 18 -34z" />
    <glyph glyph-name="question" unicode="?" horiz-adv-x="446" 
d="M494 627c0 -23.333 -3.5 -44.666 -10.5 -63.999s-16.333 -37.5 -28 -54.5s-25.167 -33.167 -40.5 -48.5l-47 -46l-54 -51l-29 -27.5c-8 -7.66699 -14.833 -15.167 -20.5 -22.5s-10.167 -15 -13.5 -23s-6 -17.333 -8 -28l-8 -49
c-1.33301 -5.33301 -4.33301 -9.83301 -9 -13.5s-9.66699 -5.5 -15 -5.5h-44c-10 0 -15 5 -15 15v3v1l8 49c2.66699 16 6 30.333 10 43s9.66699 24.667 17 36s16.333 23 27 35s23.667 25 39 39l55 51c14.667 13.333 27.5 25.666 38.5 36.999s20.167 22.666 27.5 33.999
s12.833 23.333 16.5 36s5.5 27.334 5.5 44.001c0 20.667 -7.33301 34.834 -22 42.501s-38 11.5 -70 11.5c-24 0 -46.833 -0.833008 -68.5 -2.5s-44.167 -3.83398 -67.5 -6.50098h-3c-8 0 -12 4 -12 12v3v2l6 35c1.33301 6 3.16602 11 5.49902 15s7.5 6.66699 15.5 8
c21.333 4 44.333 7.16699 69 9.5s48.334 3.5 71.001 3.5c24.667 0 47.5 -2.33301 68.5 -7s39.333 -12 55 -22s28 -22.833 37 -38.5s13.5 -34.167 13.5 -55.5zM218 112l-16.998 -93c-2 -12.667 -9.33301 -19 -22 -19h-48c-11.333 -0 -17 5.33301 -17 16v3l17 93
c1.33301 5.33301 4.16602 10 8.49902 14s9.16602 6 14.499 6h48c5.33301 0 9.33301 -1.66699 12 -5s4 -7.33301 4 -12v-3z" />
    <glyph glyph-name="at" unicode="@" horiz-adv-x="767" 
d="M769 401c0 -65.333 -8.49707 -120.165 -25.4971 -164.498s-41.833 -80 -74.5 -107s-72.667 -46.333 -120 -58s-101.333 -17.5 -162 -17.5c-52 0 -92.5 9.66699 -121.5 29s-43.5 49 -43.5 89c0 13.333 1.33301 26.333 4 39l24 117c6 30.667 14.5 56.167 25.5 76.5
s24.667 36.666 41 48.999s35.5 21 57.5 26s47 7.5 75 7.5c26 0 50.667 -1.83301 74 -5.5s40.666 -6.83398 51.999 -9.50098c13.333 -3.33301 20 -9.66602 20 -18.999c0 -1.33301 -0.166992 -2.33301 -0.5 -3s-0.5 -1.66699 -0.5 -3l-63 -313c34 5.33301 62 16.666 84 33.999
s39.5 38.333 52.5 63s22.167 51.834 27.5 81.501s8 59.5 8 89.5c0 65.333 -19.667 114.333 -59 147s-94.333 49 -165 49c-86 0 -156.5 -21.5 -211.5 -64.5s-91.167 -106.167 -108.5 -189.5l-31 -152c-4.66699 -21.333 -7 -42.333 -7 -63c0 -61.333 20 -107 60 -137
s97 -45 171 -45c27.333 0 52.833 0.666992 76.5 2s46.167 3 67.5 5h2c5.33301 0 8 -2 8 -6v-1l-4 -32c-0.666992 -5.33301 -2.33398 -8.83301 -5.00098 -10.5s-6.66699 -2.83398 -12 -3.50098c-4 -0.666992 -10.833 -1.33398 -20.5 -2.00098s-20.834 -1.5 -33.501 -2.5
s-26.667 -1.83301 -42 -2.5s-30.333 -1 -45 -1c-42 0 -80.5 5.16699 -115.5 15.5s-65.333 25.333 -91 45s-45.5 44.167 -59.5 73.5s-21 63 -21 101c0 20.667 2 42 6 64l31 156c20 102.667 63.333 179.667 130 231s155 77 265 77c40.667 0 78.167 -6 112.5 -18
s63.833 -29.167 88.5 -51.5s44 -49.166 58 -80.499s21 -66.333 21 -105zM500.003 409.001l-33 3.99805c-11.333 1.33301 -22.666 2 -33.999 2c-30 0 -52.833 -7.16699 -68.5 -21.5s-26.5 -36.833 -32.5 -67.5l-23 -114c-1.33301 -7.33301 -2.33301 -14 -3 -20
s-1 -11.667 -1 -17c0 -11.333 2 -20.166 6 -26.499s9.5 -11.166 16.5 -14.499s14.667 -5.5 23 -6.5s17.166 -1.5 26.499 -1.5h26h1h3h19.5c6.33301 0 12.833 0.666992 19.5 2z" />
    <glyph glyph-name="A" unicode="A" horiz-adv-x="633" 
d="M607 19c0 -12.667 -5.66797 -18.999 -17.001 -18.999h-60c-4.66699 0 -8 1.5 -10 4.5s-3.33301 6.5 -4 10.5l-25 230h-259l-104 -230c-1.33301 -4 -3.66602 -7.5 -6.99902 -10.5s-8 -4.5 -14 -4.5h-61c-9.33301 0 -14 4.33301 -14 13c0 4 0.666992 7.33301 2 10l300 651
c14 30.667 31.167 51 51.5 61s41.5 15 63.5 15c10 0 20 -1 30 -3s19 -5.83301 27 -11.5s14.667 -13.334 20 -23.001s9 -22.167 11 -37.5l70 -652v-4zM452.999 653.001c-1.33301 12 -6.66699 18 -16 18c-10 0 -17.667 -6 -23 -18l-149 -329h221z" />
    <glyph glyph-name="B" unicode="B" horiz-adv-x="616" 
d="M661 574c0 -3.33301 -0.164062 -6.83496 -0.49707 -10.502s-1.5 -11.167 -3.5 -22.5c-8 -42 -23.333 -75.333 -46 -100s-52 -43.667 -88 -57c27.333 -11.333 48.166 -28.666 62.499 -51.999s21.5 -50 21.5 -80c0 -5.33301 -0.166992 -11.166 -0.5 -17.499
s-1.83301 -16.166 -4.5 -29.499c-7.33301 -42.667 -20.666 -77.667 -39.999 -105s-43.333 -49 -72 -65s-61.334 -27 -98.001 -33s-76.334 -9 -119.001 -9c-33.333 0 -64 0.666992 -92 2s-51.333 3.66602 -70 6.99902c-18 2.66699 -27 11.334 -27 26.001
c0 4.66699 0.333008 8.33398 1 11.001l117 666c4 21.333 17 33.666 39 36.999c17.333 2 40.166 3.83301 68.499 5.5s58.833 2.5 91.5 2.5c36.667 0 70.834 -2.83301 102.501 -8.5s59.167 -14.834 82.5 -27.501s41.666 -29 54.999 -49s20 -44.333 20 -73v-18z
M570.003 582.998c0 18.667 -4.33398 33.8311 -13.001 45.498s-21 20.834 -37 27.501s-35.167 11.167 -57.5 13.5s-47.166 3.5 -74.499 3.5c-17.333 0 -34.833 -0.333008 -52.5 -1s-33.5 -1.33398 -47.5 -2.00098l-44 -248h154c28.667 0 53 3.16699 73 9.5s36.5 15 49.5 26
s23 23.667 30 38s12.167 29.5 15.5 45.5c2 10.667 3.16699 17.834 3.5 21.501s0.5 6.83398 0.5 9.50098v11zM516.002 250.995c0 13.333 -2.16504 26.001 -6.49805 38.001s-11.5 22.5 -21.5 31.5s-23.333 16 -40 21s-37.334 7.5 -62.001 7.5h-154l-49 -275
c16.667 -0.666992 33.667 -1.5 51 -2.5s34.666 -1.5 51.999 -1.5c30.667 0 58.834 2 84.501 6s48.167 11 67.5 21s35.166 23.667 47.499 41s20.833 39.666 25.5 66.999c2.66699 13.333 4.16699 23 4.5 29s0.5 11.667 0.5 17z" />
    <glyph glyph-name="C" unicode="C" horiz-adv-x="545" 
d="M456 750c32 0 62.1709 -1.83691 90.5039 -5.50391s53.166 -7.16699 74.499 -10.5c4 -0.666992 7.66699 -1.66699 11 -3s4.33301 -4.66602 3 -9.99902l-9 -51c-0.666992 -8 -6.33398 -11.667 -17.001 -11l-32.5 2.5c-13 1 -27 2 -42 3s-30.333 1.83301 -46 2.5
s-30.834 1 -45.501 1c-24.667 0 -48.167 -3.83301 -70.5 -11.5s-43 -20.5 -62 -38.5s-35.5 -41.5 -49.5 -70.5s-24.667 -64.5 -32 -106.5l-25 -139c-2.66699 -14 -4.5 -27 -5.5 -39s-1.5 -23.667 -1.5 -35c0 -28 3.5 -51.667 10.5 -71s16.667 -35.166 29 -47.499
s27.166 -21.166 44.499 -26.499s36.333 -8 57 -8c14 0 29 0.333008 45 1s31.5 1.5 46.5 2.5s29 1.83301 42 2.5s24.167 1.33398 33.5 2.00098c8 0.666992 13.167 -0.166016 15.5 -2.49902s2.83301 -6.83301 1.5 -13.5l-7 -41c-1.33301 -6 -3.33301 -10.5 -6 -13.5
s-8.66699 -5.16699 -18 -6.5c-10.667 -2 -21.5 -3.83301 -32.5 -5.5s-23 -3 -36 -4s-27.5 -1.83301 -43.5 -2.5s-34.667 -1 -56 -1c-25.333 0 -50.833 4 -76.5 12s-49 21 -70 39s-38 41.5 -51 70.5s-19.5 64.833 -19.5 107.5c0 12 0.5 24.667 1.5 38s2.83301 27.333 5.5 42
l25 139c11.333 63.333 28.333 115.166 51 155.499s48.5 71.833 77.5 94.5s59.833 38.167 92.5 46.5s65 12.5 97 12.5z" />
    <glyph glyph-name="D" unicode="D" horiz-adv-x="641" 
d="M668 516c0 -12 -0.499023 -24.335 -1.49902 -37.002s-2.83301 -26 -5.5 -40l-23 -135c-9.33301 -55.333 -24.333 -102.5 -45 -141.5s-46.167 -71.167 -76.5 -96.5s-65.333 -43.833 -105 -55.5s-83.5 -17.5 -131.5 -17.5c-19.333 0 -38.166 0.333008 -56.499 1
s-35.5 1.5 -51.5 2.5s-30.167 2 -42.5 3s-22.166 2.16699 -29.499 3.5c-8 1.33301 -13.167 4 -15.5 8s-2.83301 9.66699 -1.5 17l121 687c3.33301 14.667 11.666 23 24.999 25c7.33301 1.33301 17.5 2.5 30.5 3.5s27.667 2 44 3s33.833 1.83301 52.5 2.5s37.667 1 57 1
c38 0 72.667 -4.83301 104 -14.5s58.166 -24.167 80.499 -43.5s39.666 -43.666 51.999 -72.999s18.5 -63.666 18.5 -102.999zM577.001 510.998c0 30.667 -4.49609 56.3311 -13.4961 76.998s-21.5 37.334 -37.5 50.001s-34.833 21.5 -56.5 26.5s-45.167 7.5 -70.5 7.5
c-23.333 0 -43.5 -0.166992 -60.5 -0.5s-33.833 -1.16602 -50.5 -2.49902l-105 -596c16 -1.33301 32.667 -2 50 -2h61c29.333 0 57.666 4 84.999 12s52.166 21.167 74.499 39.5s41.666 42.333 57.999 72s28.166 66.167 35.499 109.5l23 135c4.66699 25.333 7 49.333 7 72z
" />
    <glyph glyph-name="E" unicode="E" horiz-adv-x="551" 
d="M410 668c-26.667 0 -48.334 -1.83594 -65.001 -5.50293s-30.167 -9.66699 -40.5 -18s-18.166 -19.166 -23.499 -32.499s-9.66602 -29.333 -12.999 -48l-24 -139h307c12.667 0 18 -6.66699 16 -20l-6 -38c-1.33301 -5.33301 -3.5 -10 -6.5 -14s-8.83301 -6 -17.5 -6h-307
l-29 -168c-1.33301 -8 -2.5 -15.333 -3.5 -22s-1.5 -13 -1.5 -19c0 -22.667 7.66699 -38.834 23 -48.501s44 -14.5 86 -14.5h190c5.33301 0 9 -0.666992 11 -2s2.33301 -4.66602 1 -9.99902l-9 -49c-0.666992 -3.33301 -1.5 -6.16602 -2.5 -8.49902
s-4.16699 -4.16602 -9.5 -5.49902c-7.33301 -0.666992 -18.833 -1.5 -34.5 -2.5s-33 -1.83301 -52 -2.5s-38.333 -1.16699 -58 -1.5s-36.834 -0.5 -51.501 -0.5c-57.333 0 -102.333 11.833 -135 35.5s-49 59.834 -49 108.501c0 14.667 1.33301 28.667 4 42l67 385
c6.66699 36.667 16.667 67 30 91s30.166 43 50.499 57s44.166 23.833 71.499 29.5s58.666 8.5 93.999 8.5c56.667 0 99.834 -0.833008 129.501 -2.5s51.167 -3.83398 64.5 -6.50098c3.33301 -0.666992 5.83301 -1.83398 7.5 -3.50098s1.83398 -5.16699 0.500977 -10.5
l-9 -47c-0.666992 -5.33301 -2.16699 -8.66602 -4.5 -9.99902s-5.16602 -2 -8.49902 -2h-193v0z" />
    <glyph glyph-name="F" unicode="F" horiz-adv-x="551" 
d="M410 668c-26.667 0 -48.333 -1.83398 -65 -5.50098s-30.167 -9.66699 -40.5 -18s-18.166 -19.166 -23.499 -32.499s-9.66602 -29.333 -12.999 -48l-24 -139h307c5.33301 0 9.66602 -1.33301 12.999 -4s4.33301 -8 3 -16l-6 -38c-1.33301 -5.33301 -3.33301 -10 -6 -14
s-8.66699 -6 -18 -6h-307l-57 -327c-1.33301 -5.33301 -3.5 -10 -6.5 -14s-8.5 -6 -16.5 -6h-51c-7.33301 0 -12.333 2 -15 6s-3.33398 8.66699 -2.00098 14l95 544c6.66699 37.333 16.667 68 30 92s30.166 43 50.499 57s44.166 23.667 71.499 29s58.666 8 93.999 8
c53.333 0 93.833 -0.666992 121.5 -2s50.167 -3.33301 67.5 -6c6.66699 -1.33301 10.834 -3 12.501 -5s1.83398 -5.33301 0.500977 -10l-9 -47c-1.33301 -8 -5.66602 -12 -12.999 -12h-193v0z" />
    <glyph glyph-name="G" unicode="G" horiz-adv-x="612" 
d="M458 750c46.667 0 85.001 -1.49805 115.001 -4.49805s54.333 -6.16699 73 -9.5c4.66699 -0.666992 8.5 -2 11.5 -4s3.83301 -5.66699 2.5 -11l-9 -50c-0.666992 -5.33301 -2.5 -8.5 -5.5 -9.5s-7.16699 -1.16699 -12.5 -0.5c-14.667 1.33301 -28.667 2.5 -42 3.5
s-27.333 1.66699 -42 2s-30.5 0.666016 -47.5 0.999023s-36.167 0.5 -57.5 0.5c-22 0 -44.333 -3.5 -67 -10.5s-43.834 -19.167 -63.501 -36.5s-37.167 -40.833 -52.5 -70.5s-27 -67.167 -35 -112.5l-23 -134c-2.66699 -15.333 -4.66699 -29.5 -6 -42.5s-2 -25.167 -2 -36.5
c0 -28 3.5 -51.667 10.5 -71s16.5 -34.833 28.5 -46.5s26.167 -20.167 42.5 -25.5s34.166 -8 53.499 -8c30.667 0 56.5 0.666992 77.5 2s37.5 2.66602 49.5 3.99902l51 286c1.33301 5.33301 3.83301 10 7.5 14s8.16699 6 13.5 6h54c5.33301 0 9.33301 -1.66699 12 -5
s4 -7.33301 4 -12v-3l-60 -336c-2 -12.667 -9.33301 -20 -22 -22c-25.333 -4 -53.333 -7.5 -84 -10.5s-69.667 -4.5 -117 -4.5c-26.667 0 -52.667 4.33301 -78 13s-47.833 22.5 -67.5 41.5s-35.5 43.333 -47.5 73s-18 65.5 -18 107.5c0 11.333 0.5 23.5 1.5 36.5
s2.83301 26.167 5.5 39.5l23 134c10.667 64 27.334 116.167 50.001 156.5s48.667 72 78 95s60.833 38.833 94.5 47.5s67.167 13 100.5 13z" />
    <glyph glyph-name="H" unicode="H" horiz-adv-x="680" 
d="M713 743c12.667 0 18 -6.66699 16 -20l-123 -703c-1.33301 -5.33301 -4.33301 -10 -9 -14s-9.66699 -6 -15 -6h-51c-12.667 0 -18 6.66699 -16 20l58 332h-342l-58 -332c-1.33301 -5.33301 -3.33301 -10 -6 -14s-8.66699 -6 -18 -6h-51c-6 0 -10.5 2 -13.5 6
s-3.83301 8.66699 -2.5 14l123 703c1.33301 5.33301 3.33301 10 6 14s8.66699 6 18 6h51c12.667 0 18 -6.66699 16 -20l-51 -290h342l51 290c1.33301 5.33301 3.33301 10 6 14s8.66699 6 18 6h51z" />
    <glyph glyph-name="I" unicode="I" horiz-adv-x="267" 
d="M292 743c12 0 17 -6.33301 15 -19l-124 -704c-2 -13.333 -9.33301 -20 -22 -20h-55c-6.66699 0 -11 2 -13 6s-2.33301 8.66699 -1 14l124 704c1.33301 5.33301 3.33301 9.83301 6 13.5s7.66699 5.5 15 5.5h55z" />
    <glyph glyph-name="J" unicode="J" horiz-adv-x="257" 
d="M291 743c5.33301 0 9.66309 -1.33301 12.9961 -4s4.33301 -7.66699 3 -15l-135 -761c-8.66699 -48 -27 -83.833 -55 -107.5s-69.667 -35.5 -125 -35.5c-11.333 0 -21.333 0.833008 -30 2.5s-14.667 3.16699 -18 4.5c-5.33301 2 -7.66602 6 -6.99902 12l6 37
c1.33301 5.33301 3.33301 9.5 6 12.5s8.33398 4.5 17.001 4.5h39c26.667 0 44.834 5.5 54.501 16.5s16.834 28.833 21.501 53.5l135 761c1.33301 5.33301 3.5 9.83301 6.5 13.5s8.16699 5.5 15.5 5.5h53z" />
    <glyph glyph-name="K" unicode="K" horiz-adv-x="607" 
d="M691 733c0 -4 -1.66602 -7.66602 -4.99902 -10.999l-370 -340l239 -366c1.33301 -2.66699 2 -4.66699 2 -6c0 -6.66699 -3.66699 -10 -11 -10h-72c-9.33301 0 -16 3.33301 -20 10l-222 346l-59 -336c-1.33301 -5.33301 -3.16602 -10 -5.49902 -14s-7.83301 -6 -16.5 -6
h-55c-5.33301 0 -9.33301 2 -12 6s-3.33398 8.66699 -2.00098 14l124 704c1.33301 5.33301 3.33301 9.83301 6 13.5s8 5.5 16 5.5h53c5.33301 0 9.66602 -1.33301 12.999 -4s4.33301 -7.66699 3 -15l-55 -314l336 324c3.33301 3.33301 6.5 5.66602 9.5 6.99902
s7.16699 2 12.5 2h78c8.66699 0 13 -3.33301 13 -10z" />
    <glyph glyph-name="L" unicode="L" horiz-adv-x="514" 
d="M506 60l-7 -43.998c-0.666992 -4.66699 -1.66699 -7.83398 -3 -9.50098s-4.66602 -3.16699 -9.99902 -4.5c-13.333 -2 -37.5 -4 -72.5 -6s-76.167 -3 -123.5 -3c-24.667 0 -48.167 1.83301 -70.5 5.5s-41.833 10.834 -58.5 21.501s-29.834 25.167 -39.501 43.5
s-14.5 42.166 -14.5 71.499c0 8.66699 0.333008 17.5 1 26.5s2 18.833 4 29.5l93 532c1.33301 5.33301 3.33301 10 6 14s8.66699 6 18 6h51c6 0 10.5 -2 13.5 -6s3.83301 -8.66699 2.5 -14l-95 -544c-1.33301 -8 -2.5 -15.833 -3.5 -23.5s-1.5 -14.5 -1.5 -20.5
c0 -22.667 7.66699 -38.334 23 -47.001s44 -13 86 -13h188c8.66699 0 13 -4 13 -12v-3z" />
    <glyph glyph-name="M" unicode="M" horiz-adv-x="761" 
d="M786 743c19.333 0 27.3301 -9.66602 23.9971 -28.999l-122 -694c-1.33301 -5.33301 -3.33301 -10 -6 -14s-8.66699 -6 -18 -6h-49c-12.667 0 -18 6.66699 -16 20l103 588c0.666992 4 0.333984 6 -0.999023 6l-3 -3l-193 -293c-6.66699 -10 -13.5 -17.333 -20.5 -22
s-16.833 -7 -29.5 -7h-46c-12.667 0 -21.667 2.33301 -27 7s-9.66602 12 -12.999 22l-88 292c-1.33301 3.33301 -2.16602 5.16602 -2.49902 5.49902s-0.833008 0.5 -1.5 0.5c-1.33301 0 -2.33301 -2.66699 -3 -8l-103 -588c-1.33301 -5.33301 -3.5 -10 -6.5 -14
s-8.83301 -6 -17.5 -6h-49c-6 0 -10.5 2 -13.5 6s-3.83301 8.66699 -2.5 14l122 694c1.33301 8 4.16602 14.833 8.49902 20.5s12.833 8.5 25.5 8.5h62c10 0 16.833 -1.16699 20.5 -3.5s6.5 -6.83301 8.5 -13.5l105 -343c2.66699 -7.33301 6 -11 10 -11
c2.66699 0 4.83398 0.666992 6.50098 2s4.16699 4.33301 7.5 9l225 343c4 6.66699 8.5 11.167 13.5 13.5s12.167 3.5 21.5 3.5h68z" />
    <glyph glyph-name="N" unicode="N" horiz-adv-x="680" 
d="M641 724c1.33301 5.33301 3.33398 9.83301 6.00098 13.5s7.66699 5.5 15 5.5h53c5.33301 0 9.16602 -1.5 11.499 -4.5s3.5 -6.5 3.5 -10.5v-4l-123 -695c-1.33301 -8 -4 -14.833 -8 -20.5s-12.667 -8.5 -26 -8.5h-58c-10.667 -0 -17.667 1.33301 -21 4s-6 6.66699 -8 12
l-210 587l-2 3c-1.33301 0 -2 -1 -2 -3l-103 -584c-1.33301 -5.33301 -3.83301 -9.83301 -7.5 -13.5s-8.16699 -5.5 -13.5 -5.5h-58c-8.66699 0 -12 4 -10 12l124 703c1.33301 8 4.5 14.667 9.5 20s13.167 8 24.5 8h49c14 0 23 -1.5 27 -4.5s7.33301 -8.16699 10 -15.5
l208 -579c2 -5.33301 3.33301 -8 4 -8c1.33301 0 2.33301 2.66699 3 8z" />
    <glyph glyph-name="O" unicode="O" horiz-adv-x="661" 
d="M686 520c0 -13.333 -0.665039 -26.833 -1.99805 -40.5s-3.33301 -28.167 -6 -43.5l-23 -129c-10 -55.333 -24.5 -102.833 -43.5 -142.5s-42.333 -72.167 -70 -97.5s-59.334 -44 -95.001 -56s-74.5 -18 -116.5 -18c-32 0 -61.667 4.66699 -89 14s-51 23.5 -71 42.5
s-35.667 42.833 -47 71.5s-17 62.667 -17 102c0 13.333 0.666992 26.833 2 40.5s3.33301 28.167 6 43.5l23 129c10.667 59.333 26.167 109 46.5 149s44.666 72.333 72.999 97s60 42.167 95 52.5s72.167 15.5 111.5 15.5c33.333 0 63.666 -4.83301 90.999 -14.5
s50.833 -24.167 70.5 -43.5s34.834 -43.333 45.501 -72s16 -62 16 -100zM594.002 519c0 54.667 -12.668 93.166 -38.001 115.499s-61 33.5 -107 33.5c-55.333 0 -102.166 -18.5 -140.499 -55.5s-64.833 -95.833 -79.5 -176.5l-23 -129c-2.66699 -14 -4.5 -27.333 -5.5 -40
s-1.5 -24.667 -1.5 -36c0 -57.333 12.833 -97.666 38.5 -120.999s61.167 -35 106.5 -35c54.667 0 101.167 18.5 139.5 55.5s64.833 95.833 79.5 176.5l23 129c3.33301 15.333 5.5 30 6.5 44s1.5 27 1.5 39z" />
    <glyph glyph-name="P" unicode="P" horiz-adv-x="593" 
d="M645 574c0 -12.667 -0.999023 -26.333 -2.99902 -41l-2 -13c-7.33301 -45.333 -20.5 -82.333 -39.5 -111s-42.5 -51.5 -70.5 -68.5s-60 -28.667 -96 -35s-74 -9.5 -114 -9.5c-16 0 -33.333 0.5 -52 1.5s-34.334 2.16699 -47.001 3.5l-49 -281
c-1.33301 -5.33301 -3.33301 -10 -6 -14s-8 -6 -16 -6h-54c-11.333 0 -16 6.66699 -14 20l122 697c3.33301 14.667 13 23 29 25c22 2.66699 48 4.66699 78 6s59.667 2 89 2c74.667 0 134.167 -14.167 178.5 -42.5s66.5 -72.833 66.5 -133.5zM554.001 568.001
c0 39.333 -13.501 66.666 -40.501 81.999s-69.167 23 -126.5 23c-16 0 -33.833 -0.333008 -53.5 -1s-35.5 -1.66699 -47.5 -3l-52 -293c6 0 13.333 -0.333008 22 -1s17.667 -1.16699 27 -1.5l27.5 -1c9 -0.333008 16.833 -0.5 23.5 -0.5c68.667 0 119.834 12.667 153.501 38
s54.167 62 61.5 110l2 13c2 12.667 3 24.334 3 35.001z" />
    <glyph glyph-name="Q" unicode="Q" horiz-adv-x="661" 
d="M686 520c0 -13.333 -0.665039 -26.8311 -1.99805 -40.498s-3.33301 -28.167 -6 -43.5l-23 -129c-18 -101.333 -51.333 -176.833 -100 -226.5s-109.334 -78.167 -182.001 -85.5l-7 -43c-2 -11.333 -3 -20.333 -3 -27c0 -13.333 4 -21.833 12 -25.5s22 -5.5 42 -5.5h59
c6 0 11 -1 15 -3s5.33301 -6.33301 4 -13l-6 -34c-1.33301 -8.66699 -9.5 -14.834 -24.5 -18.501s-35.167 -5.5 -60.5 -5.5c-42 0 -74.333 6.16699 -97 18.5s-34 36.5 -34 72.5c0 13.333 1.33301 26.666 4 39.999l8 45c-26 4 -50 11.667 -72 23s-41 26.333 -57 45
s-28.333 41.167 -37 67.5s-13 56.833 -13 91.5c0 13.333 0.666992 26.833 2 40.5s3.33301 28.167 6 43.5l23 129c10.667 59.333 26.167 109 46.5 149s44.666 72.333 72.999 97s60 42.167 95 52.5s72.167 15.5 111.5 15.5c33.333 0 63.666 -4.83301 90.999 -14.5
s50.833 -24.167 70.5 -43.5s34.834 -43.333 45.501 -72s16 -62 16 -100zM594.002 519.002c0 54.667 -12.668 93.166 -38.001 115.499s-61 33.5 -107 33.5c-55.333 0 -102.166 -18.5 -140.499 -55.5s-64.833 -95.833 -79.5 -176.5l-23 -129
c-2.66699 -14 -4.5 -27.333 -5.5 -40s-1.5 -24.667 -1.5 -36c0 -57.333 12.833 -97.666 38.5 -120.999s61.167 -35 106.5 -35c54.667 0 101.167 18.5 139.5 55.5s64.833 95.833 79.5 176.5l23 129c3.33301 15.333 5.5 30 6.5 44s1.5 27 1.5 39z" />
    <glyph glyph-name="R" unicode="R" horiz-adv-x="625" 
d="M655 572c0 -12 -1.00195 -24.334 -3.00195 -37.001l-1 -7c-8.66699 -58.667 -30.167 -104.667 -64.5 -138s-77.166 -54.666 -128.499 -63.999l130 -307c1.33301 -2.66699 2 -5.66699 2 -9c0 -6.66699 -3.66699 -10 -11 -10h-69c-6 0 -10.167 0.5 -12.5 1.5
s-4.83301 4.83301 -7.5 11.5l-126 298h-31c-16.667 0 -36 0.333008 -58 1s-39.333 1.33398 -52 2.00098l-51 -294c-1.33301 -5.33301 -3.5 -10 -6.5 -14s-8.16699 -6 -15.5 -6h-54c-11.333 0 -16 6.66699 -14 20l123 700c1.33301 7.33301 4 12.5 8 15.5
s10.667 5.16699 20 6.5c10.667 1.33301 23.667 2.5 39 3.5s31.333 1.83301 48 2.5s32.834 1.16699 48.501 1.5s29.5 0.5 41.5 0.5c36 0 69 -3.5 99 -10.5s55.833 -17.667 77.5 -32s38.5 -32.833 50.5 -55.5s18 -49.334 18 -80.001zM564.998 567.999
c0 39.333 -13.8359 65.832 -41.5029 79.499s-70.167 20.5 -127.5 20.5h-27.5c-10.333 0 -20.666 -0.166992 -30.999 -0.5s-20.166 -0.666016 -29.499 -0.999023s-17 -0.833008 -23 -1.5l-48 -274c12.667 -0.666992 28.5 -1.16699 47.5 -1.5s39.833 -0.5 62.5 -0.5
c28 0 54.333 2.33301 79 7s46.334 12.5 65.001 23.5s34 25.333 46 43s20 39.5 24 65.5l1 7c2 12 3 23 3 33z" />
    <glyph glyph-name="S" unicode="S" horiz-adv-x="550" 
d="M406 750c14.667 0 30.999 -0.331055 48.999 -0.998047s35.667 -1.5 53 -2.5s33.5 -2.33301 48.5 -4s27.167 -3.16699 36.5 -4.5c6.66699 -1.33301 11 -3 13 -5s2.33301 -6 1 -12l-7 -43c-1.33301 -6 -3.16602 -10.5 -5.49902 -13.5s-7.83301 -3.83301 -16.5 -2.5
c-22 1.33301 -48.833 2.66602 -80.5 3.99902s-62.167 2 -91.5 2c-20 0 -40 -1.16699 -60 -3.5s-37.833 -7.16602 -53.5 -14.499s-28.334 -17.666 -38.001 -30.999s-14.5 -31 -14.5 -53c0 -12 1.5 -22.667 4.5 -32s8 -18.5 15 -27.5s16.167 -18 27.5 -27
s25.333 -18.833 42 -29.5l82 -55c23.333 -15.333 43 -30.333 59 -45s29 -29.5 39 -44.5s17.167 -30.667 21.5 -47s6.5 -33.5 6.5 -51.5c0 -35.333 -7 -66.333 -21 -93s-33.5 -49 -58.5 -67s-54.5 -31.5 -88.5 -40.5s-71 -13.5 -111 -13.5c-14 0 -28.667 0.333008 -44 1
s-30.5 1.66699 -45.5 3s-29.5 2.83301 -43.5 4.5s-26.333 3.5 -37 5.5c-6 1.33301 -10.5 3.16602 -13.5 5.49902s-3.83301 6.5 -2.5 12.5l7 40c1.33301 7.33301 3.33301 12.166 6 14.499s8.33398 2.83301 17.001 1.5c11.333 -1.33301 24 -2.33301 38 -3
s28.5 -1.16699 43.5 -1.5l44 -1c14.333 -0.333008 27.166 -0.5 38.499 -0.5c54 0 96.667 10.167 128 30.5s47 54.166 47 101.499c0 12 -1.66699 22.667 -5 32s-8.83301 18.5 -16.5 27.5s-17.667 18.333 -30 28s-27.166 20.5 -44.499 32.5l-87 59
c-34 23.333 -60.667 49.333 -80 78s-29 61 -29 97c0 34.667 7 64 21 88s32.833 43.5 56.5 58.5s51 25.833 82 32.5s63.5 10 97.5 10z" />
    <glyph glyph-name="T" unicode="T" horiz-adv-x="590" 
d="M345 20c-1.33301 -5.33301 -3.99512 -10 -7.99512 -14s-8.66699 -6 -14 -6h-55c-5.33301 0 -9.33301 2 -12 6s-3.33398 8.66699 -2.00098 14l113 645h-195c-5.33301 0 -9.83301 1 -13.5 3s-4.83398 6.33301 -3.50098 13l8 44
c1.33301 7.33301 4.16602 12.166 8.49902 14.499s9.16602 3.5 14.499 3.5h481c5.33301 0 9.66602 -1.16699 12.999 -3.5s4.33301 -7.16602 3 -14.499l-8 -44c-1.33301 -5.33301 -3.33301 -9.33301 -6 -12s-8 -4 -16 -4h-195z" />
    <glyph glyph-name="U" unicode="U" horiz-adv-x="662" 
d="M699 743c5.33301 0 9.66309 -1.33398 12.9961 -4.00098s4.33301 -7.66699 3 -15l-80 -454c-17.333 -98.667 -51.166 -169.5 -101.499 -212.5s-118.166 -64.5 -203.499 -64.5c-66 0 -118.167 17 -156.5 51s-57.5 85 -57.5 153c0 11.333 0.5 23 1.5 35
s2.83301 24.667 5.5 38l80 454c1.33301 5.33301 3.5 9.83301 6.5 13.5s8.16699 5.5 15.5 5.5h54c5.33301 0 9.66602 -1.33301 12.999 -4s4.33301 -7.66699 3 -15l-80 -454c-2.66699 -13.333 -4.66699 -25.833 -6 -37.5s-2 -23.167 -2 -34.5c0 -42 10.5 -73.667 31.5 -95
s56.167 -32 105.5 -32c30.667 0 57.334 4.33301 80.001 13s41.834 21.334 57.501 38.001s28.334 37.5 38.001 62.5s17.5 53.5 23.5 85.5l80 454c1.33301 5.33301 3.33301 9.83301 6 13.5s8 5.5 16 5.5h54z" />
    <glyph glyph-name="V" unicode="V" horiz-adv-x="643" 
d="M723 743c14.667 0 18.666 -7.66699 11.999 -23l-299 -651c-7.33301 -16 -15.666 -28.833 -24.999 -38.5s-19 -17.334 -29 -23.001s-20.333 -9.5 -31 -11.5s-20.667 -3 -30 -3s-18.833 1 -28.5 3s-18.667 5.83301 -27 11.5s-15.5 13.334 -21.5 23.001s-10 22.5 -12 38.5
l-70 651c-1.33301 10 0.166992 16.333 4.5 19s9.83301 4 16.5 4h56c6.66699 0 10.667 -1.5 12 -4.5s2.33301 -6.5 3 -10.5l62 -637c0.666992 -14 6 -21 16 -21c9.33301 0 17 7 23 21l287 637c2 4 4 7.5 6 10.5s6.66699 4.5 14 4.5h61z" />
    <glyph glyph-name="W" unicode="W" horiz-adv-x="825" 
d="M905 743c5.33301 0 9.5 -1.49609 12.5 -4.49609s3.16699 -8.16699 0.5 -15.5l-230 -676c-7.33301 -20.667 -17 -34.334 -29 -41.001s-26 -10 -42 -10h-43c-14 0 -25.167 4.5 -33.5 13.5s-13.166 21.167 -14.499 36.5l-33 370c-1.33301 6 -3 9 -5 9
c-1.33301 0 -2.66602 -0.333008 -3.99902 -1s-3 -3.33398 -5 -8.00098l-164 -370c-6.66699 -15.333 -15.834 -27.5 -27.501 -36.5s-24.5 -13.5 -38.5 -13.5h-42c-16 0 -28.833 3.16699 -38.5 9.5s-14.5 19.833 -14.5 40.5v1l8 676c0 13.333 7 20 21 20h57
c9.33301 0 14 -5.66699 14 -17l-15 -637c0 -10 1 -15 3 -15c1.33301 0 4.33301 5 9 15l163 370c6 13.333 13.167 23.333 21.5 30s19.166 10 32.499 10h64c24.667 0 38 -13.333 40 -40l33 -370c0.666992 -4.66699 1 -8.33398 1 -11.001s1 -4 3 -4s3.5 1.16699 4.5 3.5
s2.16699 6.16602 3.5 11.499l209 637c4 11.333 10.667 17 20 17h59z" />
    <glyph glyph-name="X" unicode="X" horiz-adv-x="646" 
d="M719 731c0 -3.33301 -1.66504 -7.33203 -4.99805 -11.999l-279 -345l164 -349c1.33301 -4 2 -6.66699 2 -8c0 -4.66699 -1.66699 -8.66699 -5 -12s-8 -5 -14 -5h-50c-5.33301 0 -9 1.16699 -11 3.5s-4.33301 6.16602 -7 11.499l-135 288l-233 -288
c-8 -10 -16 -15 -24 -15h-60c-9.33301 0 -14 4 -14 12c0 4 1.66699 8.33301 5 13l290 355l-159 339c-1.33301 2.66699 -2 5 -2 7c0 4.66699 1.66699 8.66699 5 12s7.66602 5 12.999 5h51c5.33301 0 9 -0.833008 11 -2.5s3.66699 -4.16699 5 -7.5l133 -284l232 284
c3.33301 4.66699 6.66602 7.5 9.99902 8.5s7 1.5 11 1.5h52c9.33301 0 14 -4 14 -12z" />
    <glyph glyph-name="Y" unicode="Y" horiz-adv-x="583" 
d="M677 731c0 -3.33301 -1.66797 -7.66602 -5.00098 -12.999l-217 -348c-12.667 -20 -24.167 -35 -34.5 -45s-20.5 -17 -30.5 -21l-50 -284c-1.33301 -5.33301 -3.33301 -10 -6 -14s-8 -6 -16 -6h-55c-11.333 0 -16 6.66699 -14 20l50 284
c-8.66699 3.33301 -16.667 10.166 -24 20.499s-13.666 25.5 -18.999 45.5l-92 348c-4.66699 16.667 1.33301 25 18 25h58c5.33301 0 9 -1.5 11 -4.5s3.66699 -6.16699 5 -9.5l80 -324c3.33301 -11.333 6.5 -18.5 9.5 -21.5s6.16699 -4.5 9.5 -4.5s6.83301 1.5 10.5 4.5
s9.16699 10.167 16.5 21.5l197 324c3.33301 5.33301 6.5 9 9.5 11s8.16699 3 15.5 3h58c10 0 15 -4 15 -12z" />
    <glyph glyph-name="Z" unicode="Z" horiz-adv-x="597" 
d="M645 674c0 -13.333 -2.66699 -26.501 -8 -39.501s-15.666 -28.167 -30.999 -45.5l-429 -493c-2.66699 -2.66699 -4 -5.33398 -4 -8.00098c0 -4 2.66699 -6 8 -6h357c8.66699 0 14 -1.5 16 -4.5s2.33301 -7.16699 1 -12.5l-8 -47
c-1.33301 -5.33301 -3.16602 -9.66602 -5.49902 -12.999s-8.16602 -5 -17.499 -5h-343c-34.667 0 -60 6.83301 -76 20.5s-24 32.167 -24 55.5c0 12 2.33301 24.5 7 37.5s12 25.167 22 36.5l425 492c3.33301 4 5.5 7 6.5 9s1.5 3.66699 1.5 5c0 4 -3 6 -9 6h-327
c-5.33301 0 -9.83301 1 -13.5 3s-4.83398 6.66699 -3.50098 14l8 47c1.33301 5.33301 3.16602 9.5 5.49902 12.5s8.16602 4.5 17.499 4.5h330c36 0 60.667 -6.16699 74 -18.5s20 -29.166 20 -50.499z" />
    <glyph glyph-name="bracketleft" unicode="[" horiz-adv-x="327" 
d="M430 723l-5 -33c-1.33301 -5.33301 -4.33301 -10 -9 -14s-9.66699 -6 -15 -6h-114l-139 -791h114c10.667 0 16 -5.33301 16 -16v-4l-6 -33c-1.33301 -5.33301 -4.16602 -10 -8.49902 -14s-9.16602 -6 -14.499 -6h-186c-4.66699 0 -8.16699 1.5 -10.5 4.5
s-3.5 6.5 -3.5 10.5v4l159 899c1.33301 5.33301 3.66602 9.83301 6.99902 13.5s7.66602 5.5 12.999 5.5h186c10.667 0 16 -5.33301 16 -16v-4z" />
    <glyph glyph-name="backslash" unicode="\" horiz-adv-x="355" 
d="M268 0c-5.33301 0 -8.83203 2 -10.499 6s-2.83398 8.66699 -3.50098 14l-103 703v2c0 4.66699 1.5 8.83398 4.5 12.501s7.16699 5.5 12.5 5.5h51c5.33301 0 8.66602 -2 9.99902 -6s2.33301 -8.66699 3 -14l101 -683c0.666992 -3.33301 1.33398 -7.83301 2.00098 -13.5
s1 -8.83398 1 -9.50098c0 -4.66699 -1.5 -8.66699 -4.5 -12s-7.16699 -5 -12.5 -5h-51z" />
    <glyph glyph-name="bracketright" unicode="]" horiz-adv-x="327" 
d="M375 724l-159.002 -899c-1.33301 -5.33301 -3.66602 -9.83301 -6.99902 -13.5s-7.66602 -5.5 -12.999 -5.5h-186c-11.333 0 -17 5.66699 -17 17v3l6 33c1.33301 5.33301 4.33301 10 9 14s9.66699 6 15 6h114l139 791h-114c-10.667 0 -16 5.33301 -16 16v4l5 33
c1.33301 5.33301 4.33301 10 9 14s9.66699 6 15 6h186c4.66699 0 8.16699 -1.5 10.5 -4.5s3.5 -6.5 3.5 -10.5v-4z" />
    <glyph glyph-name="asciicircum" unicode="^" horiz-adv-x="595" 
d="M578 572c0 -6 -3.66699 -9 -11 -9h-60c-7.33301 0 -12.5 1.5 -15.5 4.5s-7.16699 7.5 -12.5 13.5l-103 120l-103 -120c-5.33301 -6 -9.5 -10.5 -12.5 -13.5s-8.16699 -4.5 -15.5 -4.5h-60c-7.33301 0 -11 3 -11 9c0 4 1.33301 7.66699 4 11l115 149
c5.33301 7.33301 9.83301 12.166 13.5 14.499s9.16699 3.5 16.5 3.5h106c7.33301 0 12.833 -1.16699 16.5 -3.5s8.16699 -7.16602 13.5 -14.499l115 -149c2.66699 -3.33301 4 -7 4 -11z" />
    <glyph glyph-name="underscore" unicode="_" horiz-adv-x="494" 
d="M514 -65l-5.00098 -25c-1.33301 -5.33301 -4.16602 -9.33301 -8.49902 -12s-9.16602 -4 -14.499 -4h-515c-11.333 0 -17 4.33301 -17 13v3l5 25c2 10.667 9.33301 16 22 16h515c5.33301 0 9.66602 -1 12.999 -3s5 -5.33301 5 -10v-3z" />
    <glyph glyph-name="grave" unicode="`" horiz-adv-x="372" 
d="M354 632c0 -6 -3.33301 -9 -10 -9h-54c-5.33301 0 -9.33301 1.16699 -12 3.5s-5.66699 6.16602 -9 11.499l-90 126c-2 2.66699 -3 5 -3 7c0 5.33301 4 8 12 8h66c6 0 10.5 -1.16699 13.5 -3.5s6.16699 -6.16602 9.5 -11.499l75 -124c1.33301 -2 2 -4.66699 2 -8z" />
    <glyph glyph-name="a" unicode="a" horiz-adv-x="527" 
d="M358 557c30 0 60.3301 -2.16699 90.9971 -6.5s58.667 -9.83301 84 -16.5c9.33301 -2 14.833 -4.66699 16.5 -8s1.83398 -8.33301 0.500977 -15l-86 -491c-1.33301 -5.33301 -3.5 -10 -6.5 -14s-8.5 -6 -16.5 -6h-40c-7.33301 -0 -12 1.83301 -14 5.5
s-2.33301 9.16699 -1 16.5l5 31c-14.667 -10.667 -28.167 -19.667 -40.5 -27s-24.666 -13.5 -36.999 -18.5s-25.166 -8.66699 -38.499 -11s-28.333 -3.5 -45 -3.5c-21.333 0 -41.5 3.5 -60.5 10.5s-35.5 17.667 -49.5 32s-25.167 32.666 -33.5 54.999
s-12.5 48.833 -12.5 79.5c0 18.667 2 38.667 6 60l18 99c8 43.333 20.333 79.5 37 108.5s36.5 52.333 59.5 70s48.5 30.334 76.5 38.001s57 11.5 87 11.5zM454.997 473c-13.333 2.66699 -27.501 5 -42.501 7s-33.167 3 -54.5 3c-52 0 -91.667 -13.833 -119 -41.5
s-45.666 -68.167 -54.999 -121.5l-18 -103c-1.33301 -7.33301 -2.33301 -15 -3 -23s-1 -15.667 -1 -23c0 -38.667 8.5 -65.667 25.5 -81s37.5 -23 61.5 -23c23.333 0 46.333 5 69 15s48 24.333 76 43z" />
    <glyph glyph-name="b" unicode="b" horiz-adv-x="541" 
d="M552 378c0 -21.333 -1.99902 -43.333 -5.99902 -66l-13 -72c-14.667 -79.333 -42.834 -140.333 -84.501 -183s-100.5 -64 -176.5 -64c-30 0 -60.167 1.33301 -90.5 4s-60.5 7 -90.5 13c-10 2 -15.667 4.66699 -17 8s-1.33301 8.33301 0 15l123 700
c1.33301 5.33301 3.33301 9.83301 6 13.5s8 5.5 16 5.5h51c5.33301 0 9.5 -1.16699 12.5 -3.5s3.83301 -7.5 2.5 -15.5l-33 -186c20 3.33301 40.833 5.83301 62.5 7.5s40.5 2.5 56.5 2.5c60.667 0 106 -15.833 136 -47.5s45 -75.5 45 -131.5zM465.001 380
c0 34.667 -8.33301 60.001 -25 76.001s-44 24 -82 24c-16 0 -35.5 -0.333008 -58.5 -1s-43.167 -2.66699 -60.5 -6l-70 -397c16.667 -1.33301 35.834 -2.66602 57.501 -3.99902s41.167 -2 58.5 -2c46.667 0 82.667 15.333 108 46s42.666 72 51.999 124l13 72
c2.66699 13.333 4.5 25.666 5.5 36.999s1.5 21.666 1.5 30.999z" />
    <glyph glyph-name="c" unicode="c" horiz-adv-x="452" 
d="M348 480c-40 0 -73.668 -14.668 -101.001 -44.001s-45.333 -70 -54 -122l-13 -78c-4 -23.333 -6 -43.333 -6 -60c0 -38 8.66699 -65.167 26 -81.5s42.333 -24.5 75 -24.5c24.667 0 46.334 0.5 65.001 1.5s39 2.83301 61 5.5c8 1.33301 13.333 0.5 16 -2.5
s3.33398 -7.16699 2.00098 -12.5l-6 -36c-1.33301 -7.33301 -3.66602 -12.5 -6.99902 -15.5s-9 -5.16699 -17 -6.5c-16.667 -3.33301 -36.167 -6 -58.5 -8s-45.166 -3 -68.499 -3c-29.333 0 -55 4.83301 -77 14.5s-40.167 22.834 -54.5 39.501s-25.166 36.5 -32.499 59.5
s-11 47.833 -11 74.5c0 9.33301 0.5 18.5 1.5 27.5s2.16699 18.167 3.5 27.5l13 78c13.333 81.333 42.166 142.166 86.499 182.499s100.833 60.5 169.5 60.5c23.333 0 45.666 -1 66.999 -3s40 -4.66699 56 -8c9.33301 -1.33301 14.666 -3.66602 15.999 -6.99902
s1.33301 -8.33301 0 -15l-6 -36c-1.33301 -5.33301 -3.33301 -9.5 -6 -12.5s-8.66699 -3.83301 -18 -2.5c-21.333 2.66699 -40.833 4.5 -58.5 5.5s-38.834 1.5 -63.501 1.5z" />
    <glyph glyph-name="d" unicode="d" horiz-adv-x="541" 
d="M514 733c2.66699 12.667 10.335 19.001 23.002 19.001h51c11.333 0 16 -6.33301 14 -19l-123 -700c-1.33301 -6.66699 -3.5 -11.834 -6.5 -15.501s-9.16699 -6.16699 -18.5 -7.5c-32 -6 -63.5 -10.333 -94.5 -13s-61.833 -4 -92.5 -4s-57.334 4.5 -80.001 13.5
s-41.5 21.5 -56.5 37.5s-26.167 35.333 -33.5 58s-11 47.667 -11 75c0 20 2 41 6 63l13 72c15.333 86 44.333 148.333 87 187s100.667 58 174 58c15.333 0 33.666 -0.833008 54.999 -2.5s41.333 -4.16699 60 -7.5zM468.001 473.001
c-16 3.33301 -35.167 5.33398 -57.5 6.00098s-41.5 1 -57.5 1c-24.667 0 -46 -4.16699 -64 -12.5s-33.333 -20 -46 -35s-23 -32.833 -31 -53.5s-14.333 -43 -19 -67l-13 -72c-2 -12 -3.66699 -23.5 -5 -34.5s-2 -21.167 -2 -30.5c0 -34 8.16699 -60 24.5 -78
s43.833 -27 82.5 -27c17.333 0 37 0.666992 59 2s41.667 2.66602 59 3.99902z" />
    <glyph glyph-name="e" unicode="e" horiz-adv-x="544" 
d="M555 371c0 -19.333 -1.99707 -39.335 -5.99707 -60.002l-8 -42c-1.33301 -6.66699 -3.5 -12 -6.5 -16s-8.16699 -6 -15.5 -6h-337l-2 -12c-4 -23.333 -6 -43.666 -6 -60.999c0 -38 11 -65.333 33 -82s52.333 -25 91 -25c29.333 0 59.666 1.5 90.999 4.5
s58.666 6.16699 81.999 9.5c14.667 2 21 -2.66699 19 -14l-6 -34c-1.33301 -7.33301 -3.5 -12.666 -6.5 -15.999s-8.83301 -5.66602 -17.5 -6.99902c-30 -5.33301 -58.167 -9.5 -84.5 -12.5s-56.5 -4.5 -90.5 -4.5c-24.667 0 -48.834 3.33301 -72.501 10
s-44.667 17.334 -63 32.001s-33.166 33.667 -44.499 57s-17 52 -17 86c0 19.333 2 40 6 62l13 70c15.333 80 45.5 141.167 90.5 183.5s103.167 63.5 174.5 63.5c30.667 0 57.5 -4.83301 80.5 -14.5s42.167 -22.834 57.5 -39.501s26.666 -36.334 33.999 -59.001
s11 -47 11 -73zM467.003 373.998c0 70.667 -36 106.002 -108 106.002c-22 0 -42 -4 -60 -12s-33.833 -19.333 -47.5 -34s-25.167 -31.834 -34.5 -51.501s-16.333 -40.834 -21 -63.501l-1 -5h265l1 5c4 20 6 38.333 6 55z" />
    <glyph glyph-name="f" unicode="f" horiz-adv-x="370" 
d="M399 691c-12 0 -22.167 -0.671875 -30.5 -2.00488s-15.333 -4.33301 -21 -9s-10.5 -11.667 -14.5 -21s-7.33301 -21.666 -10 -36.999l-13 -72h108c5.33301 0 9.66602 -1.16699 12.999 -3.5s4.33301 -7.16602 3 -14.499l-6 -35c-2 -11.333 -9.66699 -17 -23 -17h-107
l-89 -504c-5.33301 -30 -13 -54 -23 -72s-22.167 -32 -36.5 -42s-30.333 -16.667 -48 -20s-36.5 -5 -56.5 -5c-8.66699 0 -18.667 0.5 -30 1.5s-21 2.16699 -29 3.5c-12.667 2 -18 7.33301 -16 16l6 33c1.33301 6.66699 3.83301 10.834 7.5 12.501s8.16699 2.5 13.5 2.5h47
c23.333 0 40.666 4.83301 51.999 14.5s19.666 28.167 24.999 55.5l89 504l-93 7c-12.667 1.33301 -18 7 -16 17l5 28c1.33301 5.33301 3.5 9.66602 6.5 12.999s8.16699 5 15.5 5h94l13 72c5.33301 30.667 12.833 55.167 22.5 73.5s21.334 32.333 35.001 42
s29.334 16 47.001 19s37.5 4.5 59.5 4.5c9.33301 0 19.333 -0.666992 30 -2s20 -2.66602 28 -3.99902c7.33301 -1.33301 12.166 -3.16602 14.499 -5.49902s2.83301 -5.83301 1.5 -10.5l-6 -33c-1.33301 -5.33301 -3.16602 -9.16602 -5.49902 -11.499
s-7.16602 -3.5 -14.499 -3.5h-48v0z" />
    <glyph glyph-name="g" unicode="g" horiz-adv-x="541" 
d="M105 312c8 44.667 19.333 82.665 34 113.998s33 56.666 55 75.999s47.667 33.333 77 42s62.666 13 99.999 13c30 0 61 -2.5 93 -7.5s59.333 -10.167 82 -15.5c9.33301 -2 14.833 -4.66699 16.5 -8s1.83398 -8.33301 0.500977 -15l-90 -510
c-6.66699 -38.667 -16.167 -70.834 -28.5 -96.501s-28 -46 -47 -61s-41.833 -25.5 -68.5 -31.5s-58 -9 -94 -9c-38 0 -72 2 -102 6s-51.667 8 -65 12c-8 2 -13 4.5 -15 7.5s-2.33301 7.5 -1 13.5l5 29c1.33301 6.66699 3.5 11.334 6.5 14.001s8.83301 3.33398 17.5 2.00098
s19.667 -2.66602 33 -3.99902s27.833 -2.5 43.5 -3.5l47 -3c15.667 -1 30.167 -1.5 43.5 -1.5c22 0 40.833 2 56.5 6s28.667 10.667 39 20s18.666 21.666 24.999 36.999s11.5 34.333 15.5 57l2 12c-6.66699 -1.33301 -14.834 -2.83301 -24.501 -4.5s-20 -3.16699 -31 -4.5
s-21.667 -2.5 -32 -3.5s-19.166 -1.5 -26.499 -1.5c-27.333 0 -52.333 3.33301 -75 10s-42.167 17.334 -58.5 32.001s-29.166 33.334 -38.499 56.001s-14 49.667 -14 81c0 20.667 2 43 6 67zM468 471.998c-13.333 2.66699 -29.667 5.16797 -49 7.50098
s-39.666 3.5 -60.999 3.5c-46.667 0 -83.167 -13.833 -109.5 -41.5s-44.833 -70.834 -55.5 -129.501l-13 -73c-2.66699 -13.333 -4.5 -26 -5.5 -38s-1.5 -23 -1.5 -33c0 -38 9.16699 -64.333 27.5 -79s46.5 -22 84.5 -22c6.66699 0 15 0.166992 25 0.5s20.167 1 30.5 2
s20.666 2.16699 30.999 3.5s19.5 3 27.5 5z" />
    <glyph glyph-name="h" unicode="h" horiz-adv-x="557" 
d="M556 397c0 -6.66699 -0.332031 -13.333 -0.999023 -20s-1.66699 -13.667 -3 -21l-59 -336c-1.33301 -5.33301 -3.5 -10 -6.5 -14s-8.83301 -6 -17.5 -6h-48c-12.667 0 -18 6.66699 -16 20l59 336c2.66699 13.333 4 26.666 4 39.999c0 30.667 -8.83301 52.667 -26.5 66
s-46.167 20 -85.5 20c-20 0 -40.667 -1.33301 -62 -4s-40 -6.33398 -56 -11.001l-78 -447c-1.33301 -5.33301 -3.33301 -10 -6 -14s-8.66699 -6 -18 -6h-48c-8 0 -13 2 -15 6s-2.33301 8.66699 -1 14l125 713c1.33301 5.33301 3.33301 9.83301 6 13.5s8 5.5 16 5.5h51
c5.33301 0 9.5 -1.33301 12.5 -4s3.83301 -7.66699 2.5 -15l-33 -190c17.333 4 36.333 7.33301 57 10s40.667 4 60 4c32 0 59.833 -4.16699 83.5 -12.5s43.167 -19.666 58.5 -33.999s26.666 -31.166 33.999 -50.499s11 -40.333 11 -63z" />
    <glyph glyph-name="i" unicode="i" horiz-adv-x="247" 
d="M283 758c12.667 0 17.998 -6.66699 15.998 -20l-14 -80c-1.33301 -7.33301 -3.66602 -12.5 -6.99902 -15.5s-9 -4.5 -17 -4.5h-51c-7.33301 0 -12.166 2 -14.499 6s-2.83301 8.66699 -1.5 14l14 80c1.33301 5.33301 3.83301 10 7.5 14s9.16699 6 16.5 6h51zM243.998 550
c6 0 10.499 -1.33301 13.499 -4s3.83301 -8 2.5 -16l-89 -510c-1.33301 -5.33301 -3.5 -10 -6.5 -14s-8.83301 -6 -17.5 -6h-48c-7.33301 0 -12.166 2 -14.499 6s-2.83301 8.66699 -1.5 14l89 510c1.33301 9.33301 4.33301 15 9 17s9.66699 3 15 3h48z" />
    <glyph glyph-name="j" unicode="j" horiz-adv-x="247" 
d="M283 758c12.667 0 17.998 -6.66699 15.998 -20l-14 -80c-1.33301 -7.33301 -3.66602 -12.5 -6.99902 -15.5s-9 -4.5 -17 -4.5h-51c-7.33301 0 -12.166 2 -14.499 6s-2.83301 8.66699 -1.5 14l14 80c1.33301 5.33301 3.83301 10 7.5 14s9.16699 6 16.5 6h51zM171.998 530
c1.33301 9.33301 4.33691 15 9.00391 17s9.66699 3 15 3h48c6 0 10.5 -1.33301 13.5 -4s3.83301 -8 2.5 -16l-104 -594c-4.66699 -26 -11.334 -47.5 -20.001 -64.5s-19.334 -30.667 -32.001 -41s-27.167 -17.5 -43.5 -21.5s-34.5 -6 -54.5 -6c-10 0 -19 0.333008 -27 1
s-16.667 1.66699 -26 3c-6.66699 1.33301 -11 3.16602 -13 5.49902s-2.66699 5.83301 -2 10.5l6 37c1.33301 6 3.83301 9.83301 7.5 11.5s9.16699 2.5 16.5 2.5h42c9.33301 0 17.166 0.833008 23.499 2.5s11.666 4.83398 15.999 9.50098s8 11 11 19s5.5 18.333 7.5 31z" />
    <glyph glyph-name="k" unicode="k" horiz-adv-x="496" 
d="M546 540c0 -4.66699 -2 -9 -6 -13l-259 -238l181 -266c2 -3.33301 3 -6.33301 3 -9c0 -3.33301 -1.16699 -6.5 -3.5 -9.5s-5.83301 -4.5 -10.5 -4.5h-58c-5.33301 0 -10.166 1 -14.499 3s-8.5 6 -12.5 12l-164 246l-42 -241c-1.33301 -5.33301 -3.5 -10 -6.5 -14
s-7.16699 -6 -12.5 -6h-53c-6 0 -10.5 2 -13.5 6s-3.83301 8.66699 -2.5 14l125 712c1.33301 5.33301 4.33301 10 9 14s9.66699 6 15 6h48c13.333 0 18.666 -6.66699 15.999 -20l-72 -406l230 215c6 6 13.333 9 22 9h68c8.66699 0 13 -3.33301 13 -10z" />
    <glyph glyph-name="l" unicode="l" horiz-adv-x="244" 
d="M281 752c12 0 16.668 -6.33301 14.001 -19l-125 -713c-1.33301 -5.33301 -3.33301 -10 -6 -14s-8 -6 -16 -6h-52c-5.33301 0 -9.33301 2 -12 6s-3.33398 8.66699 -2.00098 14l125 713c1.33301 5.33301 3.5 9.83301 6.5 13.5s8.16699 5.5 15.5 5.5h52z" />
    <glyph glyph-name="m" unicode="m" horiz-adv-x="797" 
d="M800 412c0 -7.33301 -0.499023 -14.335 -1.49902 -21.002s-2.16699 -14 -3.5 -22l-61 -349c-1.33301 -5.33301 -4.33301 -10 -9 -14s-9.66699 -6 -15 -6h-48c-6 0 -10.5 2 -13.5 6s-3.83301 8.66699 -2.5 14l61 349c1.33301 8 2.33301 15.5 3 22.5s1 13.5 1 19.5
c0 26.667 -6.5 44.834 -19.5 54.501s-32.833 14.5 -59.5 14.5c-15.333 0 -33.833 -2 -55.5 -6s-43.834 -11.667 -66.501 -23c2 -11.333 2.5 -25.166 1.5 -41.499s-2.16699 -29.166 -3.5 -38.499l-61 -351c-1.33301 -5.33301 -4 -10 -8 -14s-8.66699 -6 -14 -6h-53
c-6 0 -10 2.16699 -12 6.5s-2.33301 8.83301 -1 13.5l61 351c2 11.333 3.66699 21.166 5 29.499s2 16.5 2 24.5c0 21.333 -5.66699 35.833 -17 43.5s-25.666 11.5 -42.999 11.5c-12 0 -24.333 -1.5 -37 -4.5s-25 -6.5 -37 -10.5s-23.167 -8.16699 -33.5 -12.5l-25.5 -10.5
l-74 -422c-1.33301 -5.33301 -4 -10 -8 -14s-8.66699 -6 -14 -6h-53c-6 0 -10 2 -12 6s-2.33301 8.66699 -1 14l89 510c1.33301 5.33301 3.5 10 6.5 14s8.5 6 16.5 6h48c8 0 12.833 -2 14.5 -6s1.83398 -8.66699 0.500977 -14l-3 -19
c25.333 15.333 49.666 26.833 72.999 34.5s47.666 11.5 72.999 11.5c21.333 0 41 -4.16699 59 -12.5s31.667 -19.166 41 -32.499c32 17.333 60.333 29.166 85 35.499s51 9.5 79 9.5c50 0 86.833 -13.167 110.5 -39.5s35.5 -61.5 35.5 -105.5z" />
    <glyph glyph-name="n" unicode="n" horiz-adv-x="557" 
d="M556 403c0 -17.333 -1.66406 -35.332 -4.99707 -53.999l-58 -329c-1.33301 -5.33301 -4.33301 -10 -9 -14s-9.66699 -6 -15 -6h-48c-6 0 -10.5 2 -13.5 6s-3.83301 8.66699 -2.5 14l58 329c1.33301 9.33301 2.5 18.833 3.5 28.5s1.5 18.5 1.5 26.5
c0 24 -6.33301 42.667 -19 56s-37.334 20 -74.001 20c-19.333 0 -39.666 -2.5 -60.999 -7.5s-48 -15.167 -80 -30.5l-74 -422c-1.33301 -5.33301 -4.33301 -10 -9 -14s-9.66699 -6 -15 -6h-49c-6 0 -10.333 2.16699 -13 6.5s-3.33398 8.83301 -2.00098 13.5l89 510
c1.33301 5.33301 3.66602 10 6.99902 14s9.66602 6 18.999 6h42c14.667 0 21 -6.66699 19 -20l-3 -21c24 13.333 48.333 24.666 73 33.999s54 14 88 14c26.667 0 49.5 -4 68.5 -12s34.5 -19 46.5 -33s20.833 -30.333 26.5 -49s8.5 -38.667 8.5 -60z" />
    <glyph glyph-name="o" unicode="o" horiz-adv-x="545" 
d="M555 369c0 -9.33301 -0.5 -18.668 -1.5 -28.001s-2.16699 -18.666 -3.5 -27.999l-13 -76c-6.66699 -38 -16.834 -72.167 -30.501 -102.5s-31.334 -56 -53.001 -77s-47.667 -37 -78 -48s-65.166 -16.5 -104.499 -16.5c-30 0 -56.5 4.66699 -79.5 14
s-42.167 22.333 -57.5 39s-27 36.5 -35 59.5s-12 48.5 -12 76.5c0 9.33301 0.5 18.5 1.5 27.5s2.16699 18.167 3.5 27.5l13 76c28 162.667 116.333 244 265 244c30.667 0 57.5 -4.66699 80.5 -14s42.333 -22.333 58 -39s27.334 -36.5 35.001 -59.5s11.5 -48.167 11.5 -75.5z
M467 369.998c0 36 -8.5 63.333 -25.5 82s-45.167 28 -84.5 28c-44 0 -80.167 -15 -108.5 -45s-46.833 -70.667 -55.5 -122l-13 -76c-4 -22 -6 -41.667 -6 -59c0 -36 8.5 -63 25.5 -81s45.167 -27 84.5 -27c22 0 42.167 4.16699 60.5 12.5s34.5 19.833 48.5 34.5
s25.833 32.167 35.5 52.5s16.5 42.833 20.5 67.5l13 76c2 10.667 3.33301 20.667 4 30s1 18.333 1 27z" />
    <glyph glyph-name="p" unicode="p" horiz-adv-x="541" 
d="M552 374c0 -20.667 -2.00293 -41.999 -6.00293 -63.999l-13 -72c-15.333 -85.333 -43.5 -147.5 -84.5 -186.5s-99.833 -58.5 -176.5 -58.5c-15.333 0 -33.666 1 -54.999 3s-41.333 4.66699 -60 8l-32 -181c-1.33301 -5.33301 -4.16602 -9.83301 -8.49902 -13.5
s-9.16602 -5.5 -14.499 -5.5h-51c-9.33301 0 -14 5 -14 15v3v1l121 688c1.33301 7.33301 3.5 12.5 6.5 15.5s9.16699 5.5 18.5 7.5c28 6.66699 58.667 12.167 92 16.5s65.333 6.5 96 6.5c61.333 0 106.833 -16.833 136.5 -50.5s44.5 -77.834 44.5 -132.501zM464.997 379.001
c0 34 -8 59.834 -24 77.501s-43.667 26.5 -83 26.5c-21.333 0 -43 -1 -65 -3s-40 -4.33301 -54 -7l-69 -396c16 -3.33301 35.167 -5.83301 57.5 -7.5s41.5 -2.5 57.5 -2.5c46 0 81.833 15.5 107.5 46.5s43.167 72.5 52.5 124.5l13 72c2.66699 13.333 4.5 25.666 5.5 36.999
s1.5 22 1.5 32z" />
    <glyph glyph-name="q" unicode="q" horiz-adv-x="541" 
d="M366 557c30 0 61.167 -2.16602 93.5 -6.49902s61.166 -9.83301 86.499 -16.5c9.33301 -2 14.833 -4.66699 16.5 -8s1.83398 -8.33301 0.500977 -15l-121 -688c-2 -12.667 -9.33301 -19 -22 -19h-51c-12 0 -17 6.33301 -15 19l32 181c-20 -3.33301 -40.833 -6 -62.5 -8
s-40.5 -3 -56.5 -3c-58.667 0 -103.5 16 -134.5 48s-46.5 76.333 -46.5 133c0 19.333 2 40.666 6 63.999l13 72c14.667 81.333 42.5 142.833 83.5 184.5s100.167 62.5 177.5 62.5zM468 473.001c-13.333 2.66699 -30.5 5.00195 -51.5 7.00195s-42.167 3 -63.5 3
c-23.333 0 -43.833 -4.33301 -61.5 -13s-33 -20.834 -46 -36.501s-23.833 -34 -32.5 -55s-15.334 -43.833 -20.001 -68.5l-13 -72c-5.33301 -28.667 -8 -52.334 -8 -71.001c0 -34.667 8.33301 -60 25 -76s44.334 -24 83.001 -24c16 0 35.5 0.833008 58.5 2.5
s43.167 4.16699 60.5 7.5z" />
    <glyph glyph-name="r" unicode="r" horiz-adv-x="342" 
d="M160 20c-1.33301 -5.33301 -4.33203 -10.001 -8.99902 -14.001s-9.66699 -6 -15 -6h-49c-5.33301 0 -9.5 2 -12.5 6s-3.83301 8.66699 -2.5 14l89 510c1.33301 5.33301 4.16602 10 8.49902 14s9.16602 6 14.499 6h47c6 0 10.333 -2 13 -6s3.33398 -8.66699 2.00098 -14
l-4 -23c27.333 21.333 53 35 77 41s47.667 9 71 9h2c8.66699 0 14.167 -1.66699 16.5 -5s2.83301 -7.66602 1.5 -12.999l-7 -42c-2 -11.333 -10 -17 -24 -17h-3c-28.667 0 -53.5 -3 -74.5 -9s-43.833 -16.667 -68.5 -32z" />
    <glyph glyph-name="s" unicode="s" horiz-adv-x="466" 
d="M329 557c19.333 0 35.835 -0.333984 49.502 -1.00098s26 -1.5 37 -2.5s21.167 -2.33301 30.5 -4l30 -5.5c7.33301 -1.33301 12 -3.16602 14 -5.49902s2.33301 -7.16602 1 -14.499l-5 -33c-2 -13.333 -9.66699 -19 -23 -17c-17.333 2 -39.166 3.83301 -65.499 5.5
s-53.5 2.5 -81.5 2.5c-11.333 0 -23.166 -1 -35.499 -3s-23.666 -5.66699 -33.999 -11s-18.833 -12.5 -25.5 -21.5s-10 -20.833 -10 -35.5c0 -12.667 4.66699 -24 14 -34s22.666 -20.667 39.999 -32l89 -59c17.333 -11.333 31.666 -22.333 42.999 -33
s20.5 -21.167 27.5 -31.5s11.833 -21.166 14.5 -32.499s4 -23.666 4 -36.999c0 -29.333 -6 -54.166 -18 -74.499s-28 -36.833 -48 -49.5s-43 -21.667 -69 -27s-52.667 -8 -80 -8c-10.667 0 -22.667 0.333008 -36 1s-27 1.5 -41 2.5s-28 2.5 -42 4.5s-26.333 4.33301 -37 7
c-5.33301 1.33301 -9.83301 3.66602 -13.5 6.99902s-4.83398 7.66602 -3.50098 12.999l6 35c1.33301 6.66699 3.66602 11.167 6.99902 13.5s9.33301 2.83301 18 1.5c12 -1.33301 25 -2.66602 39 -3.99902s28.167 -2.5 42.5 -3.5s27.833 -1.83301 40.5 -2.5s23.667 -1 33 -1
c14.667 0 28.834 1.5 42.501 4.5s25.667 7.66699 36 14s18.666 15 24.999 26s9.5 24.5 9.5 40.5c0 11.333 -4 22.166 -12 32.499s-23.333 23.166 -46 38.499l-90 59c-28 18 -49 37.333 -63 58s-21 44.667 -21 72c0 28 6.16699 51.167 18.5 69.5s28.166 33.166 47.499 44.499
s41.333 19.333 66 24s49.667 7 75 7z" />
    <glyph glyph-name="t" unicode="t" horiz-adv-x="375" 
d="M424 550c12.667 0 17.9961 -6.66504 15.9961 -19.998l-6 -34c-1.33301 -9.33301 -4.16602 -15 -8.49902 -17s-9.16602 -3 -14.499 -3h-108l-62 -351c-2 -12 -3 -21.667 -3 -29c0 -14.667 3.66699 -23.667 11 -27s19 -5 35 -5h61c11.333 0 16 -4.66699 14 -14l-6 -35
c-1.33301 -4.66699 -3.33301 -8.33398 -6 -11.001s-7.66699 -4.66699 -15 -6c-10 -1.33301 -20.667 -2.5 -32 -3.5s-21.666 -1.5 -30.999 -1.5c-34 0 -62.5 7.16699 -85.5 21.5s-34.5 38.833 -34.5 73.5c0 6.66699 0.333008 12.834 1 18.501s1.66699 12.5 3 20.5l62 349
l-95 11c-5.33301 0.666992 -9.66602 2.5 -12.999 5.5s-4.33301 7.16699 -3 12.5l5 27c1.33301 7.33301 4 12.166 8 14.499s8.66699 3.5 14 3.5h97l16 98c2 11.333 9.33301 18 22 20l53 8c7.33301 1.33301 12 0.166016 14 -3.50098s2.33301 -8.16699 1 -13.5l-18 -109h108z
" />
    <glyph glyph-name="u" unicode="u" horiz-adv-x="557" 
d="M567 550c7.33301 0 12 -2.16797 14 -6.50098s2.33301 -8.83301 1 -13.5l-89 -510c-1.33301 -5.33301 -4.16602 -10 -8.49902 -14s-9.16602 -6 -14.499 -6h-47c-6 0 -10.333 2 -13 6s-3.33398 8.66699 -2.00098 14l3 18c-30 -15.333 -57.667 -26.666 -83 -33.999
s-53 -11 -83 -11c-43.333 0 -78.5 13.167 -105.5 39.5s-40.5 65.833 -40.5 118.5c0 18.667 2 39 6 61l56 318c1.33301 7.33301 4.33301 12.5 9 15.5s9.66699 4.5 15 4.5h48c12.667 0 18 -6.66699 16 -20l-58 -329c-4 -22 -6 -41 -6 -57c0 -28 7.16699 -47.333 21.5 -58
s38.166 -16 71.499 -16c21.333 0 44 3.33301 68 10s48.667 15.667 74 27l74 423c1.33301 5.33301 3.5 10 6.5 14s8.83301 6 17.5 6h49z" />
    <glyph glyph-name="v" unicode="v" horiz-adv-x="530" 
d="M586 538c0 -4 -0.998047 -7.99902 -2.99805 -11.999l-208 -454c-14.667 -31.333 -31.834 -52.333 -51.501 -63s-39.5 -16 -59.5 -16c-10 0 -19.5 1.16699 -28.5 3.5s-17.333 6.5 -25 12.5s-14 14 -19 24s-8.5 23 -10.5 39l-48 454c-1.33301 9.33301 0 15.666 4 18.999
s9 5 15 5h51c4 0 7.5 -1.5 10.5 -4.5s4.83301 -7.83301 5.5 -14.5l35 -434c1.33301 -12.667 3.5 -21 6.5 -25s7.16699 -6 12.5 -6c4.66699 0 9.33398 2 14.001 6s9.66699 12.333 15 25l189 434c3.33301 6.66699 6.66602 11.5 9.99902 14.5s8.66602 4.5 15.999 4.5h56
c8.66699 0 13 -4 13 -12z" />
    <glyph glyph-name="w" unicode="w" horiz-adv-x="786" 
d="M826 550c6 0 10.8359 -1.66797 14.5029 -5.00098s3.83398 -9.66602 0.500977 -18.999l-179 -464c-9.33301 -25.333 -22.166 -43.166 -38.499 -53.499s-35.5 -15.5 -57.5 -15.5c-19.333 0 -35 6.33301 -47 19s-19 31.334 -21 56.001l-29 337c-0.666992 4.66699 -2 7 -4 7
s-4 -2.33301 -6 -7l-147 -337c-11.333 -24.667 -23.833 -43.334 -37.5 -56.001s-32.5 -19 -56.5 -19c-22 0 -39.167 5.16699 -51.5 15.5s-19.166 28.166 -20.499 53.499l-15 465c0 5.33301 2.33301 10.5 7 15.5s10 7.5 16 7.5h52c4.66699 0 8.16699 -1.66699 10.5 -5
s3.5 -7 3.5 -11l3 -453c0 -6 0.666992 -9.5 2 -10.5s2.66602 -1.5 3.99902 -1.5c3.33301 0 6.66602 4 9.99902 12l165 381c5.33301 11.333 11.666 19.166 18.999 23.499s16.333 6.5 27 6.5h56c10.667 0 18.667 -2.16699 24 -6.5s8.66602 -12.166 9.99902 -23.499l31 -381
c0.666992 -8 2.66699 -12 6 -12c1.33301 0 2.83301 0.5 4.5 1.5s3.5 4.5 5.5 10.5l163 453c1.33301 4 3.66602 7.66699 6.99902 11s7.66602 5 12.999 5h56z" />
    <glyph glyph-name="x" unicode="x" horiz-adv-x="547" 
d="M594 540c0 -4.66699 -2.33301 -9.66895 -7 -15.002l-214 -243l134 -259c2 -3.33301 3 -6.66602 3 -9.99902c0 -8.66699 -5.33301 -13 -16 -13h-56c-5.33301 0 -9.33301 1 -12 3s-5.33398 5.66699 -8.00098 11l-104 201l-181 -205c-4 -4.66699 -7 -7.5 -9 -8.5
s-5.33301 -1.5 -10 -1.5h-58c-9.33301 0 -14 2.66699 -14 8s2 10.333 6 15l230 262l-124 240c-2 4 -3 7.33301 -3 10c0 4.66699 1.66699 8.33398 5 11.001s7.33301 4 12 4h55c6.66699 0 12.667 -4.66699 18 -14l96 -185l162 185c5.33301 6 9.33301 9.83301 12 11.5
s6.33398 2.5 11.001 2.5h61c7.33301 0 11 -3.33301 11 -10z" />
    <glyph glyph-name="y" unicode="y" horiz-adv-x="534" 
d="M592 537c0 -3.33301 -0.999023 -6.99707 -2.99902 -10.9971l-267 -576c-12.667 -27.333 -25.167 -50.333 -37.5 -69s-26.5 -33.834 -42.5 -45.501s-34.333 -20.167 -55 -25.5s-45.334 -8 -74.001 -8c-14 0 -28.667 0.833008 -44 2.5s-28 3.83398 -38 6.50098
c-5.33301 1.33301 -10.166 3 -14.499 5s-5.83301 5.66699 -4.5 11l7 37c1.33301 7.33301 3.5 12.166 6.5 14.499s9.16699 2.83301 18.5 1.5c5.33301 -0.666992 11.833 -1.33398 19.5 -2.00098l24 -2c8.33301 -0.666992 16.5 -1.16699 24.5 -1.5s14.667 -0.5 20 -0.5
c14 0 26.5 1.16699 37.5 3.5s21 6.66602 30 12.999s17.167 15 24.5 26s14.666 25.167 21.999 42.5l17 41h-11c-8 0 -15.5 1 -22.5 3s-13.5 5.83301 -19.5 11.5s-11 13.5 -15 23.5s-7 23.333 -9 40l-51 448c-1.33301 10.667 0 17.334 4 20.001s9.66699 4 17 4h52
c6 0 9.66699 -1.66699 11 -5s2.33301 -7 3 -11l42 -434c1.33301 -10 3.33301 -16.167 6 -18.5s5.66699 -3.5 9 -3.5h16l202 457c2 5.33301 4.33301 9.16602 7 11.499s7.66699 3.5 15 3.5h59c9.33301 0 14 -4.33301 14 -13z" />
    <glyph glyph-name="z" unicode="z" horiz-adv-x="466" 
d="M493 481c0 -10.667 -2.16699 -21.332 -6.5 -31.999s-11.166 -21 -20.499 -31l-313 -325c-4.66699 -4.66699 -7 -8.66699 -7 -12c0 -4.66699 3.33301 -7 10 -7h255c8.66699 0 13.834 -2 15.501 -6s1.83398 -8.66699 0.500977 -14l-6 -34
c-1.33301 -7.33301 -3.33301 -12.5 -6 -15.5s-8.33398 -4.5 -17.001 -4.5h-253c-30 0 -52 6.83301 -66 20.5s-21 30.167 -21 49.5c0 10 1.66699 20.167 5 30.5s9.33301 19.833 18 28.5l319 331c4 4 6 7.66699 6 11s-3.33301 5 -10 5h-246c-12.667 0 -18 6.66699 -16 20l6 34
c1.33301 8 4.16602 13.333 8.49902 16s9.16602 4 14.499 4h250c28.667 0 49.167 -6.83301 61.5 -20.5s18.5 -29.834 18.5 -48.501z" />
    <glyph glyph-name="braceleft" unicode="{" horiz-adv-x="331" 
d="M430 723l-5.00293 -32.9961c-1.33301 -5.33301 -4.33301 -10 -9 -14s-9.66699 -6 -15 -6h-45c-14.667 0 -26.667 -1 -36 -3s-16.833 -5.33301 -22.5 -10s-10.167 -11.334 -13.5 -20.001s-6 -19.334 -8 -32.001l-32 -178c-6.66699 -35.333 -17 -65.166 -31 -89.499
s-36.333 -45.833 -67 -64.5c17.333 -15.333 29.666 -32.333 36.999 -51s11 -38.667 11 -60c0 -15.333 -1.33301 -29.333 -4 -42l-31 -176c-2 -11.333 -3 -21 -3 -29c0 -14.667 4.33301 -24.334 13 -29.001s24.667 -7 48 -7h46c10.667 0 16 -5.33301 16 -16v-4l-6 -33
c-1.33301 -5.33301 -4.16602 -10 -8.49902 -14s-9.16602 -6 -14.499 -6h-42c-48.667 0 -84.5 8 -107.5 24s-34.5 40 -34.5 72c0 14.667 1.33301 28.667 4 42l31 176l3.5 23.5c1 7 1.5 13.833 1.5 20.5c0 17.333 -3.33301 32.166 -10 44.499s-17.667 24.5 -33 36.5l10 58
c13.333 8 24.5 16.167 33.5 24.5s16.667 17.166 23 26.499s11.5 20 15.5 32s7.33301 25.667 10 41l32 178c5.33301 28.667 12 52 20 70s18.833 32 32.5 42s30.834 16.833 51.501 20.5s46.334 5.5 77.001 5.5h46c5.33301 0 9.33301 -1.66699 12 -5s4 -7.33301 4 -12v-3z" />
    <glyph glyph-name="bar" unicode="|" horiz-adv-x="249" 
d="M246 -175c0 -5.33301 -1.66699 -9.83301 -5 -13.5s-7.66602 -5.5 -12.999 -5.5h-52c-5.33301 0 -9.83301 1.83301 -13.5 5.5s-5.5 8.16699 -5.5 13.5v899c0 5.33301 1.83301 9.83301 5.5 13.5s8.16699 5.5 13.5 5.5h52c5.33301 0 9.66602 -1.83301 12.999 -5.5
s5 -8.16699 5 -13.5v-899v0z" />
    <glyph glyph-name="braceright" unicode="}" horiz-adv-x="331" 
d="M354 245c-13.333 -8 -24.5 -16.166 -33.5 -24.499s-16.667 -17.333 -23 -27s-11.5 -20.5 -15.5 -32.5s-7.33301 -25.667 -10 -41l-31 -176c-5.33301 -28 -11.5 -50.833 -18.5 -68.5s-17 -31.667 -30 -42s-29.833 -17.5 -50.5 -21.5s-46.667 -6 -78 -6h-51
c-5.33301 0 -9.5 1.66699 -12.5 5s-4.5 7.33301 -4.5 12v2v1l6 33c1.33301 5.33301 4.33301 10 9 14s9.66699 6 15 6h46c14.667 0 26.667 0.833008 36 2.5s16.833 5 22.5 10s10.167 11.667 13.5 20s6 19.166 8 32.499l31 176c6 35.333 16.333 65 31 89s37 45.333 67 64
c-17.333 16.667 -29.833 33.667 -37.5 51s-11.5 36.333 -11.5 57c0 7.33301 0.5 14.666 1.5 21.999s2.16699 15.333 3.5 24l32 178c2 10.667 3 20.334 3 29.001c0 14 -4.33301 23.5 -13 28.5s-24.667 7.5 -48 7.5h-45c-5.33301 0 -9.33301 1.66699 -12 5s-4 7.33301 -4 12v3
l5 33c1.33301 5.33301 4.33301 10 9 14s9.66699 6 15 6h50c48 0 82.167 -7.66699 102.5 -23s30.5 -39.333 30.5 -72c0 -6.66699 -0.333008 -13.5 -1 -20.5s-1.66699 -14.5 -3 -22.5l-32 -178l-3.5 -23.5c-1 -7 -1.5 -13.833 -1.5 -20.5c0 -17.333 3.33301 -32 10 -44
s17.667 -24 33 -36z" />
    <glyph glyph-name="asciitilde" unicode="~" horiz-adv-x="595" 
d="M581 467c0 -42 -8.16602 -73.833 -24.499 -95.5s-44.5 -32.5 -84.5 -32.5c-13.333 0 -26.5 2.5 -39.5 7.5s-25.167 11.833 -36.5 20.5l-73 58c-14.667 11.333 -25.334 19.333 -32.001 24s-13.667 7 -21 7c-19.333 0 -31.166 -5.33301 -35.499 -16s-6.5 -25 -6.5 -43v-26
c0 -5.33301 -2 -10 -6 -14s-8.66699 -6 -14 -6h-29c-5.33301 0 -10 2 -14 6s-6 8.66699 -6 14v26c0 43.333 9.5 75.833 28.5 97.5s46.5 32.5 82.5 32.5c13.333 0 26.5 -2.5 39.5 -7.5s24.833 -11.833 35.5 -20.5l85 -68c6 -5.33301 13.167 -10 21.5 -14s15.166 -6 20.499 -6
c18.667 0 30 4.33301 34 13s6 23 6 43v28c0 5.33301 2 10 6 14s8.66699 6 14 6h29c5.33301 0 10 -2 14 -6s6 -8.66699 6 -14v-28v0z" />
    <glyph glyph-name="uni00A0" unicode="&#xa0;" horiz-adv-x="273" 
 />
    <glyph glyph-name="exclamdown" unicode="&#xa1;" horiz-adv-x="217" 
d="M247 531l-17 -94c-1.33301 -5.33301 -4 -9.83301 -8 -13.5s-8.66699 -5.5 -14 -5.5h-48c-10.667 0 -16 5.33301 -16 16v3l17 94c2 12.667 9.33301 19 22 19h48c10.667 0 16 -5.33301 16 -16v-3zM207 337l-83.998 -520c-1.33301 -5.33301 -4.33301 -9.83301 -9 -13.5
s-9.66699 -5.5 -15 -5.5h-50c-10.667 0 -16 5.33301 -16 16v3l99 520c1.33301 5.33301 4.16602 9.83301 8.49902 13.5s9.16602 5.5 14.499 5.5h36c10.667 0 16 -5.33301 16 -16v-3z" />
    <glyph glyph-name="cent" unicode="&#xa2;" 
d="M546 531c0 -1.33301 -0.168945 -2.50195 -0.501953 -3.50195s-0.5 -2.16699 -0.5 -3.5l-6 -36c-1.33301 -5.33301 -3.83301 -9.16602 -7.5 -11.499s-8.16699 -3.5 -13.5 -3.5h-3c-21.333 2.66699 -40.833 4.66699 -58.5 6s-38.834 2 -63.501 2
c-40 0 -73.5 -13.667 -100.5 -41s-45.167 -69.333 -54.5 -126l-13 -78c-1.33301 -10 -2.5 -19.667 -3.5 -29s-1.5 -18.333 -1.5 -27c0 -74 33.333 -111 100 -111c24.667 0 46.334 0.666992 65.001 2s39 3.33301 61 6h4c9.33301 0 14 -4 14 -12v-3l-6 -36
c-1.33301 -7.33301 -3.66602 -12.5 -6.99902 -15.5s-9 -5.16699 -17 -6.5c-13.333 -2 -28.166 -3.83301 -44.499 -5.5s-33.5 -3.16699 -51.5 -4.5l-16 -90c-1.33301 -5.33301 -4.16602 -10 -8.49902 -14s-9.16602 -6 -14.499 -6h-41c-11.333 0 -17 5.66699 -17 17v3l17 94
c-42 8.66699 -73.5 29.834 -94.5 63.501s-31.5 73.834 -31.5 120.501c0 8.66699 0.5 17.5 1.5 26.5s2.16699 18.167 3.5 27.5l13 78c6.66699 38.667 16.667 72.334 30 101.001s29 52.667 47 72s38 34.166 60 44.499s44.667 17.166 68 20.499l17 93
c1.33301 5.33301 4.16602 10 8.49902 14s9.16602 6 14.499 6h41c11.333 0 17 -5.66699 17 -17v-3l-16 -89c17.333 -1.33301 34 -2.83301 50 -4.5s30 -3.5 42 -5.5c11.333 -2 17 -7 17 -15z" />
    <glyph glyph-name="sterling" unicode="&#xa3;" 
d="M664 717c0 -1.33301 -0.169922 -2.16992 -0.50293 -2.50293s-0.5 -1.16602 -0.5 -2.49902l-8 -41c-2 -11.333 -8.33301 -17 -19 -17h-4c-21.333 2.66699 -46.166 5.16699 -74.499 7.5s-54.166 3.5 -77.499 3.5c-26 0 -48 -2.83301 -66 -8.5s-33 -15.167 -45 -28.5
s-21.833 -31.166 -29.5 -53.499s-14.5 -50.5 -20.5 -84.5l-11 -65h215c10.667 0 16 -5 16 -15v-3l-8 -42c-1.33301 -5.33301 -4.16602 -9.66602 -8.49902 -12.999s-9.16602 -5 -14.499 -5h-214l-27 -152c-4.66699 -25.333 -12.334 -47.666 -23.001 -66.999
s-21.667 -36.666 -33 -51.999h319c5.33301 0 9.66602 -1 12.999 -3s5 -5 5 -9v-3l-8 -44c-1.33301 -5.33301 -4.16602 -9.5 -8.49902 -12.5s-9.16602 -4.5 -14.499 -4.5h-399c-5.33301 0 -9 1.16699 -11 3.5s-3 5.16602 -3 8.49902v3l7 39
c1.33301 5.33301 3.33301 9.66602 6 12.999l8 10c15.333 19.333 26.5 37.333 33.5 54s12.833 38 17.5 64l27 152h-52c-10 0 -15 4.66699 -15 14v4l8 42c1.33301 5.33301 4.16602 9.66602 8.49902 12.999s9.16602 5 14.499 5h50l11 65c7.33301 43.333 17.333 80.833 30 112.5
s29.334 57.834 50.001 78.501s46.167 36 76.5 46s66.833 15 109.5 15c12.667 0 26.167 -0.333008 40.5 -1s28.333 -1.66699 42 -3s26.667 -2.83301 39 -4.5s22.833 -3.16699 31.5 -4.5c11.333 -2 17 -6 17 -12z" />
    <glyph glyph-name="currency" unicode="&#xa4;" 
d="M612 574c0 -5.33301 -2.33301 -10.332 -7 -14.999l-82 -82c11.333 -15.333 19.666 -32 24.999 -50s8 -36 8 -54c0 -18.667 -2.83301 -37 -8.5 -55s-14.167 -35 -25.5 -51l82 -82c4.66699 -4.66699 7 -9.66699 7 -15c0 -4.66699 -1.66699 -8.66699 -5 -12l-27 -27
c-3.33301 -3.33301 -7 -5 -11 -5c-5.33301 0 -10.333 2.33301 -15 7l-84 84c-31.333 -22 -65.333 -33 -102 -33c-18 0 -36 2.66699 -54 8s-34.667 13.666 -50 24.999l-82 -82c-2 -2 -4.33301 -3.83301 -7 -5.5s-5.66699 -2.5 -9 -2.5s-6.66602 1.66699 -9.99902 5l-27 28
c-3.33301 4.66699 -5 8.33398 -5 11.001c0 5.33301 2.33301 10.333 7 15l81 81c-11.333 15.333 -19.833 32.166 -25.5 50.499s-8.5 36.833 -8.5 55.5c0 18 2.5 35.833 7.5 53.5s13.167 34.167 24.5 49.5l-81 81c-4.66699 4.66699 -7 9.66699 -7 15s1.66699 9.33301 5 12
l28 27c3.33301 3.33301 7 5 11 5c4.66699 0 9.66699 -2.66699 15 -8l80 -80c16 11.333 33 19.833 51 25.5s36.333 8.5 55 8.5c38.667 0 74 -11.333 106 -34l82 82c4.66699 4.66699 9.66699 7 15 7c4 0 7.66699 -1.66699 11 -5l27 -27c3.33301 -3.33301 5 -7 5 -11z
M485 373.001c0 16.667 -3.16699 32.167 -9.5 46.5s-15 26.833 -26 37.5s-23.667 19.167 -38 25.5s-29.833 9.5 -46.5 9.5s-32.167 -3.16699 -46.5 -9.5s-27 -14.833 -38 -25.5s-19.667 -23.167 -26 -37.5s-9.5 -29.833 -9.5 -46.5s3.16699 -32.167 9.5 -46.5s15 -27 26 -38
s23.667 -19.667 38 -26s29.833 -9.5 46.5 -9.5s32.167 3.16699 46.5 9.5s27 15 38 26s19.667 23.667 26 38s9.5 29.833 9.5 46.5z" />
    <glyph glyph-name="yen" unicode="&#xa5;" 
d="M694 732c0 -5.33301 -1.66895 -10 -5.00195 -14l-161 -236h110c10.667 0 16 -5.33301 16 -16v-4l-5 -30c-1.33301 -5.33301 -4.16602 -10 -8.49902 -14s-9.16602 -6 -14.499 -6h-145l-75 -110l-3 -21h200c10.667 0 16 -5.33301 16 -16v-4l-5 -30
c-1.33301 -5.33301 -4.33301 -10 -9 -14s-9.66699 -6 -15 -6h-200l-33 -191c-1.33301 -5.33301 -4 -10 -8 -14s-8.66699 -6 -14 -6h-57c-4.66699 0 -8 1.5 -10 4.5s-3 6.5 -3 10.5v5l33 191h-201c-10.667 0 -16 5.33301 -16 16v4l5 30c1.33301 5.33301 4.33301 10 9 14
s9.66699 6 15 6h201l3 21l-35 110h-146c-11.333 0 -17 5.66699 -17 17v3l5 30c1.33301 5.33301 4.33301 10 9 14s9.66699 6 15 6h111l-77 236c-1.33301 4 -2 7 -2 9c0 10.667 6.33301 16 19 16h59c3.33301 0 6.33301 -1.5 9 -4.5s4.66699 -6.16699 6 -9.5l102 -339l222 339
c2 3.33301 4.66699 6.5 8 9.5s7 4.5 11 4.5h66c10 0 15 -3.66699 15 -11z" />
    <glyph glyph-name="brokenbar" unicode="&#xa6;" horiz-adv-x="249" 
d="M229 362c0 -5.33301 -1.66699 -10 -5 -14s-7.66602 -6 -12.999 -6h-53c-5.33301 0 -9.66602 2 -12.999 6s-5 8.66699 -5 14v347c0 5.33301 1.66699 9.83301 5 13.5s7.66602 5.5 12.999 5.5h53c5.33301 0 9.66602 -1.83301 12.999 -5.5s5 -8.16699 5 -13.5v-347zM229 -191
c0 -5.33301 -1.66699 -10 -5 -14s-7.66602 -6 -12.999 -6h-53c-5.33301 0 -9.66602 2 -12.999 6s-5 8.66699 -5 14v347c0 5.33301 1.66699 9.83301 5 13.5s7.66602 5.5 12.999 5.5h53c5.33301 0 9.66602 -1.83301 12.999 -5.5s5 -8.16699 5 -13.5v-347z" />
    <glyph glyph-name="section" unicode="&#xa7;" horiz-adv-x="547" 
d="M607 718l-8 -42.9971c-1.33301 -5.33301 -3.83301 -9.5 -7.5 -12.5s-8.16699 -4.5 -13.5 -4.5h-1c-29.333 1.33301 -58 3.16602 -86 5.49902s-56.667 3.5 -86 3.5c-20.667 0 -40.667 -1.16699 -60 -3.5s-36.666 -7.5 -51.999 -15.5s-27.666 -19.333 -36.999 -34
s-14 -34.334 -14 -59.001c0 -17.333 6.16699 -33 18.5 -47s33.833 -31 64.5 -51l97 -64c42.667 -28.667 72.334 -55.5 89.001 -80.5s25 -51.5 25 -79.5c0 -26.667 -4.66699 -52.834 -14 -78.501s-22.333 -48.834 -39 -69.501c11.333 -22.667 17 -46 17 -70
c0 -42 -7.83301 -77.667 -23.5 -107s-36.667 -53.166 -63 -71.499s-56.666 -31.666 -90.999 -39.999s-70.5 -12.5 -108.5 -12.5c-35.333 0 -66.5 1.5 -93.5 4.5s-51.167 6.16699 -72.5 9.5c-10 1.33301 -15 6.66602 -15 15.999v3l7 42
c1.33301 5.33301 4.16602 9.5 8.49902 12.5s9.16602 4.5 14.499 4.5h2c27.333 -2 53.833 -4.16699 79.5 -6.5s52.5 -3.5 80.5 -3.5c23.333 0 45.666 2.16699 66.999 6.5s40 12 56 23s28.833 25.5 38.5 43.5s14.5 40.667 14.5 68c0 9.33301 -1.5 18.166 -4.5 26.499
s-7.83301 16.5 -14.5 24.5s-15.667 16.333 -27 25l-41 30l-100 67c-39.333 26.667 -66.5 52.834 -81.5 78.501s-22.5 51.5 -22.5 77.5c0 27.333 5 51.666 15 72.999s23.667 42.333 41 63c-6 11.333 -10.667 23.166 -14 35.499s-5 25.5 -5 39.5c0 40.667 7.66699 74 23 100
s35.666 46.667 60.999 62s54.333 26 87 32s66.334 9 101.001 9c14 0 29.5 -0.5 46.5 -1.5s33.833 -2.16699 50.5 -3.5s31.667 -2.66602 45 -3.99902s23.666 -2.66602 30.999 -3.99902c4 -1.33301 7.5 -3.33301 10.5 -6s4.5 -6 4.5 -10v-3zM443 216.003
c0 19.333 -6.16699 36.165 -18.5 50.498s-33.5 31.833 -63.5 52.5l-80 55l-32.5 23c-11.667 8 -22.167 16 -31.5 24c-5.33301 -11.333 -10 -22.666 -14 -33.999s-6 -23.333 -6 -36c0 -19.333 6.16699 -36.5 18.5 -51.5s29.833 -30.167 52.5 -45.5l99 -66l32 -22.5
c8 -5.66699 17 -12.5 27 -20.5c11.333 22.667 17 46.334 17 71.001z" />
    <glyph glyph-name="dieresis" unicode="&#xa8;" horiz-adv-x="373" 
d="M445 741l-15 -81c-1.33301 -5.33301 -4.16602 -9.83301 -8.49902 -13.5s-9.16602 -5.5 -14.499 -5.5h-39c-4.66699 0 -8.66699 1.33301 -12 4s-5 6.66699 -5 12v3l15 81c1.33301 5.33301 4.16602 10 8.49902 14s9.16602 6 14.499 6h39c4.66699 0 8.66699 -1.66699 12 -5
s5 -7.33301 5 -12v-3zM270 741l-15 -81c-1.33301 -5.33301 -4.16602 -9.83301 -8.49902 -13.5s-9.16602 -5.5 -14.499 -5.5h-39c-4.66699 0 -8.66699 1.33301 -12 4s-5 6.66699 -5 12v3l15 81c1.33301 5.33301 4.16602 10 8.49902 14s9.16602 6 14.499 6h39
c4.66699 0 8.66699 -1.66699 12 -5s5 -7.33301 5 -12v-3z" />
    <glyph glyph-name="copyright" unicode="&#xa9;" horiz-adv-x="750" 
d="M770 374c0 -44.667 -8.66699 -86.667 -26 -126s-40.666 -73.666 -69.999 -102.999s-63.833 -52.5 -103.5 -69.5s-81.834 -25.5 -126.501 -25.5s-86.667 8.5 -126 25.5s-73.666 40.167 -102.999 69.5s-52.5 63.666 -69.5 102.999s-25.5 81.333 -25.5 126
s8.5 86.834 25.5 126.501s40.167 74.334 69.5 104.001s63.666 53.167 102.999 70.5s81.333 26 126 26s86.834 -8.66699 126.501 -26s74.167 -40.833 103.5 -70.5s52.666 -64.334 69.999 -104.001s26 -81.834 26 -126.501zM726 374c0 38.667 -7.33301 75.334 -22 110.001
s-34.834 64.667 -60.501 90s-55.667 45.5 -90 60.5s-70.833 22.5 -109.5 22.5c-39.333 0 -76 -7.5 -110 -22.5s-63.667 -35.167 -89 -60.5s-45.333 -55.333 -60 -90s-22 -71.334 -22 -110.001c0 -39.333 7.33301 -76 22 -110s34.667 -63.5 60 -88.5s55 -44.833 89 -59.5
s70.667 -22 110 -22c38.667 0 75.167 7.33301 109.5 22s64.333 34.5 90 59.5s45.834 54.5 60.501 88.5s22 70.667 22 110zM546 183c0 -5.33301 -1.66602 -8.99805 -4.99902 -10.998s-6.66602 -3.33301 -9.99902 -4c-7.33301 -1.33301 -18.5 -2.83301 -33.5 -4.5
s-34.167 -2.5 -57.5 -2.5c-21.333 0 -41.333 3.33301 -60 10s-34.834 17.167 -48.501 31.5s-24.5 33.166 -32.5 56.499s-12 51.666 -12 84.999v66c0 33.333 4 61.666 12 84.999s18.833 42.333 32.5 57s29.834 25.334 48.501 32.001s38.667 10 60 10
c23.333 0 42.5 -1 57.5 -3s26.167 -3.66699 33.5 -5c3.33301 -0.666992 6.66602 -1.83398 9.99902 -3.50098s5 -5.16699 5 -10.5v-28c0 -5.33301 -1.33301 -8.66602 -4 -9.99902s-5.66699 -2 -9 -2h-3c-10.667 1.33301 -23.834 2.5 -39.501 3.5s-32.5 1.5 -50.5 1.5
c-12 0 -23.5 -2 -34.5 -6s-20.667 -11 -29 -21s-15 -23.167 -20 -39.5s-7.5 -36.5 -7.5 -60.5v-66c0 -24 2.5 -44.167 7.5 -60.5s11.667 -29.333 20 -39s18 -16.5 29 -20.5s22.5 -6 34.5 -6c17.333 0 34 0.5 50 1.5s29.333 2.16699 40 3.5h2
c3.33301 0 6.5 -0.833008 9.5 -2.5s4.5 -5.16699 4.5 -10.5v-27z" />
    <glyph glyph-name="ordfeminine" unicode="&#xaa;" horiz-adv-x="302" 
d="M378 665c0 -10.667 -1.00098 -21.999 -3.00098 -33.999l-32 -181c-1.33301 -8.66699 -5.33301 -14 -12 -16c-16.667 -4 -33.5 -7.16699 -50.5 -9.5s-33.833 -3.5 -50.5 -3.5c-38.667 0 -66.667 5.83301 -84 17.5s-26 30.167 -26 55.5
c0 3.33301 0.166992 7.16602 0.5 11.499s0.833008 8.83301 1.5 13.5l1 7c4.66699 32.667 20 56.167 46 70.5s63.333 21.5 112 21.5h32l2 13c0.666992 4.66699 1.16699 9 1.5 13s0.5 7.66699 0.5 11c0 14.667 -3.66699 24.834 -11 30.501s-18.666 8.5 -33.999 8.5
c-18 0 -33.833 -0.5 -47.5 -1.5s-26.167 -2.16699 -37.5 -3.5h-2c-7.33301 0 -11 3.33301 -11 10v3l3 21c0.666992 4.66699 2.83398 8 6.50098 10s7.5 3.33301 11.5 4c11.333 2 24.166 4 38.499 6s30.5 3 48.5 3c34 0 58.5 -6.83301 73.5 -20.5s22.5 -33.834 22.5 -60.501z
M283.999 576.001l-9 -0.000976562c-32 -1.33301 -55 -5.5 -69 -12.5s-22.333 -19.5 -25 -37.5l-1 -7c-0.666992 -3.33301 -1.16699 -6.16602 -1.5 -8.49902s-0.5 -4.83301 -0.5 -7.5c0 -12 4.5 -20.833 13.5 -26.5s24.833 -8.5 47.5 -8.5c9.33301 0 18.5 0.5 27.5 1.5
s16.167 2.16699 21.5 3.5l19 103h-23z" />
    <glyph glyph-name="guillemotleft" unicode="&#xab;" horiz-adv-x="614" 
d="M645 477c0 -2 -0.666992 -4.5 -2 -7.5s-3.33301 -5.5 -6 -7.5l-210 -185l139 -185c2.66699 -4 4 -7.66699 4 -11c0 -7.33301 -4 -11 -12 -11h-53c-6.66699 0 -13 3.33301 -19 10l-139 169c-5.33301 6 -8 14.333 -8 25c0 14 4 24.333 12 31l199 169
c5.33301 4 9.83301 6.66699 13.5 8s7.5 2 11.5 2h61c6 0 9 -2.33301 9 -7zM385 477c0 -2 -0.666992 -4.5 -2 -7.5s-3.33301 -5.5 -6 -7.5l-210 -185l139 -185c2.66699 -4 4 -7.66699 4 -11c0 -7.33301 -4 -11 -12 -11h-53c-6.66699 0 -13 3.33301 -19 10l-139 169
c-5.33301 6 -8 14.333 -8 25c0 14 4 24.333 12 31l199 169c5.33301 4 9.83301 6.66699 13.5 8s7.5 2 11.5 2h61c6 0 9 -2.33301 9 -7z" />
    <glyph glyph-name="logicalnot" unicode="&#xac;" horiz-adv-x="595" 
d="M585 247c0 -5.33301 -2 -10 -6 -14s-8.66699 -6 -14 -6h-32c-5.33301 0 -10 2 -14 6s-6 8.66699 -6 14v219h-333c-5.33301 0 -10 1.33301 -14 4s-6 6.66699 -6 12v40c0 5.33301 2 9.33301 6 12s8.66699 4 14 4h388c11.333 0 17 -5.66699 17 -17v-274v0z" />
    <glyph glyph-name="uni00AD" unicode="&#xad;" horiz-adv-x="333" 
d="M340 312l-7 -38.999c-2 -11.333 -9.33301 -17 -22 -17h-199c-10.667 0 -16 4.66699 -16 14v3l7 39c1.33301 5.33301 4 9.66602 8 12.999s8.66699 5 14 5h199c10.667 0 16 -5 16 -15v-3z" />
    <glyph glyph-name="registered" unicode="&#xae;" horiz-adv-x="598" 
d="M655 484c0 -37.333 -7 -72.333 -21 -105s-33.333 -61 -58 -85s-53.334 -43 -86.001 -57s-67.667 -21 -105 -21s-72.333 7 -105 21s-61.167 33 -85.5 57s-43.5 52.333 -57.5 85s-21 67.667 -21 105s7 72.333 21 105s33.167 61.167 57.5 85.5s52.833 43.5 85.5 57.5
s67.667 21 105 21s72.333 -7 105 -21s61.334 -33.167 86.001 -57.5s44 -52.833 58 -85.5s21 -67.667 21 -105zM614 484c0 31.333 -6 61 -18 89s-28.333 52.333 -49 73s-45 37 -73 49s-57.667 18 -89 18s-60.833 -6 -88.5 -18s-51.834 -28.333 -72.501 -49
s-36.834 -45 -48.501 -73s-17.5 -57.667 -17.5 -89s5.83301 -60.833 17.5 -88.5s27.834 -51.834 48.501 -72.501s44.834 -36.834 72.501 -48.501s57.167 -17.5 88.5 -17.5s61 5.83301 89 17.5s52.333 27.834 73 48.501s37 44.834 49 72.501s18 57.167 18 88.5zM511 331
c0 -8.66699 -4 -12.999 -12 -12.999h-28c-5.33301 0 -9.33301 2.66699 -12 8l-81 128l-10 3h-42v-124c0 -3.33301 -1.33301 -6.66602 -4 -9.99902s-6 -5 -10 -5h-25c-4 0 -7.16699 1.66699 -9.5 5s-3.5 6.66602 -3.5 9.99902v302c0 13.333 6 20.666 18 21.999
c4 0.666992 9.16699 1.16699 15.5 1.5s13 0.666016 20 0.999023s14.167 0.5 21.5 0.5h19c42 0 74.333 -7.33301 97 -22s34 -41 34 -79v-4c0 -25.333 -5.83301 -45.166 -17.5 -59.499s-28.167 -24.5 -49.5 -30.5l77 -125c1.33301 -2.66699 2 -5.66699 2 -9zM449 559.001
c0 20 -6 34 -18 42s-32 12 -60 12h-32h-14v-112c5.33301 0 13.333 -0.166992 24 -0.5s18 -0.5 22 -0.5c28 0 48 4.16699 60 12.5s18 22.5 18 42.5v4z" />
    <glyph glyph-name="macron" unicode="&#xaf;" horiz-adv-x="373" 
d="M479 726l-6 -34c-1.33301 -5.33301 -4.16602 -9.5 -8.49902 -12.5s-9.16602 -4.5 -14.499 -4.5h-288c-11.333 0 -17 4.66699 -17 14v3l6 34c1.33301 5.33301 4.16602 9.5 8.49902 12.5s9.16602 4.5 14.499 4.5h288c11.333 0 17 -4.66699 17 -14v-3z" />
    <glyph glyph-name="degree" unicode="&#xb0;" horiz-adv-x="342" 
d="M422 608c0 -19.333 -3.66699 -37.666 -11 -54.999s-17.5 -32.5 -30.5 -45.5s-28.167 -23.167 -45.5 -30.5s-35.666 -11 -54.999 -11s-37.666 3.66699 -54.999 11s-32.5 17.5 -45.5 30.5s-23.333 28.167 -31 45.5s-11.5 35.666 -11.5 54.999s3.83301 37.666 11.5 54.999
s18 32.5 31 45.5s28.167 23.167 45.5 30.5s35.666 11 54.999 11s37.666 -3.66699 54.999 -11s32.5 -17.5 45.5 -30.5s23.167 -28.167 30.5 -45.5s11 -35.666 11 -54.999zM368 608c0 12 -2.33301 23.333 -7 34s-11 20 -19 28s-17.333 14.333 -28 19s-22 7 -34 7
s-23.333 -2.33301 -34 -7s-20 -11 -28 -19s-14.333 -17.333 -19 -28s-7 -22 -7 -34s2.33301 -23.333 7 -34s11 -20 19 -28s17.333 -14.333 28 -19s22 -7 34 -7s23.333 2.33301 34 7s20 11 28 19s14.333 17.333 19 28s7 22 7 34z" />
    <glyph glyph-name="plusminus" unicode="&#xb1;" horiz-adv-x="595" 
d="M574 371c0 -5.33301 -2 -9.33301 -6 -12s-8.66699 -4 -14 -4h-172v-171c0 -5.33301 -1.33301 -10 -4 -14s-6.66699 -6 -12 -6h-40c-5.33301 0 -9.33301 2 -12 6s-4 8.66699 -4 14v171h-171c-5.33301 0 -10 1.33301 -14 4s-6 6.66699 -6 12v40c0 5.33301 2 9.33301 6 12
s8.66699 4 14 4h171v172c0 5.33301 1.33301 10 4 14s6.66699 6 12 6h40c5.33301 0 9.33301 -2 12 -6s4 -8.66699 4 -14v-172h172c5.33301 0 10 -1.33301 14 -4s6 -6.66699 6 -12v-40zM574 9c0 -5.33301 -2 -9.33301 -6 -12s-8.66699 -4 -14 -4h-415
c-5.33301 0 -10 1.33301 -14 4s-6 6.66699 -6 12v33c0 5.33301 2 9.33301 6 12s8.66699 4 14 4h415c5.33301 0 10 -1.33301 14 -4s6 -6.66699 6 -12v-33z" />
    <glyph glyph-name="uni00B2" unicode="&#xb2;" horiz-adv-x="341" 
d="M413 663c0 -16 -2.49902 -30.333 -7.49902 -43s-11.833 -24.167 -20.5 -34.5s-18.667 -19.833 -30 -28.5s-23.333 -17 -36 -25l-58 -36c-16 -10 -29 -19.333 -39 -28s-17.833 -17.167 -23.5 -25.5s-9.83398 -16.833 -12.501 -25.5s-5 -18 -7 -28l-1 -5h173
c8 0 11.667 -3.33301 11 -10l-6 -37c-1.33301 -4.66699 -3 -7.5 -5 -8.5s-5.33301 -1.5 -10 -1.5h-225c-4.66699 0 -7.5 1.16699 -8.5 3.5s-1.5 5.16602 -1.5 8.49902l7 40c6 34.667 17.167 64.834 33.5 90.501s43.5 50.167 81.5 73.5l61 37c12.667 8 23 14.833 31 20.5
s14.167 11.334 18.5 17.001s7.16602 11.5 8.49902 17.5s2 13 2 21c0 13.333 -5.5 22.333 -16.5 27s-30.167 7 -57.5 7c-13.333 0 -27.833 -0.5 -43.5 -1.5s-31.167 -2.83301 -46.5 -5.5c-10 -2 -14 1.33301 -12 10l6 31c0.666992 4.66699 5.33398 8 14.001 10
c13.333 3.33301 28.5 6.16602 45.5 8.49902s34.167 3.5 51.5 3.5c38 0 68 -7 90 -21s33 -34.667 33 -62z" />
    <glyph glyph-name="uni00B3" unicode="&#xb3;" horiz-adv-x="338" 
d="M186 734c13.333 4 28.1699 7.00195 44.5029 9.00195s31.833 3 46.5 3c42 0 74.333 -8.5 97 -25.5s34 -39.833 34 -68.5c0 -48.667 -22.667 -85 -68 -109c14 -9.33301 23.333 -21.333 28 -36s7 -27.667 7 -39c0 -26 -4.33301 -48.167 -13 -66.5s-20.5 -33.333 -35.5 -45
s-32.667 -20.167 -53 -25.5s-42.5 -8 -66.5 -8c-15.333 0 -31.833 1.16699 -49.5 3.5s-32.167 5.16602 -43.5 8.49902c-2 0.666992 -4 1.66699 -6 3s-2.66699 4 -2 8l5 29c1.33301 5.33301 3.16602 8.5 5.49902 9.5s4.5 1.5 6.5 1.5s4.66699 -0.166992 8 -0.5
s7 -0.833008 11 -1.5c9.33301 -1.33301 19.5 -2.33301 30.5 -3s21.167 -1 30.5 -1c16 0 30.667 1 44 3s24.833 6 34.5 12s17.167 14.667 22.5 26s8 26.333 8 45c0 15.333 -3.5 27.666 -10.5 36.999s-20.5 14 -40.5 14h-100c-2.66699 0 -5.33398 0.666992 -8.00098 2
s-3.33398 4.33301 -2.00098 9l6 31c1.33301 7.33301 6 11 14 11h98c24 0 42.333 6.5 55 19.5s19 31.167 19 54.5c0 17.333 -6.66699 29.166 -20 35.499s-35 9.5 -65 9.5c-12 0 -25.667 -0.833008 -41 -2.5s-28.333 -3.16699 -39 -4.5c-8 -0.666992 -11.333 3 -10 11l5 30
c0.666992 4.66699 5 8.33398 13 11.001z" />
    <glyph glyph-name="acute" unicode="&#xb4;" horiz-adv-x="373" 
d="M469 773c0 -2.66699 -1.66699 -5.66699 -5 -9l-136 -126c-5.33301 -5.33301 -9.5 -9.16602 -12.5 -11.499s-7.16699 -3.5 -12.5 -3.5h-54c-5.33301 0 -8 2 -8 6c0 3.33301 2 7 6 11l120 124c5.33301 5.33301 9.5 9.16602 12.5 11.499s7.5 3.5 13.5 3.5h66
c6.66699 0 10 -2 10 -6z" />
    <glyph glyph-name="uni00B5" unicode="&#xb5;" horiz-adv-x="557" 
d="M582 530l-84.998 -486c-2 -11.333 -9.66699 -19 -23 -23c-24.667 -8.66699 -54 -15.5 -88 -20.5s-68 -7.5 -102 -7.5c-52 0 -93.333 9.66699 -124 29l-35 -198c-1.33301 -5.33301 -4.33301 -10 -9 -14s-9.66699 -6 -15 -6h-48c-10.667 0 -16 5.33301 -16 16v4l124 706
c1.33301 5.33301 4.16602 10 8.49902 14s9.16602 6 14.499 6h50c10 0 15 -5.33301 15 -16v-4l-58 -329c-2.66699 -13.333 -4 -27.333 -4 -42c0 -32 9 -55.167 27 -69.5s45.667 -21.5 83 -21.5c20 0 40.667 1.16699 62 3.5s40 5.83301 56 10.5l79 448
c1.33301 5.33301 4.33301 10 9 14s9.66699 6 15 6h49c10 0 15 -5.33301 15 -16v-4z" />
    <glyph glyph-name="paragraph" unicode="&#xb6;" horiz-adv-x="622" 
d="M686 731c0 -1.33301 -0.171875 -2.49805 -0.504883 -3.49805s-0.5 -2.16699 -0.5 -3.5l-159 -900c-1.33301 -5.33301 -3.66602 -9.83301 -6.99902 -13.5s-7.66602 -5.5 -12.999 -5.5h-23c-4.66699 0 -8.16699 1.5 -10.5 4.5s-3.5 6.5 -3.5 10.5v4l152 865h-58l-152 -865
c-1.33301 -5.33301 -3.66602 -9.83301 -6.99902 -13.5s-7.66602 -5.5 -12.999 -5.5h-23c-4.66699 0 -8.16699 1.5 -10.5 4.5s-3.5 6.5 -3.5 10.5v4l77 439h-98c-30.667 0 -58.667 4.16699 -84 12.5s-47 20.333 -65 36s-32 34.667 -42 57s-15 47.166 -15 74.499
c0 15.333 1.33301 29.666 4 42.999l6 34c6 36 17.333 67.833 34 95.5s37 51 61 70s51.333 33.333 82 43s63.334 14.5 98.001 14.5h260c9.33301 0 14 -4 14 -12z" />
    <glyph glyph-name="periodcentered" unicode="&#xb7;" horiz-adv-x="214" 
d="M227 438l-16.001 -93c-1.33301 -5.33301 -4.16602 -10 -8.49902 -14s-9.16602 -6 -14.499 -6h-48c-10 0 -15 5.33301 -15 16v4l16 93c1.33301 5.33301 4.16602 9.83301 8.49902 13.5s9.16602 5.5 14.499 5.5h48c4.66699 0 8.33398 -1.5 11.001 -4.5s4 -6.5 4 -10.5v-4z
" />
    <glyph glyph-name="cedilla" unicode="&#xb8;" horiz-adv-x="366" 
d="M247 -38c0 -2.66699 -1.66602 -5.66699 -4.99902 -9l-136 -126c-5.33301 -5.33301 -9.5 -9.16602 -12.5 -11.499s-7.16699 -3.5 -12.5 -3.5h-54c-5.33301 0 -8 2 -8 6c0 3.33301 2 7 6 11l119 124c5.33301 5.33301 9.66602 9.16602 12.999 11.499s8 3.5 14 3.5h66
c6.66699 0 10 -2 10 -6z" />
    <glyph glyph-name="uni00B9" unicode="&#xb9;" horiz-adv-x="282" 
d="M312 743c6.66699 0 9.66504 -3.33496 8.99805 -10.002l-69 -395c0 -3.33301 -1.16699 -6 -3.5 -8s-5.16602 -3 -8.49902 -3h-45c-5.33301 0 -7.66602 3.66699 -6.99902 11l60 341l-78 -31c-2 -1.33301 -4.5 -1.66602 -7.5 -0.999023s-4.16699 3.33398 -3.5 8.00098l6 37
c0.666992 5.33301 4 9 10 11l79 33c10 4.66699 18.667 7 26 7h32z" />
    <glyph glyph-name="ordmasculine" unicode="&#xba;" horiz-adv-x="322" 
d="M401 643c0 -14.667 -1.33398 -28.667 -4.00098 -42l-6 -35c-8 -46.667 -25.167 -82.5 -51.5 -107.5s-60.833 -37.5 -103.5 -37.5c-36 0 -63 8.83301 -81 26.5s-27 43.5 -27 77.5c0 14 1.33301 27.667 4 41l6 35c8 46.667 25.333 82.5 52 107.5s61.334 37.5 104.001 37.5
c36 0 62.833 -8.83301 80.5 -26.5s26.5 -43.167 26.5 -76.5zM338.999 635c0 19.333 -4.33203 33.832 -12.999 43.499s-22.667 14.5 -42 14.5c-47.333 0 -76 -30.667 -86 -92l-6 -35c-2 -12 -3 -23 -3 -33c0 -40 18.667 -60 56 -60c24.667 0 43.667 7.83301 57 23.5
s22.666 38.834 27.999 69.501l6 35c2 12.667 3 24 3 34z" />
    <glyph glyph-name="guillemotright" unicode="&#xbb;" horiz-adv-x="614" 
d="M635 280c0 -14 -4 -24.333 -12 -31l-199 -169c-8.66699 -6.66699 -17 -10 -25 -10h-61c-6 0 -9 2.33301 -9 7c0 2 0.666992 4.5 2 7.5s3.33301 5.5 6 7.5l210 185l-139 185c-2.66699 4 -4 7.66699 -4 11c0 7.33301 4 11 12 11h53c6.66699 0 13 -3.33301 19 -10l139 -169
c5.33301 -6 8 -14.333 8 -25zM375 280c0 -14 -4 -24.333 -12 -31l-199 -169c-8.66699 -6.66699 -17 -10 -25 -10h-61c-6 0 -9 2.33301 -9 7c0 2 0.666992 4.5 2 7.5s3.33301 5.5 6 7.5l210 185l-139 185c-2.66699 4 -4 7.66699 -4 11c0 7.33301 4 11 12 11h53
c6.66699 0 13 -3.33301 19 -10l139 -169c5.33301 -6 8 -14.333 8 -25z" />
    <glyph glyph-name="onequarter" unicode="&#xbc;" horiz-adv-x="737" 
d="M304 743c6.66699 0 9.66504 -3.33496 8.99805 -10.002l-69 -395c0 -3.33301 -1.16699 -6 -3.5 -8s-5.16602 -3 -8.49902 -3h-45c-5.33301 0 -7.66602 3.66699 -6.99902 11l60 341l-78 -31c-2 -1.33301 -4.5 -1.66602 -7.5 -0.999023s-4.16699 3.33398 -3.5 8.00098l6 37
c0.666992 5.33301 4 9 10 11l79 33c10 4.66699 18.667 7 26 7h32zM738.998 737.998c0 -4 -2.33301 -8.66699 -7 -14l-543 -708c-5.33301 -7.33301 -9.66602 -12.5 -12.999 -15.5s-7.66602 -4.5 -12.999 -4.5h-49c-5.33301 0 -8 2 -8 6s2 8.66699 6 14l543 708
c5.33301 7.33301 9.66602 12.333 12.999 15s7.66602 4 12.999 4h51c4.66699 0 7 -1.66699 7 -5zM727.998 123.998c-1.33301 -5.33301 -4.00195 -9.5 -8.00195 -12.5s-8.66699 -4.5 -14 -4.5h-38l-15 -88c-1.33301 -4.66699 -4 -9 -8 -13s-8.66699 -6 -14 -6h-31
c-5.33301 0 -9.16602 1.83301 -11.499 5.5s-2.83301 8.16699 -1.5 13.5l15 88h-147c-11.333 0 -19 1.83301 -23 5.5s-5 11.167 -3 22.5l3 20c2 10 6.33301 18.667 13 26l202 224c2.66699 2.66699 5.33398 5.16699 8.00098 7.5s7.33398 3.5 14.001 3.5h31
c14.667 0 21 -6.66699 19 -20l-41 -233h38c5.33301 0 9.66602 -1.5 12.999 -4.5s4.33301 -7.16699 3 -12.5zM640.996 324.998l-141 -162h113z" />
    <glyph glyph-name="onehalf" unicode="&#xbd;" horiz-adv-x="790" 
d="M304 743c6.66699 0 9.66504 -3.33496 8.99805 -10.002l-69 -395c0 -3.33301 -1.16699 -6 -3.5 -8s-5.16602 -3 -8.49902 -3h-45c-5.33301 0 -7.66602 3.66699 -6.99902 11l60 341l-78 -31c-2 -1.33301 -4.5 -1.66602 -7.5 -0.999023s-4.16699 3.33398 -3.5 8.00098l6 37
c0.666992 5.33301 4 9 10 11l79 33c10 4.66699 18.667 7 26 7h32zM738.998 737.998c0 -4 -2.33301 -8.66699 -7 -14l-543 -708c-5.33301 -7.33301 -9.66602 -12.5 -12.999 -15.5s-7.66602 -4.5 -12.999 -4.5h-49c-5.33301 0 -8 2 -8 6s2 8.66699 6 14l543 708
c5.33301 7.33301 9.66602 12.333 12.999 15s7.66602 4 12.999 4h51c4.66699 0 7 -1.66699 7 -5zM791.998 335.998c0 -16 -2.49902 -30.333 -7.49902 -43s-11.833 -24.167 -20.5 -34.5s-18.667 -19.833 -30 -28.5s-23.333 -17 -36 -25l-58 -36c-16 -10 -29 -19.333 -39 -28
s-17.833 -17.167 -23.5 -25.5s-9.83398 -16.833 -12.501 -25.5s-5 -18 -7 -28l-1 -5h173c8 0 11.667 -3.33301 11 -10l-6 -37c-1.33301 -4.66699 -3 -7.5 -5 -8.5s-5.33301 -1.5 -10 -1.5h-225c-4.66699 0 -7.5 1.16699 -8.5 3.5s-1.5 5.16602 -1.5 8.49902l7 40
c6 34.667 17.167 64.834 33.5 90.501s43.5 50.167 81.5 73.5l61 37c12.667 8 23 14.833 31 20.5s14.167 11.334 18.5 17.001s7.16602 11.5 8.49902 17.5s2 13 2 21c0 13.333 -5.5 22.333 -16.5 27s-30.167 7 -57.5 7c-13.333 0 -27.833 -0.5 -43.5 -1.5
s-31.167 -2.83301 -46.5 -5.5c-10 -2 -14 1.33301 -12 10l6 31c0.666992 4.66699 5.33398 8 14.001 10c13.333 3.33301 28.5 6.16602 45.5 8.49902s34.167 3.5 51.5 3.5c38 0 68 -7 90 -21s33 -34.667 33 -62z" />
    <glyph glyph-name="threequarters" unicode="&#xbe;" horiz-adv-x="798" 
d="M800 738c0 -4 -2.33301 -8.66699 -7 -14l-543 -708c-5.33301 -7.33301 -9.66602 -12.5 -12.999 -15.5s-7.66602 -4.5 -12.999 -4.5h-49c-5.33301 0 -8 2 -8 6s2 8.66699 6 14l543 708c5.33301 7.33301 9.66602 12.333 12.999 15s7.66602 4 12.999 4h51
c4.66699 0 7 -1.66699 7 -5zM789 124c-1.33301 -5.33301 -4.00195 -9.5 -8.00195 -12.5s-8.66699 -4.5 -14 -4.5h-38l-15 -88c-1.33301 -4.66699 -4 -9 -8 -13s-8.66699 -6 -14 -6h-31c-5.33301 -0 -9.16602 1.83301 -11.499 5.5s-2.83301 8.16699 -1.5 13.5l15 88h-147
c-11.333 0 -19 1.83301 -23 5.5s-5 11.167 -3 22.5l3 20c2 10 6.33301 18.667 13 26l202 224c2.66699 2.66699 5.33398 5.16699 8.00098 7.5s7.33398 3.5 14.001 3.5h31c14.667 0 21 -6.66699 19 -20l-41 -233h38c5.33301 0 9.66602 -1.5 12.999 -4.5
s4.33301 -7.16699 3 -12.5zM701.998 325l-141 -162h113zM186.998 734c13.333 4 28.1699 7.00195 44.5029 9.00195s31.833 3 46.5 3c42 0 74.333 -8.5 97 -25.5s34 -39.833 34 -68.5c0 -48.667 -22.667 -85 -68 -109c14 -9.33301 23.333 -21.333 28 -36s7 -27.667 7 -39
c0 -26 -4.33301 -48.167 -13 -66.5s-20.5 -33.333 -35.5 -45s-32.667 -20.167 -53 -25.5s-42.5 -8 -66.5 -8c-15.333 0 -31.833 1.16699 -49.5 3.5s-32.167 5.16602 -43.5 8.49902c-2 0.666992 -4 1.66699 -6 3s-2.66699 4 -2 8l5 29
c1.33301 5.33301 3.16602 8.5 5.49902 9.5s4.5 1.5 6.5 1.5s4.66699 -0.166992 8 -0.5s7 -0.833008 11 -1.5c9.33301 -1.33301 19.5 -2.33301 30.5 -3s21.167 -1 30.5 -1c16 0 30.667 1 44 3s24.833 6 34.5 12s17.167 14.667 22.5 26s8 26.333 8 45
c0 15.333 -3.5 27.666 -10.5 36.999s-20.5 14 -40.5 14h-100c-2.66699 0 -5.33398 0.666992 -8.00098 2s-3.33398 4.33301 -2.00098 9l6 31c1.33301 7.33301 6 11 14 11h98c24 0 42.333 6.5 55 19.5s19 31.167 19 54.5c0 17.333 -6.66699 29.166 -20 35.499s-35 9.5 -65 9.5
c-12 0 -25.667 -0.833008 -41 -2.5s-28.333 -3.16699 -39 -4.5c-8 -0.666992 -11.333 3 -10 11l5 30c0.666992 4.66699 5 8.33398 13 11.001z" />
    <glyph glyph-name="questiondown" unicode="&#xbf;" horiz-adv-x="446" 
d="M422 531l-17.002 -93c-1.33301 -5.33301 -4.16602 -10 -8.49902 -14s-9.16602 -6 -14.499 -6h-48c-5.33301 0 -9.33301 1.66699 -12 5s-4 7.33301 -4 12v3l17 93c2 12.667 9.33301 19 22 19h48c11.333 0 17 -5.33301 17 -16v-3zM383.998 337l-8 -49
c-2.66699 -16 -6 -30.333 -10 -43s-9.66699 -24.667 -17 -36s-16.333 -23 -27 -35s-23.667 -25 -39 -39l-55 -51c-14.667 -13.333 -27.5 -25.666 -38.5 -36.999s-20.167 -22.666 -27.5 -33.999s-12.833 -23.333 -16.5 -36s-5.5 -27.334 -5.5 -44.001
c0 -20.667 7.33301 -34.834 22 -42.501s38 -11.5 70 -11.5c24 0 46.833 0.833008 68.5 2.5s44.167 3.83398 67.5 6.50098h3c8 0 12 -4 12 -12v-3v-2l-6 -35c-1.33301 -6 -3.16602 -11 -5.49902 -15s-7.5 -6.66699 -15.5 -8c-21.333 -4 -44.333 -7.16699 -69 -9.5
s-48.334 -3.5 -71.001 -3.5c-24.667 0 -47.5 2.33301 -68.5 7s-39.333 12 -55 22s-28 22.833 -37 38.5s-13.5 34.167 -13.5 55.5c0 23.333 3.5 44.666 10.5 63.999s16.333 37.5 28 54.5s25.167 33.167 40.5 48.5l47 46l54 51l29 27.5c8 7.66699 14.833 15.167 20.5 22.5
s10.167 14.833 13.5 22.5s6 17.167 8 28.5l8 49c1.33301 5.33301 4.33301 9.83301 9 13.5s9.66699 5.5 15 5.5h44c10 0 15 -5 15 -15v-3v-1z" />
    <glyph glyph-name="Agrave" unicode="&#xc0;" horiz-adv-x="633" 
d="M607 19c0 -12.667 -5.66797 -18.999 -17.001 -18.999h-60c-4.66699 0 -8 1.5 -10 4.5s-3.33301 6.5 -4 10.5l-25 230h-259l-104 -230c-1.33301 -4 -3.66602 -7.5 -6.99902 -10.5s-8 -4.5 -14 -4.5h-61c-9.33301 0 -14 4.33301 -14 13c0 4 0.666992 7.33301 2 10l300 651
c14 30.667 31.167 51 51.5 61s41.5 15 63.5 15c10 0 20 -1 30 -3s19 -5.83301 27 -11.5s14.667 -13.334 20 -23.001s9 -22.167 11 -37.5l70 -652v-4zM452.999 653.001c-1.33301 12 -6.66699 18 -16 18c-10 0 -17.667 -6 -23 -18l-149 -329h221zM525.998 803.001
c0 -6 -3.33301 -9 -10 -9h-54c-5.33301 0 -9.33301 1.16699 -12 3.5s-5.66699 6.16602 -9 11.499l-90 126c-2 2.66699 -3 5 -3 7c0 5.33301 4 8 12 8h66c6 0 10.5 -1.16699 13.5 -3.5s6.16699 -6.16602 9.5 -11.499l75 -124c1.33301 -2 2 -4.66699 2 -8z" />
    <glyph glyph-name="Aacute" unicode="&#xc1;" horiz-adv-x="633" 
d="M607 19c0 -12.667 -5.66797 -18.999 -17.001 -18.999h-60c-4.66699 0 -8 1.5 -10 4.5s-3.33301 6.5 -4 10.5l-25 230h-259l-104 -230c-1.33301 -4 -3.66602 -7.5 -6.99902 -10.5s-8 -4.5 -14 -4.5h-61c-9.33301 0 -14 4.33301 -14 13c0 4 0.666992 7.33301 2 10l300 651
c14 30.667 31.167 51 51.5 61s41.5 15 63.5 15c10 0 20 -1 30 -3s19 -5.83301 27 -11.5s14.667 -13.334 20 -23.001s9 -22.167 11 -37.5l70 -652v-4zM452.999 653.001c-1.33301 12 -6.66699 18 -16 18c-10 0 -17.667 -6 -23 -18l-149 -329h221zM634.998 944.001
c0 -2.66699 -1.66699 -5.66699 -5 -9l-136 -126c-5.33301 -5.33301 -9.5 -9.16602 -12.5 -11.499s-7.16699 -3.5 -12.5 -3.5h-54c-5.33301 0 -8 2 -8 6c0 3.33301 2 7 6 11l120 124c5.33301 5.33301 9.5 9.16602 12.5 11.499s7.5 3.5 13.5 3.5h66c6.66699 0 10 -2 10 -6z
" />
    <glyph glyph-name="Acircumflex" unicode="&#xc2;" horiz-adv-x="633" 
d="M607 19c0 -12.667 -5.66797 -18.999 -17.001 -18.999h-60c-4.66699 0 -8 1.5 -10 4.5s-3.33301 6.5 -4 10.5l-25 230h-259l-104 -230c-1.33301 -4 -3.66602 -7.5 -6.99902 -10.5s-8 -4.5 -14 -4.5h-61c-9.33301 0 -14 4.33301 -14 13c0 4 0.666992 7.33301 2 10l300 651
c14 30.667 31.167 51 51.5 61s41.5 15 63.5 15c10 0 20 -1 30 -3s19 -5.83301 27 -11.5s14.667 -13.334 20 -23.001s9 -22.167 11 -37.5l70 -652v-4zM452.999 653.001c-1.33301 12 -6.66699 18 -16 18c-10 0 -17.667 -6 -23 -18l-149 -329h221zM629.998 803.001
c0 -6 -3.33301 -9 -10 -9h-49c-5.33301 0 -9.33301 1.16699 -12 3.5s-5.66699 6.16602 -9 11.499l-64 97l-101 -97c-5.33301 -5.33301 -9.5 -9.16602 -12.5 -11.499s-7.16699 -3.5 -12.5 -3.5h-55c-5.33301 0 -8 2 -8 6c0 3.33301 2 7 6 11l118 124
c5.33301 5.33301 9.5 9.16602 12.5 11.499s7.5 3.5 13.5 3.5h85c6 0 10.5 -1.16699 13.5 -3.5s6.16699 -6.16602 9.5 -11.499l73 -124c1.33301 -2 2 -4.66699 2 -8z" />
    <glyph glyph-name="Atilde" unicode="&#xc3;" horiz-adv-x="633" 
d="M607 19c0 -12.667 -5.66797 -18.999 -17.001 -18.999h-60c-4.66699 0 -8 1.5 -10 4.5s-3.33301 6.5 -4 10.5l-25 230h-259l-104 -230c-1.33301 -4 -3.66602 -7.5 -6.99902 -10.5s-8 -4.5 -14 -4.5h-61c-9.33301 0 -14 4.33301 -14 13c0 4 0.666992 7.33301 2 10l300 651
c14 30.667 31.167 51 51.5 61s41.5 15 63.5 15c10 0 20 -1 30 -3s19 -5.83301 27 -11.5s14.667 -13.334 20 -23.001s9 -22.167 11 -37.5l70 -652v-4zM452.999 653.001c-1.33301 12 -6.66699 18 -16 18c-10 0 -17.667 -6 -23 -18l-149 -329h221zM659.998 917.001
l-3.99707 -22.999c-6 -34.667 -16.5 -60.834 -31.5 -78.501s-38.5 -26.5 -70.5 -26.5c-11.333 0 -24 1.5 -38 4.5s-26.667 10.167 -38 21.5l-47 44c-10 9.33301 -17.167 15.333 -21.5 18s-9.5 4 -15.5 4c-22.667 0 -36 -15.333 -40 -46l-3 -21
c-0.666992 -4.66699 -2.5 -8.66699 -5.5 -12s-6.83301 -5 -11.5 -5h-34c-8.66699 0 -13 4.66699 -13 14v3l3 21c5.33301 40 17.166 68.167 35.499 84.5s41.166 24.5 68.499 24.5c15.333 0 28.166 -2.33301 38.499 -7s22.166 -12.667 35.499 -24l54 -49
c4.66699 -4 10 -7.33301 16 -10s11.333 -4 16 -4c10 0 18 3 24 9s10.667 17.667 14 35l4 23c1.33301 4.66699 3.33301 8.66699 6 12s6.33398 5 11.001 5h34c8.66699 0 13 -4.66699 13 -14v-3z" />
    <glyph glyph-name="Adieresis" unicode="&#xc4;" horiz-adv-x="633" 
d="M607 19c0 -12.667 -5.66797 -18.999 -17.001 -18.999h-60c-4.66699 0 -8 1.5 -10 4.5s-3.33301 6.5 -4 10.5l-25 230h-259l-104 -230c-1.33301 -4 -3.66602 -7.5 -6.99902 -10.5s-8 -4.5 -14 -4.5h-61c-9.33301 0 -14 4.33301 -14 13c0 4 0.666992 7.33301 2 10l300 651
c14 30.667 31.167 51 51.5 61s41.5 15 63.5 15c10 0 20 -1 30 -3s19 -5.83301 27 -11.5s14.667 -13.334 20 -23.001s9 -22.167 11 -37.5l70 -652v-4zM452.999 653.001c-1.33301 12 -6.66699 18 -16 18c-10 0 -17.667 -6 -23 -18l-149 -329h221zM610.998 908.001l-15 -81
c-1.33301 -5.33301 -4.16602 -9.83301 -8.49902 -13.5s-9.16602 -5.5 -14.499 -5.5h-39c-4.66699 0 -8.66699 1.33301 -12 4s-5 6.66699 -5 12v3l15 81c1.33301 5.33301 4.16602 10 8.49902 14s9.16602 6 14.499 6h39c4.66699 0 8.66699 -1.66699 12 -5s5 -7.33301 5 -12v-3
zM435.998 908.001l-15 -81c-1.33301 -5.33301 -4.16602 -9.83301 -8.49902 -13.5s-9.16602 -5.5 -14.499 -5.5h-39c-4.66699 0 -8.66699 1.33301 -12 4s-5 6.66699 -5 12v3l15 81c1.33301 5.33301 4.16602 10 8.49902 14s9.16602 6 14.499 6h39
c4.66699 0 8.66699 -1.66699 12 -5s5 -7.33301 5 -12v-3z" />
    <glyph glyph-name="Aring" unicode="&#xc5;" horiz-adv-x="633" 
d="M607 19c0 -12.667 -5.66797 -18.999 -17.001 -18.999h-60c-4.66699 0 -8 1.5 -10 4.5s-3.33301 6.5 -4 10.5l-25 230h-259l-104 -230c-1.33301 -4 -3.66602 -7.5 -6.99902 -10.5s-8 -4.5 -14 -4.5h-61c-9.33301 0 -14 4.33301 -14 13c0 4 0.666992 7.33301 2 10l300 651
c14 30.667 31.167 51 51.5 61s41.5 15 63.5 15c10 0 20 -1 30 -3s19 -5.83301 27 -11.5s14.667 -13.334 20 -23.001s9 -22.167 11 -37.5l70 -652v-4zM452.999 653.001c-1.33301 12 -6.66699 18 -16 18c-10 0 -17.667 -6 -23 -18l-149 -329h221zM566.998 878.001
c0 -14 -2.66699 -27.167 -8 -39.5s-12.5 -23 -21.5 -32s-19.667 -16.167 -32 -21.5s-25.5 -8 -39.5 -8s-27.167 2.66699 -39.5 8s-23.166 12.5 -32.499 21.5s-16.666 19.667 -21.999 32s-8 25.5 -8 39.5s2.66699 27.167 8 39.5s12.666 23.166 21.999 32.499
s20.166 16.666 32.499 21.999s25.5 8 39.5 8s27.167 -2.66699 39.5 -8s23 -12.666 32 -21.999s16.167 -20.166 21.5 -32.499s8 -25.5 8 -39.5zM518.998 879.001c0 14.667 -5.16699 27 -15.5 37s-22.833 15 -37.5 15s-27 -5 -37 -15s-15 -22.333 -15 -37s5 -27.167 15 -37.5
s22.333 -15.5 37 -15.5s27.167 5.16699 37.5 15.5s15.5 22.833 15.5 37.5z" />
    <glyph glyph-name="AE" unicode="&#xc6;" horiz-adv-x="859" 
d="M933 729l-9.00488 -52.9961c-1.33301 -8 -5.66602 -12 -12.999 -12h-286l-43 -239h277c10.667 0 16 -5.33301 16 -16v-4l-6 -38c-1.33301 -5.33301 -4.33301 -10 -9 -14s-9.66699 -6 -15 -6h-277l-29 -168l-3.5 -25c-1 -7.33301 -1.5 -14 -1.5 -20
c0 -11.333 1.66699 -20.833 5 -28.5s9.33301 -13.834 18 -18.501s19.834 -7.83398 33.501 -9.50098s31.167 -2.5 52.5 -2.5h163c6 0 9 -3 9 -9v-3l-9 -49c-0.666992 -3.33301 -2 -6.33301 -4 -9s-4.66699 -4.33398 -8 -5.00098c-7.33301 -0.666992 -17.333 -1.5 -30 -2.5
s-26.667 -1.83301 -42 -2.5s-31.166 -1.16699 -47.499 -1.5s-31.833 -0.5 -46.5 -0.5c-123.333 0 -185 46.667 -185 140c0 7.33301 0.5 14.833 1.5 22.5s2.16699 15.5 3.5 23.5l11 66h-239l-104 -230c-1.33301 -4 -4.16602 -7.5 -8.49902 -10.5s-8.5 -4.5 -12.5 -4.5h-59
c-9.33301 0 -14 4.33301 -14 13c0 4.66699 0.666992 8 2 10l299 645c14.667 31.333 31.334 51.666 50.001 60.999s40.667 14 66 14h487c2.66699 0 4.5 -1.16699 5.5 -3.5s1.5 -4.83301 1.5 -7.5v-3zM422.995 664.004c-10 0 -17.667 -5.66699 -23 -17l-147 -323h220l61 340
h-111z" />
    <glyph glyph-name="Ccedilla" unicode="&#xc7;" horiz-adv-x="545" 
d="M635 721l-8.99609 -51.001c-0.666992 -7.33301 -5.33398 -11 -14.001 -11h-3l-32.5 2.5c-13 1 -27 2 -42 3s-30.333 1.83301 -46 2.5s-30.834 1 -45.501 1c-24.667 0 -48.167 -3.83301 -70.5 -11.5s-43 -20.5 -62 -38.5s-35.5 -41.5 -49.5 -70.5
s-24.667 -64.5 -32 -106.5l-25 -139c-2.66699 -14 -4.5 -27 -5.5 -39s-1.5 -23.667 -1.5 -35c0 -28 3.5 -51.667 10.5 -71s16.667 -35.166 29 -47.499s27.166 -21.166 44.499 -26.499s36.333 -8 57 -8c14 0 29 0.333008 45 1l46.5 2c15 0.666992 29 1.5 42 2.5l33.5 2.5h4
c8.66699 0 13 -3.66699 13 -11v-5l-7 -41c-1.33301 -6 -4.33301 -10.5 -9 -13.5s-9.66699 -5.16699 -15 -6.5c-10.667 -2 -21.5 -3.83301 -32.5 -5.5s-23 -3 -36 -4s-27.5 -1.83301 -43.5 -2.5s-34.667 -1 -56 -1c-25.333 0 -50.833 4 -76.5 12s-49 21 -70 39
s-38 41.5 -51 70.5s-19.5 64.833 -19.5 107.5c0 12 0.5 24.667 1.5 38s2.83301 27.333 5.5 42l25 139c11.333 63.333 28.333 115.166 51 155.499s48.5 71.833 77.5 94.5s59.833 38.167 92.5 46.5s65 12.5 97 12.5s62.167 -1.83301 90.5 -5.5s53.166 -7.16699 74.499 -10.5
c3.33301 -0.666992 6.5 -1.66699 9.5 -3s4.5 -4 4.5 -8v-2zM375.004 -38.001c0 -2 -2 -5 -6 -9l-136 -126c-5.33301 -5.33301 -9.5 -9.16602 -12.5 -11.499s-7.16699 -3.5 -12.5 -3.5h-54c-5.33301 0 -8 2 -8 6c0 3.33301 2 7 6 11l119 124
c5.33301 5.33301 9.83301 9.16602 13.5 11.499s8.16699 3.5 13.5 3.5h66c7.33301 0 11 -2 11 -6z" />
    <glyph glyph-name="Egrave" unicode="&#xc8;" horiz-adv-x="551" 
d="M410 668c-26.667 0 -48.334 -1.83594 -65.001 -5.50293s-30.167 -9.66699 -40.5 -18s-18.166 -19.166 -23.499 -32.499s-9.66602 -29.333 -12.999 -48l-24 -139h307c12.667 0 18 -6.66699 16 -20l-6 -38c-1.33301 -5.33301 -3.5 -10 -6.5 -14s-8.83301 -6 -17.5 -6h-307
l-29 -168c-1.33301 -8 -2.5 -15.333 -3.5 -22s-1.5 -13 -1.5 -19c0 -22.667 7.66699 -38.834 23 -48.501s44 -14.5 86 -14.5h190c5.33301 0 9 -0.666992 11 -2s2.33301 -4.66602 1 -9.99902l-9 -49c-0.666992 -3.33301 -1.5 -6.16602 -2.5 -8.49902
s-4.16699 -4.16602 -9.5 -5.49902c-7.33301 -0.666992 -18.833 -1.5 -34.5 -2.5s-33 -1.83301 -52 -2.5s-38.333 -1.16699 -58 -1.5s-36.834 -0.5 -51.501 -0.5c-57.333 0 -102.333 11.833 -135 35.5s-49 59.834 -49 108.501c0 14.667 1.33301 28.667 4 42l67 385
c6.66699 36.667 16.667 67 30 91s30.166 43 50.499 57s44.166 23.833 71.499 29.5s58.666 8.5 93.999 8.5c56.667 0 99.834 -0.833008 129.501 -2.5s51.167 -3.83398 64.5 -6.50098c3.33301 -0.666992 5.83301 -1.83398 7.5 -3.50098s1.83398 -5.16699 0.500977 -10.5
l-9 -47c-0.666992 -5.33301 -2.16699 -8.66602 -4.5 -9.99902s-5.16602 -2 -8.49902 -2h-193v0zM501 801.997c0 -6 -3.33301 -9 -10 -9h-54c-5.33301 0 -9.33301 1.16699 -12 3.5s-5.66699 6.16602 -9 11.499l-90 126c-2 2.66699 -3 5 -3 7c0 5.33301 4 8 12 8h66
c6 0 10.5 -1.16699 13.5 -3.5s6.16699 -6.16602 9.5 -11.499l75 -124c1.33301 -2 2 -4.66699 2 -8z" />
    <glyph glyph-name="Eacute" unicode="&#xc9;" horiz-adv-x="551" 
d="M410 668c-26.667 0 -48.334 -1.83594 -65.001 -5.50293s-30.167 -9.66699 -40.5 -18s-18.166 -19.166 -23.499 -32.499s-9.66602 -29.333 -12.999 -48l-24 -139h307c12.667 0 18 -6.66699 16 -20l-6 -38c-1.33301 -5.33301 -3.5 -10 -6.5 -14s-8.83301 -6 -17.5 -6h-307
l-29 -168c-1.33301 -8 -2.5 -15.333 -3.5 -22s-1.5 -13 -1.5 -19c0 -22.667 7.66699 -38.834 23 -48.501s44 -14.5 86 -14.5h190c5.33301 0 9 -0.666992 11 -2s2.33301 -4.66602 1 -9.99902l-9 -49c-0.666992 -3.33301 -1.5 -6.16602 -2.5 -8.49902
s-4.16699 -4.16602 -9.5 -5.49902c-7.33301 -0.666992 -18.833 -1.5 -34.5 -2.5s-33 -1.83301 -52 -2.5s-38.333 -1.16699 -58 -1.5s-36.834 -0.5 -51.501 -0.5c-57.333 0 -102.333 11.833 -135 35.5s-49 59.834 -49 108.501c0 14.667 1.33301 28.667 4 42l67 385
c6.66699 36.667 16.667 67 30 91s30.166 43 50.499 57s44.166 23.833 71.499 29.5s58.666 8.5 93.999 8.5c56.667 0 99.834 -0.833008 129.501 -2.5s51.167 -3.83398 64.5 -6.50098c3.33301 -0.666992 5.83301 -1.83398 7.5 -3.50098s1.83398 -5.16699 0.500977 -10.5
l-9 -47c-0.666992 -5.33301 -2.16699 -8.66602 -4.5 -9.99902s-5.16602 -2 -8.49902 -2h-193v0zM612 943.997c0 -2.66699 -1.66699 -5.66699 -5 -9l-136 -126c-5.33301 -5.33301 -9.5 -9.16602 -12.5 -11.499s-7.16699 -3.5 -12.5 -3.5h-54c-5.33301 0 -8 2 -8 6
c0 3.33301 2 7 6 11l120 124c5.33301 5.33301 9.5 9.16602 12.5 11.499s7.5 3.5 13.5 3.5h66c6.66699 0 10 -2 10 -6z" />
    <glyph glyph-name="Ecircumflex" unicode="&#xca;" horiz-adv-x="551" 
d="M410 668c-26.667 0 -48.334 -1.83594 -65.001 -5.50293s-30.167 -9.66699 -40.5 -18s-18.166 -19.166 -23.499 -32.499s-9.66602 -29.333 -12.999 -48l-24 -139h307c12.667 0 18 -6.66699 16 -20l-6 -38c-1.33301 -5.33301 -3.5 -10 -6.5 -14s-8.83301 -6 -17.5 -6h-307
l-29 -168c-1.33301 -8 -2.5 -15.333 -3.5 -22s-1.5 -13 -1.5 -19c0 -22.667 7.66699 -38.834 23 -48.501s44 -14.5 86 -14.5h190c5.33301 0 9 -0.666992 11 -2s2.33301 -4.66602 1 -9.99902l-9 -49c-0.666992 -3.33301 -1.5 -6.16602 -2.5 -8.49902
s-4.16699 -4.16602 -9.5 -5.49902c-7.33301 -0.666992 -18.833 -1.5 -34.5 -2.5s-33 -1.83301 -52 -2.5s-38.333 -1.16699 -58 -1.5s-36.834 -0.5 -51.501 -0.5c-57.333 0 -102.333 11.833 -135 35.5s-49 59.834 -49 108.501c0 14.667 1.33301 28.667 4 42l67 385
c6.66699 36.667 16.667 67 30 91s30.166 43 50.499 57s44.166 23.833 71.499 29.5s58.666 8.5 93.999 8.5c56.667 0 99.834 -0.833008 129.501 -2.5s51.167 -3.83398 64.5 -6.50098c3.33301 -0.666992 5.83301 -1.83398 7.5 -3.50098s1.83398 -5.16699 0.500977 -10.5
l-9 -47c-0.666992 -5.33301 -2.16699 -8.66602 -4.5 -9.99902s-5.16602 -2 -8.49902 -2h-193v0zM598 802.997c0 -6 -3.33301 -9 -10 -9h-49c-5.33301 0 -9.33301 1.16699 -12 3.5s-5.66699 6.16602 -9 11.499l-64 97l-101 -97
c-5.33301 -5.33301 -9.5 -9.16602 -12.5 -11.499s-7.16699 -3.5 -12.5 -3.5h-55c-5.33301 0 -8 2 -8 6c0 3.33301 2 7 6 11l118 124c5.33301 5.33301 9.5 9.16602 12.5 11.499s7.5 3.5 13.5 3.5h85c6 0 10.5 -1.16699 13.5 -3.5s6.16699 -6.16602 9.5 -11.499l73 -124
c1.33301 -2 2 -4.66699 2 -8z" />
    <glyph glyph-name="Edieresis" unicode="&#xcb;" horiz-adv-x="551" 
d="M410 668c-26.667 0 -48.334 -1.83594 -65.001 -5.50293s-30.167 -9.66699 -40.5 -18s-18.166 -19.166 -23.499 -32.499s-9.66602 -29.333 -12.999 -48l-24 -139h307c12.667 0 18 -6.66699 16 -20l-6 -38c-1.33301 -5.33301 -3.5 -10 -6.5 -14s-8.83301 -6 -17.5 -6h-307
l-29 -168c-1.33301 -8 -2.5 -15.333 -3.5 -22s-1.5 -13 -1.5 -19c0 -22.667 7.66699 -38.834 23 -48.501s44 -14.5 86 -14.5h190c5.33301 0 9 -0.666992 11 -2s2.33301 -4.66602 1 -9.99902l-9 -49c-0.666992 -3.33301 -1.5 -6.16602 -2.5 -8.49902
s-4.16699 -4.16602 -9.5 -5.49902c-7.33301 -0.666992 -18.833 -1.5 -34.5 -2.5s-33 -1.83301 -52 -2.5s-38.333 -1.16699 -58 -1.5s-36.834 -0.5 -51.501 -0.5c-57.333 0 -102.333 11.833 -135 35.5s-49 59.834 -49 108.501c0 14.667 1.33301 28.667 4 42l67 385
c6.66699 36.667 16.667 67 30 91s30.166 43 50.499 57s44.166 23.833 71.499 29.5s58.666 8.5 93.999 8.5c56.667 0 99.834 -0.833008 129.501 -2.5s51.167 -3.83398 64.5 -6.50098c3.33301 -0.666992 5.83301 -1.83398 7.5 -3.50098s1.83398 -5.16699 0.500977 -10.5
l-9 -47c-0.666992 -5.33301 -2.16699 -8.66602 -4.5 -9.99902s-5.16602 -2 -8.49902 -2h-193v0zM585 909.997l-15 -81c-1.33301 -5.33301 -4.16602 -9.83301 -8.49902 -13.5s-9.16602 -5.5 -14.499 -5.5h-39c-4.66699 0 -8.66699 1.33301 -12 4s-5 6.66699 -5 12v3l15 81
c1.33301 5.33301 4.16602 10 8.49902 14s9.16602 6 14.499 6h39c4.66699 0 8.66699 -1.66699 12 -5s5 -7.33301 5 -12v-3zM410 909.997l-15 -81c-1.33301 -5.33301 -4.16602 -9.83301 -8.49902 -13.5s-9.16602 -5.5 -14.499 -5.5h-39c-4.66699 0 -8.66699 1.33301 -12 4
s-5 6.66699 -5 12v3l15 81c1.33301 5.33301 4.16602 10 8.49902 14s9.16602 6 14.499 6h39c4.66699 0 8.66699 -1.66699 12 -5s5 -7.33301 5 -12v-3z" />
    <glyph glyph-name="Igrave" unicode="&#xcc;" horiz-adv-x="267" 
d="M292 743c12 0 17 -6.33301 15 -19l-124 -704c-2 -13.333 -9.33301 -20 -22 -20h-55c-6.66699 0 -11 2 -13 6s-2.33301 8.66699 -1 14l124 704c1.33301 5.33301 3.33301 9.83301 6 13.5s7.66699 5.5 15 5.5h55zM337 803c0 -6 -3.33301 -9 -10 -9h-54
c-5.33301 0 -9.33301 1.16699 -12 3.5s-5.66699 6.16602 -9 11.499l-90 126c-2 2.66699 -3 5 -3 7c0 5.33301 4 8 12 8h66c6 0 10.5 -1.16699 13.5 -3.5s6.16699 -6.16602 9.5 -11.499l75 -124c1.33301 -2 2 -4.66699 2 -8z" />
    <glyph glyph-name="Iacute" unicode="&#xcd;" horiz-adv-x="267" 
d="M292 743c12 0 17 -6.33301 15 -19l-124 -704c-2 -13.333 -9.33301 -20 -22 -20h-55c-6.66699 0 -11 2 -13 6s-2.33301 8.66699 -1 14l124 704c1.33301 5.33301 3.33301 9.83301 6 13.5s7.66699 5.5 15 5.5h55zM433 944c0 -2.66699 -1.66699 -5.66699 -5 -9l-136 -126
c-5.33301 -5.33301 -9.5 -9.16602 -12.5 -11.499s-7.16699 -3.5 -12.5 -3.5h-54c-5.33301 0 -8 2 -8 6c0 3.33301 2 7 6 11l120 124c5.33301 5.33301 9.5 9.16602 12.5 11.499s7.5 3.5 13.5 3.5h66c6.66699 0 10 -2 10 -6z" />
    <glyph glyph-name="Icircumflex" unicode="&#xce;" horiz-adv-x="267" 
d="M292 743c12 0 17 -6.33301 15 -19l-124 -704c-2 -13.333 -9.33301 -20 -22 -20h-55c-6.66699 0 -11 2 -13 6s-2.33301 8.66699 -1 14l124 704c1.33301 5.33301 3.33301 9.83301 6 13.5s7.66699 5.5 15 5.5h55zM439 803c0 -6 -3.33301 -9 -10 -9h-49
c-5.33301 0 -9.33301 1.16699 -12 3.5s-5.66699 6.16602 -9 11.499l-64 97l-101 -97c-5.33301 -5.33301 -9.5 -9.16602 -12.5 -11.499s-7.16699 -3.5 -12.5 -3.5h-55c-5.33301 0 -8 2 -8 6c0 3.33301 2 7 6 11l118 124c5.33301 5.33301 9.5 9.16602 12.5 11.499
s7.5 3.5 13.5 3.5h85c6 0 10.5 -1.16699 13.5 -3.5s6.16699 -6.16602 9.5 -11.499l73 -124c1.33301 -2 2 -4.66699 2 -8z" />
    <glyph glyph-name="Idieresis" unicode="&#xcf;" horiz-adv-x="267" 
d="M292 743c12 0 17 -6.33301 15 -19l-124 -704c-2 -13.333 -9.33301 -20 -22 -20h-55c-6.66699 0 -11 2 -13 6s-2.33301 8.66699 -1 14l124 704c1.33301 5.33301 3.33301 9.83301 6 13.5s7.66699 5.5 15 5.5h55zM418 909l-15 -81
c-1.33301 -5.33301 -4.16602 -9.83301 -8.49902 -13.5s-9.16602 -5.5 -14.499 -5.5h-39c-4.66699 0 -8.66699 1.33301 -12 4s-5 6.66699 -5 12v3l15 81c1.33301 5.33301 4.16602 10 8.49902 14s9.16602 6 14.499 6h39c4.66699 0 8.66699 -1.66699 12 -5s5 -7.33301 5 -12v-3
zM243 909l-15 -81c-1.33301 -5.33301 -4.16602 -9.83301 -8.49902 -13.5s-9.16602 -5.5 -14.499 -5.5h-39c-4.66699 0 -8.66699 1.33301 -12 4s-5 6.66699 -5 12v3l15 81c1.33301 5.33301 4.16602 10 8.49902 14s9.16602 6 14.499 6h39c4.66699 0 8.66699 -1.66699 12 -5
s5 -7.33301 5 -12v-3z" />
    <glyph glyph-name="Eth" unicode="&#xd0;" horiz-adv-x="641" 
d="M666 516c0 -12 -0.499023 -24.335 -1.49902 -37.002s-2.83301 -26 -5.5 -40l-23 -135c-9.33301 -55.333 -24.333 -102.5 -45 -141.5s-46.167 -71.167 -76.5 -96.5s-65.333 -43.833 -105 -55.5s-83.5 -17.5 -131.5 -17.5c-19.333 0 -38.166 0.333008 -56.499 1
s-35.5 1.5 -51.5 2.5s-30.167 2 -42.5 3s-22.166 2.16699 -29.499 3.5c-12 2 -18 8.33301 -18 19c0 1.33301 0.166992 2.33301 0.5 3s0.5 1.66699 0.5 3l56 319h-37c-10.667 0 -16 5.66699 -16 17v3l6 38c1.33301 5.33301 4.33301 10 9 14s9.66699 6 15 6h37l51 290
c3.33301 14.667 11.666 23 24.999 25c7.33301 1.33301 17.5 2.5 30.5 3.5s27.667 2 44 3s33.833 1.83301 52.5 2.5s37.667 1 57 1c38 0 72.667 -4.83301 104 -14.5s58.166 -24.167 80.499 -43.5s39.666 -43.666 51.999 -72.999s18.5 -63.666 18.5 -102.999zM229.001 346.998
l-47.9961 -274.003c16 -1.33301 32.667 -2 50 -2h61c29.333 0 57.666 4 84.999 12s52.166 21.167 74.499 39.5s41.666 42.333 57.999 72s28.166 66.167 35.499 109.5l23 135c4.66699 25.333 7 49.333 7 72c0 30.667 -4.5 56.334 -13.5 77.001s-21.5 37.334 -37.5 50.001
s-34.833 21.5 -56.5 26.5s-45.167 7.5 -70.5 7.5c-23.333 0 -43.5 -0.166992 -60.5 -0.5s-33.833 -1.16602 -50.5 -2.49902l-43 -244h104c10.667 0 16 -5.66699 16 -17v-3l-6 -38c-1.33301 -5.33301 -4.33301 -10 -9 -14s-9.66699 -6 -15 -6h-104z" />
    <glyph glyph-name="Ntilde" unicode="&#xd1;" horiz-adv-x="680" 
d="M641 724c1.33301 5.33301 3.33398 9.83301 6.00098 13.5s7.66699 5.5 15 5.5h53c5.33301 0 9.16602 -1.5 11.499 -4.5s3.5 -6.5 3.5 -10.5v-4l-123 -695c-1.33301 -8 -4 -14.833 -8 -20.5s-12.667 -8.5 -26 -8.5h-58c-10.667 -0 -17.667 1.33301 -21 4s-6 6.66699 -8 12
l-210 587l-2 3c-1.33301 0 -2 -1 -2 -3l-103 -584c-1.33301 -5.33301 -3.83301 -9.83301 -7.5 -13.5s-8.16699 -5.5 -13.5 -5.5h-58c-8.66699 0 -12 4 -10 12l124 703c1.33301 8 4.5 14.667 9.5 20s13.167 8 24.5 8h49c14 0 23 -1.5 27 -4.5s7.33301 -8.16699 10 -15.5
l208 -579c2 -5.33301 3.33301 -8 4 -8c1.33301 0 2.33301 2.66699 3 8zM670.001 915l-3.99707 -22.999c-6 -34.667 -16.5 -60.834 -31.5 -78.501s-38.5 -26.5 -70.5 -26.5c-11.333 0 -24 1.5 -38 4.5s-26.667 10.167 -38 21.5l-47 44c-10 9.33301 -17.167 15.333 -21.5 18
s-9.5 4 -15.5 4c-22.667 0 -36 -15.333 -40 -46l-3 -21c-0.666992 -4.66699 -2.5 -8.66699 -5.5 -12s-6.83301 -5 -11.5 -5h-34c-8.66699 0 -13 4.66699 -13 14v3l3 21c5.33301 40 17.166 68.167 35.499 84.5s41.166 24.5 68.499 24.5c15.333 0 28.166 -2.33301 38.499 -7
s22.166 -12.667 35.499 -24l54 -49c4.66699 -4 10 -7.33301 16 -10s11.333 -4 16 -4c10 0 18 3 24 9s10.667 17.667 14 35l4 23c1.33301 4.66699 3.33301 8.66699 6 12s6.33398 5 11.001 5h34c8.66699 0 13 -4.66699 13 -14v-3z" />
    <glyph glyph-name="Ograve" unicode="&#xd2;" horiz-adv-x="661" 
d="M686 520c0 -13.333 -0.665039 -26.833 -1.99805 -40.5s-3.33301 -28.167 -6 -43.5l-23 -129c-10 -55.333 -24.5 -102.833 -43.5 -142.5s-42.333 -72.167 -70 -97.5s-59.334 -44 -95.001 -56s-74.5 -18 -116.5 -18c-32 0 -61.667 4.66699 -89 14s-51 23.5 -71 42.5
s-35.667 42.833 -47 71.5s-17 62.667 -17 102c0 13.333 0.666992 26.833 2 40.5s3.33301 28.167 6 43.5l23 129c10.667 59.333 26.167 109 46.5 149s44.666 72.333 72.999 97s60 42.167 95 52.5s72.167 15.5 111.5 15.5c33.333 0 63.666 -4.83301 90.999 -14.5
s50.833 -24.167 70.5 -43.5s34.834 -43.333 45.501 -72s16 -62 16 -100zM594.002 519c0 54.667 -12.668 93.166 -38.001 115.499s-61 33.5 -107 33.5c-55.333 0 -102.166 -18.5 -140.499 -55.5s-64.833 -95.833 -79.5 -176.5l-23 -129c-2.66699 -14 -4.5 -27.333 -5.5 -40
s-1.5 -24.667 -1.5 -36c0 -57.333 12.833 -97.666 38.5 -120.999s61.167 -35 106.5 -35c54.667 0 101.167 18.5 139.5 55.5s64.833 95.833 79.5 176.5l23 129c3.33301 15.333 5.5 30 6.5 44s1.5 27 1.5 39zM538.001 802.999c0 -6 -3.33301 -9 -10 -9h-54
c-5.33301 0 -9.33301 1.16699 -12 3.5s-5.66699 6.16602 -9 11.499l-90 126c-2 2.66699 -3 5 -3 7c0 5.33301 4 8 12 8h66c6 0 10.5 -1.16699 13.5 -3.5s6.16699 -6.16602 9.5 -11.499l75 -124c1.33301 -2 2 -4.66699 2 -8z" />
    <glyph glyph-name="Oacute" unicode="&#xd3;" horiz-adv-x="661" 
d="M686 520c0 -13.333 -0.665039 -26.833 -1.99805 -40.5s-3.33301 -28.167 -6 -43.5l-23 -129c-10 -55.333 -24.5 -102.833 -43.5 -142.5s-42.333 -72.167 -70 -97.5s-59.334 -44 -95.001 -56s-74.5 -18 -116.5 -18c-32 0 -61.667 4.66699 -89 14s-51 23.5 -71 42.5
s-35.667 42.833 -47 71.5s-17 62.667 -17 102c0 13.333 0.666992 26.833 2 40.5s3.33301 28.167 6 43.5l23 129c10.667 59.333 26.167 109 46.5 149s44.666 72.333 72.999 97s60 42.167 95 52.5s72.167 15.5 111.5 15.5c33.333 0 63.666 -4.83301 90.999 -14.5
s50.833 -24.167 70.5 -43.5s34.834 -43.333 45.501 -72s16 -62 16 -100zM594.002 519c0 54.667 -12.668 93.166 -38.001 115.499s-61 33.5 -107 33.5c-55.333 0 -102.166 -18.5 -140.499 -55.5s-64.833 -95.833 -79.5 -176.5l-23 -129c-2.66699 -14 -4.5 -27.333 -5.5 -40
s-1.5 -24.667 -1.5 -36c0 -57.333 12.833 -97.666 38.5 -120.999s61.167 -35 106.5 -35c54.667 0 101.167 18.5 139.5 55.5s64.833 95.833 79.5 176.5l23 129c3.33301 15.333 5.5 30 6.5 44s1.5 27 1.5 39zM623.001 943.999c0 -2.66699 -1.66699 -5.66699 -5 -9l-136 -126
c-5.33301 -5.33301 -9.5 -9.16602 -12.5 -11.499s-7.16699 -3.5 -12.5 -3.5h-54c-5.33301 0 -8 2 -8 6c0 3.33301 2 7 6 11l120 124c5.33301 5.33301 9.5 9.16602 12.5 11.499s7.5 3.5 13.5 3.5h66c6.66699 0 10 -2 10 -6z" />
    <glyph glyph-name="Ocircumflex" unicode="&#xd4;" horiz-adv-x="661" 
d="M686 520c0 -13.333 -0.665039 -26.833 -1.99805 -40.5s-3.33301 -28.167 -6 -43.5l-23 -129c-10 -55.333 -24.5 -102.833 -43.5 -142.5s-42.333 -72.167 -70 -97.5s-59.334 -44 -95.001 -56s-74.5 -18 -116.5 -18c-32 0 -61.667 4.66699 -89 14s-51 23.5 -71 42.5
s-35.667 42.833 -47 71.5s-17 62.667 -17 102c0 13.333 0.666992 26.833 2 40.5s3.33301 28.167 6 43.5l23 129c10.667 59.333 26.167 109 46.5 149s44.666 72.333 72.999 97s60 42.167 95 52.5s72.167 15.5 111.5 15.5c33.333 0 63.666 -4.83301 90.999 -14.5
s50.833 -24.167 70.5 -43.5s34.834 -43.333 45.501 -72s16 -62 16 -100zM594.002 519c0 54.667 -12.668 93.166 -38.001 115.499s-61 33.5 -107 33.5c-55.333 0 -102.166 -18.5 -140.499 -55.5s-64.833 -95.833 -79.5 -176.5l-23 -129c-2.66699 -14 -4.5 -27.333 -5.5 -40
s-1.5 -24.667 -1.5 -36c0 -57.333 12.833 -97.666 38.5 -120.999s61.167 -35 106.5 -35c54.667 0 101.167 18.5 139.5 55.5s64.833 95.833 79.5 176.5l23 129c3.33301 15.333 5.5 30 6.5 44s1.5 27 1.5 39zM639.001 803.999c0 -6 -3.33301 -9 -10 -9h-49
c-5.33301 0 -9.33301 1.16699 -12 3.5s-5.66699 6.16602 -9 11.499l-64 97l-101 -97c-5.33301 -5.33301 -9.5 -9.16602 -12.5 -11.499s-7.16699 -3.5 -12.5 -3.5h-55c-5.33301 0 -8 2 -8 6c0 3.33301 2 7 6 11l118 124c5.33301 5.33301 9.5 9.16602 12.5 11.499
s7.5 3.5 13.5 3.5h85c6 0 10.5 -1.16699 13.5 -3.5s6.16699 -6.16602 9.5 -11.499l73 -124c1.33301 -2 2 -4.66699 2 -8z" />
    <glyph glyph-name="Otilde" unicode="&#xd5;" horiz-adv-x="661" 
d="M686 520c0 -13.333 -0.665039 -26.833 -1.99805 -40.5s-3.33301 -28.167 -6 -43.5l-23 -129c-10 -55.333 -24.5 -102.833 -43.5 -142.5s-42.333 -72.167 -70 -97.5s-59.334 -44 -95.001 -56s-74.5 -18 -116.5 -18c-32 0 -61.667 4.66699 -89 14s-51 23.5 -71 42.5
s-35.667 42.833 -47 71.5s-17 62.667 -17 102c0 13.333 0.666992 26.833 2 40.5s3.33301 28.167 6 43.5l23 129c10.667 59.333 26.167 109 46.5 149s44.666 72.333 72.999 97s60 42.167 95 52.5s72.167 15.5 111.5 15.5c33.333 0 63.666 -4.83301 90.999 -14.5
s50.833 -24.167 70.5 -43.5s34.834 -43.333 45.501 -72s16 -62 16 -100zM594.002 519c0 54.667 -12.668 93.166 -38.001 115.499s-61 33.5 -107 33.5c-55.333 0 -102.166 -18.5 -140.499 -55.5s-64.833 -95.833 -79.5 -176.5l-23 -129c-2.66699 -14 -4.5 -27.333 -5.5 -40
s-1.5 -24.667 -1.5 -36c0 -57.333 12.833 -97.666 38.5 -120.999s61.167 -35 106.5 -35c54.667 0 101.167 18.5 139.5 55.5s64.833 95.833 79.5 176.5l23 129c3.33301 15.333 5.5 30 6.5 44s1.5 27 1.5 39zM673.001 916.999l-3.99707 -22.999
c-6 -34.667 -16.5 -60.834 -31.5 -78.501s-38.5 -26.5 -70.5 -26.5c-11.333 0 -24 1.5 -38 4.5s-26.667 10.167 -38 21.5l-47 44c-10 9.33301 -17.167 15.333 -21.5 18s-9.5 4 -15.5 4c-22.667 0 -36 -15.333 -40 -46l-3 -21c-0.666992 -4.66699 -2.5 -8.66699 -5.5 -12
s-6.83301 -5 -11.5 -5h-34c-8.66699 0 -13 4.66699 -13 14v3l3 21c5.33301 40 17.166 68.167 35.499 84.5s41.166 24.5 68.499 24.5c15.333 0 28.166 -2.33301 38.499 -7s22.166 -12.667 35.499 -24l54 -49c4.66699 -4 10 -7.33301 16 -10s11.333 -4 16 -4c10 0 18 3 24 9
s10.667 17.667 14 35l4 23c1.33301 4.66699 3.33301 8.66699 6 12s6.33398 5 11.001 5h34c8.66699 0 13 -4.66699 13 -14v-3z" />
    <glyph glyph-name="Odieresis" unicode="&#xd6;" horiz-adv-x="661" 
d="M686 520c0 -13.333 -0.665039 -26.833 -1.99805 -40.5s-3.33301 -28.167 -6 -43.5l-23 -129c-10 -55.333 -24.5 -102.833 -43.5 -142.5s-42.333 -72.167 -70 -97.5s-59.334 -44 -95.001 -56s-74.5 -18 -116.5 -18c-32 0 -61.667 4.66699 -89 14s-51 23.5 -71 42.5
s-35.667 42.833 -47 71.5s-17 62.667 -17 102c0 13.333 0.666992 26.833 2 40.5s3.33301 28.167 6 43.5l23 129c10.667 59.333 26.167 109 46.5 149s44.666 72.333 72.999 97s60 42.167 95 52.5s72.167 15.5 111.5 15.5c33.333 0 63.666 -4.83301 90.999 -14.5
s50.833 -24.167 70.5 -43.5s34.834 -43.333 45.501 -72s16 -62 16 -100zM594.002 519c0 54.667 -12.668 93.166 -38.001 115.499s-61 33.5 -107 33.5c-55.333 0 -102.166 -18.5 -140.499 -55.5s-64.833 -95.833 -79.5 -176.5l-23 -129c-2.66699 -14 -4.5 -27.333 -5.5 -40
s-1.5 -24.667 -1.5 -36c0 -57.333 12.833 -97.666 38.5 -120.999s61.167 -35 106.5 -35c54.667 0 101.167 18.5 139.5 55.5s64.833 95.833 79.5 176.5l23 129c3.33301 15.333 5.5 30 6.5 44s1.5 27 1.5 39zM619.001 909.999l-15 -81
c-1.33301 -5.33301 -4.16602 -9.83301 -8.49902 -13.5s-9.16602 -5.5 -14.499 -5.5h-39c-4.66699 0 -8.66699 1.33301 -12 4s-5 6.66699 -5 12v3l15 81c1.33301 5.33301 4.16602 10 8.49902 14s9.16602 6 14.499 6h39c4.66699 0 8.66699 -1.66699 12 -5s5 -7.33301 5 -12v-3
zM444.001 909.999l-15 -81c-1.33301 -5.33301 -4.16602 -9.83301 -8.49902 -13.5s-9.16602 -5.5 -14.499 -5.5h-39c-4.66699 0 -8.66699 1.33301 -12 4s-5 6.66699 -5 12v3l15 81c1.33301 5.33301 4.16602 10 8.49902 14s9.16602 6 14.499 6h39
c4.66699 0 8.66699 -1.66699 12 -5s5 -7.33301 5 -12v-3z" />
    <glyph glyph-name="multiply" unicode="&#xd7;" horiz-adv-x="595" 
d="M568 243c0 -3.33301 -1.66895 -6.66699 -5.00195 -10l-28 -28c-3.33301 -3.33301 -6.66602 -5 -9.99902 -5c-5.33301 0 -10.666 2.66699 -15.999 8l-15 15l-117 117l-131 -131c-5.33301 -5.33301 -10.666 -8 -15.999 -8c-3.33301 0 -6.66602 1.66699 -9.99902 5l-28 28
c-3.33301 3.33301 -5 6.66602 -5 9.99902c0 5.33301 2.66699 10.666 8 15.999l131 131l-131 132c-5.33301 5.33301 -8 10.333 -8 15c0 3.33301 1.66699 6.66602 5 9.99902l28 28c3.33301 3.33301 7 5 11 5c5.33301 0 10.333 -2.33301 15 -7l131 -132l132 132
c5.33301 5.33301 10.666 8 15.999 8c3.33301 0 6.66602 -1.66699 9.99902 -5l28 -28c3.33301 -3.33301 5 -6.66602 5 -9.99902c0 -5.33301 -2.66699 -10.666 -8 -15.999l-132 -132l132 -132c5.33301 -5.33301 8 -10.666 8 -15.999z" />
    <glyph glyph-name="Oslash" unicode="&#xd8;" horiz-adv-x="661" 
d="M766 742c0 -4 -1.66699 -7.66797 -5 -11.001l-94 -105c6 -15.333 10.667 -31.666 14 -48.999s5 -36.333 5 -57c0 -13.333 -0.666992 -26.833 -2 -40.5s-3.33301 -28.167 -6 -43.5l-23 -129c-10 -55.333 -24.5 -102.833 -43.5 -142.5s-42.333 -72.167 -70 -97.5
s-59.334 -44 -95.001 -56s-74.5 -18 -116.5 -18c-34.667 0 -66.5 5.33301 -95.5 16s-53.5 27 -73.5 49l-50 -55c-3.33301 -4 -6.16602 -6.66699 -8.49902 -8s-6.16602 -2 -11.499 -2h-53c-6 0 -9 3 -9 9c0 4 1.33301 7.33301 4 10l92 103c-12.667 31.333 -19 67.333 -19 108
c0 13.333 0.666992 26.833 2 40.5s3.33301 28.167 6 43.5l23 129c10.667 59.333 26.167 109 46.5 149s44.666 72.333 72.999 97s60 42.167 95 52.5s72.167 15.5 111.5 15.5c36 0 68.333 -5.66699 97 -17s52.667 -28 72 -50l51 57c6 6.66699 13.333 10 22 10h52
c6 0 9 -2.66699 9 -8zM571 614.999c-12 19.333 -28.334 33 -49.001 41s-45 12 -73 12c-55.333 0 -102.166 -18.5 -140.499 -55.5s-64.833 -95.833 -79.5 -176.5l-23 -129c-2.66699 -14 -4.5 -27.333 -5.5 -40s-1.5 -24.667 -1.5 -36c0 -5.33301 0.166992 -10.5 0.5 -15.5
s0.833008 -10.167 1.5 -15.5zM593.999 518.999v12c0 4 -0.333008 8 -1 12l-370 -415c12 -19.333 28.167 -33 48.5 -41s44.5 -12 72.5 -12c54.667 0 101.167 18.5 139.5 55.5s64.833 95.833 79.5 176.5l23 129c3.33301 15.333 5.5 30 6.5 44s1.5 27 1.5 39z" />
    <glyph glyph-name="Ugrave" unicode="&#xd9;" horiz-adv-x="662" 
d="M699 743c5.33301 0 9.66309 -1.33398 12.9961 -4.00098s4.33301 -7.66699 3 -15l-80 -454c-17.333 -98.667 -51.166 -169.5 -101.499 -212.5s-118.166 -64.5 -203.499 -64.5c-66 0 -118.167 17 -156.5 51s-57.5 85 -57.5 153c0 11.333 0.5 23 1.5 35
s2.83301 24.667 5.5 38l80 454c1.33301 5.33301 3.5 9.83301 6.5 13.5s8.16699 5.5 15.5 5.5h54c5.33301 0 9.66602 -1.33301 12.999 -4s4.33301 -7.66699 3 -15l-80 -454c-2.66699 -13.333 -4.66699 -25.833 -6 -37.5s-2 -23.167 -2 -34.5c0 -42 10.5 -73.667 31.5 -95
s56.167 -32 105.5 -32c30.667 0 57.334 4.33301 80.001 13s41.834 21.334 57.501 38.001s28.334 37.5 38.001 62.5s17.5 53.5 23.5 85.5l80 454c1.33301 5.33301 3.33301 9.83301 6 13.5s8 5.5 16 5.5h54zM530.997 802.999c0 -6 -3.33301 -9 -10 -9h-54
c-5.33301 0 -9.33301 1.16699 -12 3.5s-5.66699 6.16602 -9 11.499l-90 126c-2 2.66699 -3 5 -3 7c0 5.33301 4 8 12 8h66c6 0 10.5 -1.16699 13.5 -3.5s6.16699 -6.16602 9.5 -11.499l75 -124c1.33301 -2 2 -4.66699 2 -8z" />
    <glyph glyph-name="Uacute" unicode="&#xda;" horiz-adv-x="662" 
d="M699 743c5.33301 0 9.66309 -1.33398 12.9961 -4.00098s4.33301 -7.66699 3 -15l-80 -454c-17.333 -98.667 -51.166 -169.5 -101.499 -212.5s-118.166 -64.5 -203.499 -64.5c-66 0 -118.167 17 -156.5 51s-57.5 85 -57.5 153c0 11.333 0.5 23 1.5 35
s2.83301 24.667 5.5 38l80 454c1.33301 5.33301 3.5 9.83301 6.5 13.5s8.16699 5.5 15.5 5.5h54c5.33301 0 9.66602 -1.33301 12.999 -4s4.33301 -7.66699 3 -15l-80 -454c-2.66699 -13.333 -4.66699 -25.833 -6 -37.5s-2 -23.167 -2 -34.5c0 -42 10.5 -73.667 31.5 -95
s56.167 -32 105.5 -32c30.667 0 57.334 4.33301 80.001 13s41.834 21.334 57.501 38.001s28.334 37.5 38.001 62.5s17.5 53.5 23.5 85.5l80 454c1.33301 5.33301 3.33301 9.83301 6 13.5s8 5.5 16 5.5h54zM639.997 943.999c0 -2.66699 -1.66699 -5.66699 -5 -9l-136 -126
c-5.33301 -5.33301 -9.5 -9.16602 -12.5 -11.499s-7.16699 -3.5 -12.5 -3.5h-54c-5.33301 0 -8 2 -8 6c0 3.33301 2 7 6 11l120 124c5.33301 5.33301 9.5 9.16602 12.5 11.499s7.5 3.5 13.5 3.5h66c6.66699 0 10 -2 10 -6z" />
    <glyph glyph-name="Ucircumflex" unicode="&#xdb;" horiz-adv-x="662" 
d="M699 743c5.33301 0 9.66309 -1.33398 12.9961 -4.00098s4.33301 -7.66699 3 -15l-80 -454c-17.333 -98.667 -51.166 -169.5 -101.499 -212.5s-118.166 -64.5 -203.499 -64.5c-66 0 -118.167 17 -156.5 51s-57.5 85 -57.5 153c0 11.333 0.5 23 1.5 35
s2.83301 24.667 5.5 38l80 454c1.33301 5.33301 3.5 9.83301 6.5 13.5s8.16699 5.5 15.5 5.5h54c5.33301 0 9.66602 -1.33301 12.999 -4s4.33301 -7.66699 3 -15l-80 -454c-2.66699 -13.333 -4.66699 -25.833 -6 -37.5s-2 -23.167 -2 -34.5c0 -42 10.5 -73.667 31.5 -95
s56.167 -32 105.5 -32c30.667 0 57.334 4.33301 80.001 13s41.834 21.334 57.501 38.001s28.334 37.5 38.001 62.5s17.5 53.5 23.5 85.5l80 454c1.33301 5.33301 3.33301 9.83301 6 13.5s8 5.5 16 5.5h54zM632.997 802.999c0 -6 -3.33301 -9 -10 -9h-49
c-5.33301 0 -9.33301 1.16699 -12 3.5s-5.66699 6.16602 -9 11.499l-64 97l-101 -97c-5.33301 -5.33301 -9.5 -9.16602 -12.5 -11.499s-7.16699 -3.5 -12.5 -3.5h-55c-5.33301 0 -8 2 -8 6c0 3.33301 2 7 6 11l118 124c5.33301 5.33301 9.5 9.16602 12.5 11.499
s7.5 3.5 13.5 3.5h85c6 0 10.5 -1.16699 13.5 -3.5s6.16699 -6.16602 9.5 -11.499l73 -124c1.33301 -2 2 -4.66699 2 -8z" />
    <glyph glyph-name="Udieresis" unicode="&#xdc;" horiz-adv-x="662" 
d="M699 743c5.33301 0 9.66309 -1.33398 12.9961 -4.00098s4.33301 -7.66699 3 -15l-80 -454c-17.333 -98.667 -51.166 -169.5 -101.499 -212.5s-118.166 -64.5 -203.499 -64.5c-66 0 -118.167 17 -156.5 51s-57.5 85 -57.5 153c0 11.333 0.5 23 1.5 35
s2.83301 24.667 5.5 38l80 454c1.33301 5.33301 3.5 9.83301 6.5 13.5s8.16699 5.5 15.5 5.5h54c5.33301 0 9.66602 -1.33301 12.999 -4s4.33301 -7.66699 3 -15l-80 -454c-2.66699 -13.333 -4.66699 -25.833 -6 -37.5s-2 -23.167 -2 -34.5c0 -42 10.5 -73.667 31.5 -95
s56.167 -32 105.5 -32c30.667 0 57.334 4.33301 80.001 13s41.834 21.334 57.501 38.001s28.334 37.5 38.001 62.5s17.5 53.5 23.5 85.5l80 454c1.33301 5.33301 3.33301 9.83301 6 13.5s8 5.5 16 5.5h54zM611.997 909.999l-15 -81
c-1.33301 -5.33301 -4.16602 -9.83301 -8.49902 -13.5s-9.16602 -5.5 -14.499 -5.5h-39c-4.66699 0 -8.66699 1.33301 -12 4s-5 6.66699 -5 12v3l15 81c1.33301 5.33301 4.16602 10 8.49902 14s9.16602 6 14.499 6h39c4.66699 0 8.66699 -1.66699 12 -5s5 -7.33301 5 -12v-3
zM436.997 909.999l-15 -81c-1.33301 -5.33301 -4.16602 -9.83301 -8.49902 -13.5s-9.16602 -5.5 -14.499 -5.5h-39c-4.66699 0 -8.66699 1.33301 -12 4s-5 6.66699 -5 12v3l15 81c1.33301 5.33301 4.16602 10 8.49902 14s9.16602 6 14.499 6h39
c4.66699 0 8.66699 -1.66699 12 -5s5 -7.33301 5 -12v-3z" />
    <glyph glyph-name="Yacute" unicode="&#xdd;" horiz-adv-x="583" 
d="M677 731c0 -3.33301 -1.66797 -7.66602 -5.00098 -12.999l-217 -348c-12.667 -20 -24.167 -35 -34.5 -45s-20.5 -17 -30.5 -21l-50 -284c-1.33301 -5.33301 -3.33301 -10 -6 -14s-8 -6 -16 -6h-55c-11.333 0 -16 6.66699 -14 20l50 284
c-8.66699 3.33301 -16.667 10.166 -24 20.499s-13.666 25.5 -18.999 45.5l-92 348c-4.66699 16.667 1.33301 25 18 25h58c5.33301 0 9 -1.5 11 -4.5s3.66699 -6.16699 5 -9.5l80 -324c3.33301 -11.333 6.5 -18.5 9.5 -21.5s6.16699 -4.5 9.5 -4.5s6.83301 1.5 10.5 4.5
s9.16699 10.167 16.5 21.5l197 324c3.33301 5.33301 6.5 9 9.5 11s8.16699 3 15.5 3h58c10 0 15 -4 15 -12zM603.999 944c0 -2.66699 -1.66699 -5.66699 -5 -9l-136 -126c-5.33301 -5.33301 -9.5 -9.16602 -12.5 -11.499s-7.16699 -3.5 -12.5 -3.5h-54c-5.33301 0 -8 2 -8 6
c0 3.33301 2 7 6 11l120 124c5.33301 5.33301 9.5 9.16602 12.5 11.499s7.5 3.5 13.5 3.5h66c6.66699 0 10 -2 10 -6z" />
    <glyph glyph-name="Thorn" unicode="&#xde;" horiz-adv-x="593" 
d="M629 482c0 -37.333 -5.33496 -72.999 -16.002 -106.999s-28.5 -64 -53.5 -90s-57.667 -46.667 -98 -62s-89.833 -23 -148.5 -23c-46 0 -83 1 -111 3l-32 -183c-1.33301 -5.33301 -3.16602 -10 -5.49902 -14s-7.5 -6 -15.5 -6h-56c-11.333 0 -16 6.66699 -14 20l124 704
c1.33301 5.33301 3.16602 9.83301 5.49902 13.5s7.5 5.5 15.5 5.5h56c11.333 0 16 -6.33301 14 -19l-13 -69c22.667 1.33301 40.834 2.16602 54.501 2.49902s27.834 0.5 42.501 0.5c38 0 72.5 -3.16699 103.5 -9.5s57.333 -16.5 79 -30.5s38.5 -32.167 50.5 -54.5
s18 -49.5 18 -81.5zM535.998 479.001c0 38.667 -14.833 64.999 -44.5 78.999s-71.5 21 -125.5 21h-44.5c-13.667 0 -31.5 -0.666992 -53.5 -2l-52 -296c6 0 13.167 -0.166992 21.5 -0.5s17.166 -0.666016 26.499 -0.999023l27.5 -1c9 -0.333008 16.833 -0.5 23.5 -0.5
c72.667 0 127.334 17 164.001 51s55.667 83.667 57 149v1z" />
    <glyph glyph-name="germandbls" unicode="&#xdf;" horiz-adv-x="581" 
d="M613 599c0 -48 -11.4971 -89.665 -34.4971 -124.998s-57.5 -62 -103.5 -80c30.667 -12.667 54 -32.167 70 -58.5s24 -54.5 24 -84.5c0 -41.333 -7.16699 -78 -21.5 -110s-34 -59 -59 -81s-54.667 -38.667 -89 -50s-71.166 -17 -110.499 -17
c-7.33301 0 -14.666 0.166992 -21.999 0.5s-16 1.16602 -26 2.49902c-10.667 1.33301 -16 6.66602 -16 15.999v2v1l7 41c0.666992 7.33301 5 11 13 11c6.66699 0 14.167 -0.166992 22.5 -0.5s15.166 -0.5 20.499 -0.5c61.333 0 108.666 15.333 141.999 46
s50 77.334 50 140.001c0 32 -10.833 57.5 -32.5 76.5s-55.5 28.5 -101.5 28.5h-37c-11.333 0 -17 5.33301 -17 16v4l6 29c1.33301 5.33301 4.16602 10 8.49902 14s9.16602 6 14.499 6h37c52 0 92.833 14.833 122.5 44.5s44.5 70.167 44.5 121.5
c0 28.667 -8.83301 50.667 -26.5 66s-46.5 23 -86.5 23c-46.667 0 -83.667 -13.167 -111 -39.5s-46 -68.833 -56 -127.5l-87 -493c-1.33301 -5.33301 -4 -10.166 -8 -14.499s-8.66699 -6.5 -14 -6.5h-53c-5.33301 0 -9 1.66699 -11 5s-3 7.33301 -3 12v4l87 493
c15.333 88 46.166 150.667 92.499 188s105.5 56 177.5 56c26.667 0 51.5 -3.33301 74.5 -10s42.833 -16.834 59.5 -30.501s29.667 -30.334 39 -50.001s14 -42.5 14 -68.5z" />
    <glyph glyph-name="agrave" unicode="&#xe0;" horiz-adv-x="527" 
d="M358 557c30 0 60.3301 -2.16699 90.9971 -6.5s58.667 -9.83301 84 -16.5c9.33301 -2 14.833 -4.66699 16.5 -8s1.83398 -8.33301 0.500977 -15l-86 -491c-1.33301 -5.33301 -3.5 -10 -6.5 -14s-8.5 -6 -16.5 -6h-40c-7.33301 -0 -12 1.83301 -14 5.5
s-2.33301 9.16699 -1 16.5l5 31c-14.667 -10.667 -28.167 -19.667 -40.5 -27s-24.666 -13.5 -36.999 -18.5s-25.166 -8.66699 -38.499 -11s-28.333 -3.5 -45 -3.5c-21.333 0 -41.5 3.5 -60.5 10.5s-35.5 17.667 -49.5 32s-25.167 32.666 -33.5 54.999
s-12.5 48.833 -12.5 79.5c0 18.667 2 38.667 6 60l18 99c8 43.333 20.333 79.5 37 108.5s36.5 52.333 59.5 70s48.5 30.334 76.5 38.001s57 11.5 87 11.5zM454.997 473c-13.333 2.66699 -27.501 5 -42.501 7s-33.167 3 -54.5 3c-52 0 -91.667 -13.833 -119 -41.5
s-45.666 -68.167 -54.999 -121.5l-18 -103c-1.33301 -7.33301 -2.33301 -15 -3 -23s-1 -15.667 -1 -23c0 -38.667 8.5 -65.667 25.5 -81s37.5 -23 61.5 -23c23.333 0 46.333 5 69 15s48 24.333 76 43zM449.996 632c0 -6 -3.33301 -9 -10 -9h-54
c-5.33301 0 -9.33301 1.16699 -12 3.5s-5.66699 6.16602 -9 11.499l-90 126c-2 2.66699 -3 5 -3 7c0 5.33301 4 8 12 8h66c6 0 10.5 -1.16699 13.5 -3.5s6.16699 -6.16602 9.5 -11.499l75 -124c1.33301 -2 2 -4.66699 2 -8z" />
    <glyph glyph-name="aacute" unicode="&#xe1;" horiz-adv-x="527" 
d="M358 557c30 0 60.3301 -2.16699 90.9971 -6.5s58.667 -9.83301 84 -16.5c9.33301 -2 14.833 -4.66699 16.5 -8s1.83398 -8.33301 0.500977 -15l-86 -491c-1.33301 -5.33301 -3.5 -10 -6.5 -14s-8.5 -6 -16.5 -6h-40c-7.33301 -0 -12 1.83301 -14 5.5
s-2.33301 9.16699 -1 16.5l5 31c-14.667 -10.667 -28.167 -19.667 -40.5 -27s-24.666 -13.5 -36.999 -18.5s-25.166 -8.66699 -38.499 -11s-28.333 -3.5 -45 -3.5c-21.333 0 -41.5 3.5 -60.5 10.5s-35.5 17.667 -49.5 32s-25.167 32.666 -33.5 54.999
s-12.5 48.833 -12.5 79.5c0 18.667 2 38.667 6 60l18 99c8 43.333 20.333 79.5 37 108.5s36.5 52.333 59.5 70s48.5 30.334 76.5 38.001s57 11.5 87 11.5zM454.997 473c-13.333 2.66699 -27.501 5 -42.501 7s-33.167 3 -54.5 3c-52 0 -91.667 -13.833 -119 -41.5
s-45.666 -68.167 -54.999 -121.5l-18 -103c-1.33301 -7.33301 -2.33301 -15 -3 -23s-1 -15.667 -1 -23c0 -38.667 8.5 -65.667 25.5 -81s37.5 -23 61.5 -23c23.333 0 46.333 5 69 15s48 24.333 76 43zM557.996 773c0 -2.66699 -1.66699 -5.66699 -5 -9l-136 -126
c-5.33301 -5.33301 -9.5 -9.16602 -12.5 -11.499s-7.16699 -3.5 -12.5 -3.5h-54c-5.33301 0 -8 2 -8 6c0 3.33301 2 7 6 11l120 124c5.33301 5.33301 9.5 9.16602 12.5 11.499s7.5 3.5 13.5 3.5h66c6.66699 0 10 -2 10 -6z" />
    <glyph glyph-name="acircumflex" unicode="&#xe2;" horiz-adv-x="527" 
d="M358 557c30 0 60.3301 -2.16699 90.9971 -6.5s58.667 -9.83301 84 -16.5c9.33301 -2 14.833 -4.66699 16.5 -8s1.83398 -8.33301 0.500977 -15l-86 -491c-1.33301 -5.33301 -3.5 -10 -6.5 -14s-8.5 -6 -16.5 -6h-40c-7.33301 -0 -12 1.83301 -14 5.5
s-2.33301 9.16699 -1 16.5l5 31c-14.667 -10.667 -28.167 -19.667 -40.5 -27s-24.666 -13.5 -36.999 -18.5s-25.166 -8.66699 -38.499 -11s-28.333 -3.5 -45 -3.5c-21.333 0 -41.5 3.5 -60.5 10.5s-35.5 17.667 -49.5 32s-25.167 32.666 -33.5 54.999
s-12.5 48.833 -12.5 79.5c0 18.667 2 38.667 6 60l18 99c8 43.333 20.333 79.5 37 108.5s36.5 52.333 59.5 70s48.5 30.334 76.5 38.001s57 11.5 87 11.5zM454.997 473c-13.333 2.66699 -27.501 5 -42.501 7s-33.167 3 -54.5 3c-52 0 -91.667 -13.833 -119 -41.5
s-45.666 -68.167 -54.999 -121.5l-18 -103c-1.33301 -7.33301 -2.33301 -15 -3 -23s-1 -15.667 -1 -23c0 -38.667 8.5 -65.667 25.5 -81s37.5 -23 61.5 -23c23.333 0 46.333 5 69 15s48 24.333 76 43zM550.996 632c0 -6 -3.33301 -9 -10 -9h-49
c-5.33301 0 -9.33301 1.16699 -12 3.5s-5.66699 6.16602 -9 11.499l-64 97l-101 -97c-5.33301 -5.33301 -9.5 -9.16602 -12.5 -11.499s-7.16699 -3.5 -12.5 -3.5h-55c-5.33301 0 -8 2 -8 6c0 3.33301 2 7 6 11l118 124c5.33301 5.33301 9.5 9.16602 12.5 11.499
s7.5 3.5 13.5 3.5h85c6 0 10.5 -1.16699 13.5 -3.5s6.16699 -6.16602 9.5 -11.499l73 -124c1.33301 -2 2 -4.66699 2 -8z" />
    <glyph glyph-name="atilde" unicode="&#xe3;" horiz-adv-x="527" 
d="M358 557c30 0 60.3301 -2.16699 90.9971 -6.5s58.667 -9.83301 84 -16.5c9.33301 -2 14.833 -4.66699 16.5 -8s1.83398 -8.33301 0.500977 -15l-86 -491c-1.33301 -5.33301 -3.5 -10 -6.5 -14s-8.5 -6 -16.5 -6h-40c-7.33301 -0 -12 1.83301 -14 5.5
s-2.33301 9.16699 -1 16.5l5 31c-14.667 -10.667 -28.167 -19.667 -40.5 -27s-24.666 -13.5 -36.999 -18.5s-25.166 -8.66699 -38.499 -11s-28.333 -3.5 -45 -3.5c-21.333 0 -41.5 3.5 -60.5 10.5s-35.5 17.667 -49.5 32s-25.167 32.666 -33.5 54.999
s-12.5 48.833 -12.5 79.5c0 18.667 2 38.667 6 60l18 99c8 43.333 20.333 79.5 37 108.5s36.5 52.333 59.5 70s48.5 30.334 76.5 38.001s57 11.5 87 11.5zM454.997 473c-13.333 2.66699 -27.501 5 -42.501 7s-33.167 3 -54.5 3c-52 0 -91.667 -13.833 -119 -41.5
s-45.666 -68.167 -54.999 -121.5l-18 -103c-1.33301 -7.33301 -2.33301 -15 -3 -23s-1 -15.667 -1 -23c0 -38.667 8.5 -65.667 25.5 -81s37.5 -23 61.5 -23c23.333 0 46.333 5 69 15s48 24.333 76 43zM578.996 754l-3.99707 -22.999c-6 -34.667 -16.5 -60.834 -31.5 -78.501
s-38.5 -26.5 -70.5 -26.5c-11.333 0 -24 1.5 -38 4.5s-26.667 10.167 -38 21.5l-47 44c-10 9.33301 -17.167 15.333 -21.5 18s-9.5 4 -15.5 4c-22.667 0 -36 -15.333 -40 -46l-3 -21c-0.666992 -4.66699 -2.5 -8.66699 -5.5 -12s-6.83301 -5 -11.5 -5h-34
c-8.66699 0 -13 4.66699 -13 14v3l3 21c5.33301 40 17.166 68.167 35.499 84.5s41.166 24.5 68.499 24.5c15.333 0 28.166 -2.33301 38.499 -7s22.166 -12.667 35.499 -24l54 -49c4.66699 -4 10 -7.33301 16 -10s11.333 -4 16 -4c10 0 18 3 24 9s10.667 17.667 14 35l4 23
c1.33301 4.66699 3.33301 8.66699 6 12s6.33398 5 11.001 5h34c8.66699 0 13 -4.66699 13 -14v-3z" />
    <glyph glyph-name="adieresis" unicode="&#xe4;" horiz-adv-x="527" 
d="M358 557c30 0 60.3301 -2.16699 90.9971 -6.5s58.667 -9.83301 84 -16.5c9.33301 -2 14.833 -4.66699 16.5 -8s1.83398 -8.33301 0.500977 -15l-86 -491c-1.33301 -5.33301 -3.5 -10 -6.5 -14s-8.5 -6 -16.5 -6h-40c-7.33301 -0 -12 1.83301 -14 5.5
s-2.33301 9.16699 -1 16.5l5 31c-14.667 -10.667 -28.167 -19.667 -40.5 -27s-24.666 -13.5 -36.999 -18.5s-25.166 -8.66699 -38.499 -11s-28.333 -3.5 -45 -3.5c-21.333 0 -41.5 3.5 -60.5 10.5s-35.5 17.667 -49.5 32s-25.167 32.666 -33.5 54.999
s-12.5 48.833 -12.5 79.5c0 18.667 2 38.667 6 60l18 99c8 43.333 20.333 79.5 37 108.5s36.5 52.333 59.5 70s48.5 30.334 76.5 38.001s57 11.5 87 11.5zM454.997 473c-13.333 2.66699 -27.501 5 -42.501 7s-33.167 3 -54.5 3c-52 0 -91.667 -13.833 -119 -41.5
s-45.666 -68.167 -54.999 -121.5l-18 -103c-1.33301 -7.33301 -2.33301 -15 -3 -23s-1 -15.667 -1 -23c0 -38.667 8.5 -65.667 25.5 -81s37.5 -23 61.5 -23c23.333 0 46.333 5 69 15s48 24.333 76 43zM528.996 741l-15 -81
c-1.33301 -5.33301 -4.16602 -9.83301 -8.49902 -13.5s-9.16602 -5.5 -14.499 -5.5h-39c-4.66699 0 -8.66699 1.33301 -12 4s-5 6.66699 -5 12v3l15 81c1.33301 5.33301 4.16602 10 8.49902 14s9.16602 6 14.499 6h39c4.66699 0 8.66699 -1.66699 12 -5s5 -7.33301 5 -12v-3
zM353.996 741l-15 -81c-1.33301 -5.33301 -4.16602 -9.83301 -8.49902 -13.5s-9.16602 -5.5 -14.499 -5.5h-39c-4.66699 0 -8.66699 1.33301 -12 4s-5 6.66699 -5 12v3l15 81c1.33301 5.33301 4.16602 10 8.49902 14s9.16602 6 14.499 6h39
c4.66699 0 8.66699 -1.66699 12 -5s5 -7.33301 5 -12v-3z" />
    <glyph glyph-name="aring" unicode="&#xe5;" horiz-adv-x="527" 
d="M358 557c30 0 60.3301 -2.16699 90.9971 -6.5s58.667 -9.83301 84 -16.5c9.33301 -2 14.833 -4.66699 16.5 -8s1.83398 -8.33301 0.500977 -15l-86 -491c-1.33301 -5.33301 -3.5 -10 -6.5 -14s-8.5 -6 -16.5 -6h-40c-7.33301 -0 -12 1.83301 -14 5.5
s-2.33301 9.16699 -1 16.5l5 31c-14.667 -10.667 -28.167 -19.667 -40.5 -27s-24.666 -13.5 -36.999 -18.5s-25.166 -8.66699 -38.499 -11s-28.333 -3.5 -45 -3.5c-21.333 0 -41.5 3.5 -60.5 10.5s-35.5 17.667 -49.5 32s-25.167 32.666 -33.5 54.999
s-12.5 48.833 -12.5 79.5c0 18.667 2 38.667 6 60l18 99c8 43.333 20.333 79.5 37 108.5s36.5 52.333 59.5 70s48.5 30.334 76.5 38.001s57 11.5 87 11.5zM454.997 473c-13.333 2.66699 -27.501 5 -42.501 7s-33.167 3 -54.5 3c-52 0 -91.667 -13.833 -119 -41.5
s-45.666 -68.167 -54.999 -121.5l-18 -103c-1.33301 -7.33301 -2.33301 -15 -3 -23s-1 -15.667 -1 -23c0 -38.667 8.5 -65.667 25.5 -81s37.5 -23 61.5 -23c23.333 0 46.333 5 69 15s48 24.333 76 43zM502.996 703c0 -14 -2.66699 -27.167 -8 -39.5s-12.5 -23 -21.5 -32
s-19.667 -16.167 -32 -21.5s-25.5 -8 -39.5 -8s-27.167 2.66699 -39.5 8s-23.166 12.5 -32.499 21.5s-16.666 19.667 -21.999 32s-8 25.5 -8 39.5s2.66699 27.167 8 39.5s12.666 23.166 21.999 32.499s20.166 16.666 32.499 21.999s25.5 8 39.5 8s27.167 -2.66699 39.5 -8
s23 -12.666 32 -21.999s16.167 -20.166 21.5 -32.499s8 -25.5 8 -39.5zM454.996 704c0 14.667 -5.16699 27 -15.5 37s-22.833 15 -37.5 15s-27 -5 -37 -15s-15 -22.333 -15 -37s5 -27.167 15 -37.5s22.333 -15.5 37 -15.5s27.167 5.16699 37.5 15.5s15.5 22.833 15.5 37.5z
" />
    <glyph glyph-name="ae" unicode="&#xe6;" horiz-adv-x="853" 
d="M862 368c0 -6 -0.331055 -13.1729 -0.998047 -21.5059s-1.5 -17.166 -2.5 -26.499s-2.33301 -18.5 -4 -27.5s-3.5 -16.833 -5.5 -23.5s-4.5 -12 -7.5 -16s-7.5 -6 -13.5 -6h-333l-6 -32c-1.33301 -9.33301 -2.5 -18 -3.5 -26s-1.5 -15.667 -1.5 -23
c0 -40 10.5 -66.5 31.5 -79.5s52.167 -19.5 93.5 -19.5c29.333 0 59.666 1.5 90.999 4.5s58.666 6.16699 81.999 9.5h2h3c3.33301 0 6.5 -0.833008 9.5 -2.5s4.5 -4.5 4.5 -8.5v-2v-1l-6 -34c-1.33301 -7.33301 -3.5 -12.666 -6.5 -15.999s-8.83301 -5.66602 -17.5 -6.99902
c-30 -5.33301 -59 -9.5 -87 -12.5s-59 -4.5 -93 -4.5s-64 4.33301 -90 13s-48 24.334 -66 47.001c-12 -8 -25.5 -15.667 -40.5 -23s-31.167 -13.833 -48.5 -19.5s-35.333 -10 -54 -13s-37 -4.5 -55 -4.5c-20 0 -39.667 2.66699 -59 8s-36.666 13.5 -51.999 24.5
s-27.666 25.333 -36.999 43s-14 38.834 -14 63.501v11c0 6.66699 0.333008 11.667 1 15l1 9c3.33301 28.667 10.666 53.167 21.999 73.5s27.5 37 48.5 50s47.5 22.667 79.5 29s70.333 9.5 115 9.5h80l7 40c1.33301 8 2.33301 15.667 3 23s1 14 1 20
c0 27.333 -7 45.833 -21 55.5s-37.667 14.5 -71 14.5c-32.667 0 -61.334 -0.833008 -86.001 -2.5s-47.334 -3.5 -68.001 -5.5h-4c-4.66699 0 -8.66699 0.833008 -12 2.5s-5 4.83398 -5 9.50098v4l7 35c2 10.667 10 17 24 19c21.333 3.33301 44.333 6.33301 69 9s54 4 88 4
c41.333 0 73.5 -6 96.5 -18s40.167 -29.667 51.5 -53c25.333 27.333 52.166 46 80.499 56s61.833 15 100.5 15c30.667 0 57.334 -4.83301 80.001 -14.5s41.334 -23 56.001 -40s25.5 -37 32.5 -60s10.5 -47.833 10.5 -74.5zM778.002 375.994
c0 37.333 -8.99902 64.499 -26.999 81.499s-45 25.5 -81 25.5c-44 0 -79.667 -14.5 -107 -43.5s-46 -69.167 -56 -120.5l-1 -5h266c1.33301 7.33301 2.66602 16.833 3.99902 28.5s2 22.834 2 33.501zM336.003 264.993c-30 0 -55.5 -1.83203 -76.5 -5.49902
s-38 -9.33398 -51 -17.001s-22.833 -17.667 -29.5 -30s-11 -27.5 -13 -45.5l-1 -9c-0.666992 -2.66699 -1 -5.16699 -1 -7.5v-6.5v-10c0 -26.667 8.16699 -45.167 24.5 -55.5s39.5 -15.5 69.5 -15.5c23.333 0 46.333 3 69 9s40.667 13.333 54 22l30 171h-75z" />
    <glyph glyph-name="ccedilla" unicode="&#xe7;" horiz-adv-x="452" 
d="M498 531c0 -1.33301 -0.166992 -2.50098 -0.5 -3.50098s-0.5 -2.16699 -0.5 -3.5l-6 -36c-1.33301 -5.33301 -4 -9.16602 -8 -11.499s-8.33301 -3.5 -13 -3.5h-3c-21.333 2.66699 -40.833 4.5 -58.5 5.5s-38.834 1.5 -63.501 1.5c-40 0 -73.667 -14.667 -101 -44
s-45.333 -70 -54 -122l-13 -78c-4 -23.333 -6 -43.333 -6 -60c0 -38 8.66699 -65.167 26 -81.5s42.333 -24.5 75 -24.5c24.667 0 46.334 0.5 65.001 1.5s39 2.83301 61 5.5h3c4 0 7.5 -1 10.5 -3s4.5 -5 4.5 -9v-3l-6 -36c-1.33301 -7.33301 -3.66602 -12.5 -6.99902 -15.5
s-9 -5.16699 -17 -6.5c-17.333 -3.33301 -37 -6 -59 -8s-44.667 -3 -68 -3c-29.333 0 -55 4.83301 -77 14.5s-40.167 22.834 -54.5 39.501s-25.166 36.5 -32.499 59.5s-11 47.833 -11 74.5c0 9.33301 0.5 18.5 1.5 27.5s2.16699 18.167 3.5 27.5l13 78
c13.333 81.333 42.166 142.166 86.499 182.499s100.833 60.5 169.5 60.5c23.333 0 45.666 -1 66.999 -3s40 -4.66699 56 -8c11.333 -2 17 -7 17 -15zM312 -38.001c0 -2.66699 -1.66602 -5.66699 -4.99902 -9l-136 -126c-5.33301 -5.33301 -9.5 -9.16602 -12.5 -11.499
s-7.16699 -3.5 -12.5 -3.5h-54c-5.33301 0 -8 2 -8 6c0 3.33301 2 7 6 11l119 124c5.33301 5.33301 9.66602 9.16602 12.999 11.499s8 3.5 14 3.5h66c6.66699 0 10 -2 10 -6z" />
    <glyph glyph-name="egrave" unicode="&#xe8;" horiz-adv-x="544" 
d="M555 371c0 -19.333 -1.99707 -39.335 -5.99707 -60.002l-8 -42c-1.33301 -6.66699 -3.5 -12 -6.5 -16s-8.16699 -6 -15.5 -6h-337l-2 -12c-4 -23.333 -6 -43.666 -6 -60.999c0 -38 11 -65.333 33 -82s52.333 -25 91 -25c29.333 0 59.666 1.5 90.999 4.5
s58.666 6.16699 81.999 9.5c14.667 2 21 -2.66699 19 -14l-6 -34c-1.33301 -7.33301 -3.5 -12.666 -6.5 -15.999s-8.83301 -5.66602 -17.5 -6.99902c-30 -5.33301 -58.167 -9.5 -84.5 -12.5s-56.5 -4.5 -90.5 -4.5c-24.667 0 -48.834 3.33301 -72.501 10
s-44.667 17.334 -63 32.001s-33.166 33.667 -44.499 57s-17 52 -17 86c0 19.333 2 40 6 62l13 70c15.333 80 45.5 141.167 90.5 183.5s103.167 63.5 174.5 63.5c30.667 0 57.5 -4.83301 80.5 -14.5s42.167 -22.834 57.5 -39.501s26.666 -36.334 33.999 -59.001
s11 -47 11 -73zM467.003 373.998c0 70.667 -36 106.002 -108 106.002c-22 0 -42 -4 -60 -12s-33.833 -19.333 -47.5 -34s-25.167 -31.834 -34.5 -51.501s-16.333 -40.834 -21 -63.501l-1 -5h265l1 5c4 20 6 38.333 6 55zM429.003 632c0 -6 -3.33301 -9 -10 -9h-54
c-5.33301 0 -9.33301 1.16699 -12 3.5s-5.66699 6.16602 -9 11.499l-90 126c-2 2.66699 -3 5 -3 7c0 5.33301 4 8 12 8h66c6 0 10.5 -1.16699 13.5 -3.5s6.16699 -6.16602 9.5 -11.499l75 -124c1.33301 -2 2 -4.66699 2 -8z" />
    <glyph glyph-name="eacute" unicode="&#xe9;" horiz-adv-x="544" 
d="M555 371c0 -19.333 -1.99707 -39.335 -5.99707 -60.002l-8 -42c-1.33301 -6.66699 -3.5 -12 -6.5 -16s-8.16699 -6 -15.5 -6h-337l-2 -12c-4 -23.333 -6 -43.666 -6 -60.999c0 -38 11 -65.333 33 -82s52.333 -25 91 -25c29.333 0 59.666 1.5 90.999 4.5
s58.666 6.16699 81.999 9.5c14.667 2 21 -2.66699 19 -14l-6 -34c-1.33301 -7.33301 -3.5 -12.666 -6.5 -15.999s-8.83301 -5.66602 -17.5 -6.99902c-30 -5.33301 -58.167 -9.5 -84.5 -12.5s-56.5 -4.5 -90.5 -4.5c-24.667 0 -48.834 3.33301 -72.501 10
s-44.667 17.334 -63 32.001s-33.166 33.667 -44.499 57s-17 52 -17 86c0 19.333 2 40 6 62l13 70c15.333 80 45.5 141.167 90.5 183.5s103.167 63.5 174.5 63.5c30.667 0 57.5 -4.83301 80.5 -14.5s42.167 -22.834 57.5 -39.501s26.666 -36.334 33.999 -59.001
s11 -47 11 -73zM467.003 373.998c0 70.667 -36 106.002 -108 106.002c-22 0 -42 -4 -60 -12s-33.833 -19.333 -47.5 -34s-25.167 -31.834 -34.5 -51.501s-16.333 -40.834 -21 -63.501l-1 -5h265l1 5c4 20 6 38.333 6 55zM570.003 773c0 -2.66699 -1.66699 -5.66699 -5 -9
l-136 -126c-5.33301 -5.33301 -9.5 -9.16602 -12.5 -11.499s-7.16699 -3.5 -12.5 -3.5h-54c-5.33301 0 -8 2 -8 6c0 3.33301 2 7 6 11l120 124c5.33301 5.33301 9.5 9.16602 12.5 11.499s7.5 3.5 13.5 3.5h66c6.66699 0 10 -2 10 -6z" />
    <glyph glyph-name="ecircumflex" unicode="&#xea;" horiz-adv-x="544" 
d="M555 371c0 -19.333 -1.99707 -39.335 -5.99707 -60.002l-8 -42c-1.33301 -6.66699 -3.5 -12 -6.5 -16s-8.16699 -6 -15.5 -6h-337l-2 -12c-4 -23.333 -6 -43.666 -6 -60.999c0 -38 11 -65.333 33 -82s52.333 -25 91 -25c29.333 0 59.666 1.5 90.999 4.5
s58.666 6.16699 81.999 9.5c14.667 2 21 -2.66699 19 -14l-6 -34c-1.33301 -7.33301 -3.5 -12.666 -6.5 -15.999s-8.83301 -5.66602 -17.5 -6.99902c-30 -5.33301 -58.167 -9.5 -84.5 -12.5s-56.5 -4.5 -90.5 -4.5c-24.667 0 -48.834 3.33301 -72.501 10
s-44.667 17.334 -63 32.001s-33.166 33.667 -44.499 57s-17 52 -17 86c0 19.333 2 40 6 62l13 70c15.333 80 45.5 141.167 90.5 183.5s103.167 63.5 174.5 63.5c30.667 0 57.5 -4.83301 80.5 -14.5s42.167 -22.834 57.5 -39.501s26.666 -36.334 33.999 -59.001
s11 -47 11 -73zM467.003 373.998c0 70.667 -36 106.002 -108 106.002c-22 0 -42 -4 -60 -12s-33.833 -19.333 -47.5 -34s-25.167 -31.834 -34.5 -51.501s-16.333 -40.834 -21 -63.501l-1 -5h265l1 5c4 20 6 38.333 6 55zM551.003 632c0 -6 -3.33301 -9 -10 -9h-49
c-5.33301 0 -9.33301 1.16699 -12 3.5s-5.66699 6.16602 -9 11.499l-64 97l-101 -97c-5.33301 -5.33301 -9.5 -9.16602 -12.5 -11.499s-7.16699 -3.5 -12.5 -3.5h-55c-5.33301 0 -8 2 -8 6c0 3.33301 2 7 6 11l118 124c5.33301 5.33301 9.5 9.16602 12.5 11.499
s7.5 3.5 13.5 3.5h85c6 0 10.5 -1.16699 13.5 -3.5s6.16699 -6.16602 9.5 -11.499l73 -124c1.33301 -2 2 -4.66699 2 -8z" />
    <glyph glyph-name="edieresis" unicode="&#xeb;" horiz-adv-x="544" 
d="M555 371c0 -19.333 -1.99707 -39.335 -5.99707 -60.002l-8 -42c-1.33301 -6.66699 -3.5 -12 -6.5 -16s-8.16699 -6 -15.5 -6h-337l-2 -12c-4 -23.333 -6 -43.666 -6 -60.999c0 -38 11 -65.333 33 -82s52.333 -25 91 -25c29.333 0 59.666 1.5 90.999 4.5
s58.666 6.16699 81.999 9.5c14.667 2 21 -2.66699 19 -14l-6 -34c-1.33301 -7.33301 -3.5 -12.666 -6.5 -15.999s-8.83301 -5.66602 -17.5 -6.99902c-30 -5.33301 -58.167 -9.5 -84.5 -12.5s-56.5 -4.5 -90.5 -4.5c-24.667 0 -48.834 3.33301 -72.501 10
s-44.667 17.334 -63 32.001s-33.166 33.667 -44.499 57s-17 52 -17 86c0 19.333 2 40 6 62l13 70c15.333 80 45.5 141.167 90.5 183.5s103.167 63.5 174.5 63.5c30.667 0 57.5 -4.83301 80.5 -14.5s42.167 -22.834 57.5 -39.501s26.666 -36.334 33.999 -59.001
s11 -47 11 -73zM467.003 373.998c0 70.667 -36 106.002 -108 106.002c-22 0 -42 -4 -60 -12s-33.833 -19.333 -47.5 -34s-25.167 -31.834 -34.5 -51.501s-16.333 -40.834 -21 -63.501l-1 -5h265l1 5c4 20 6 38.333 6 55zM534.003 741l-15 -81
c-1.33301 -5.33301 -4.16602 -9.83301 -8.49902 -13.5s-9.16602 -5.5 -14.499 -5.5h-39c-4.66699 0 -8.66699 1.33301 -12 4s-5 6.66699 -5 12v3l15 81c1.33301 5.33301 4.16602 10 8.49902 14s9.16602 6 14.499 6h39c4.66699 0 8.66699 -1.66699 12 -5s5 -7.33301 5 -12v-3
zM359.003 741l-15 -81c-1.33301 -5.33301 -4.16602 -9.83301 -8.49902 -13.5s-9.16602 -5.5 -14.499 -5.5h-39c-4.66699 0 -8.66699 1.33301 -12 4s-5 6.66699 -5 12v3l15 81c1.33301 5.33301 4.16602 10 8.49902 14s9.16602 6 14.499 6h39
c4.66699 0 8.66699 -1.66699 12 -5s5 -7.33301 5 -12v-3z" />
    <glyph glyph-name="igrave" unicode="&#xec;" horiz-adv-x="247" 
d="M260 530l-89 -510c-1.33301 -5.33301 -4.33301 -10 -9 -14s-9.66699 -6 -15 -6h-48c-10.667 -0 -16 5.33301 -16 16v4l89 510c1.33301 5.33301 4.33301 10 9 14s9.66699 6 15 6h48c10.667 0 16 -5.33301 16 -16v-4zM297 632c0 -6 -3.33301 -9 -10 -9h-54
c-5.33301 0 -9.33301 1.16699 -12 3.5s-5.66699 6.16602 -9 11.499l-90 126c-2 2.66699 -3 5 -3 7c0 5.33301 4 8 12 8h66c6 0 10.5 -1.16699 13.5 -3.5s6.16699 -6.16602 9.5 -11.499l75 -124c1.33301 -2 2 -4.66699 2 -8z" />
    <glyph glyph-name="iacute" unicode="&#xed;" horiz-adv-x="247" 
d="M260 530l-89 -510c-1.33301 -5.33301 -4.33301 -10 -9 -14s-9.66699 -6 -15 -6h-48c-10.667 -0 -16 5.33301 -16 16v4l89 510c1.33301 5.33301 4.33301 10 9 14s9.66699 6 15 6h48c10.667 0 16 -5.33301 16 -16v-4zM408 773c0 -2.66699 -1.66699 -5.66699 -5 -9
l-136 -126c-5.33301 -5.33301 -9.5 -9.16602 -12.5 -11.499s-7.16699 -3.5 -12.5 -3.5h-54c-5.33301 0 -8 2 -8 6c0 3.33301 2 7 6 11l120 124c5.33301 5.33301 9.5 9.16602 12.5 11.499s7.5 3.5 13.5 3.5h66c6.66699 0 10 -2 10 -6z" />
    <glyph glyph-name="icircumflex" unicode="&#xee;" horiz-adv-x="247" 
d="M260 530l-89 -510c-1.33301 -5.33301 -4.33301 -10 -9 -14s-9.66699 -6 -15 -6h-48c-10.667 -0 -16 5.33301 -16 16v4l89 510c1.33301 5.33301 4.33301 10 9 14s9.66699 6 15 6h48c10.667 0 16 -5.33301 16 -16v-4zM401 632c0 -6 -3.33301 -9 -10 -9h-49
c-5.33301 0 -9.33301 1.16699 -12 3.5s-5.66699 6.16602 -9 11.499l-64 97l-101 -97c-5.33301 -5.33301 -9.5 -9.16602 -12.5 -11.499s-7.16699 -3.5 -12.5 -3.5h-55c-5.33301 0 -8 2 -8 6c0 3.33301 2 7 6 11l118 124c5.33301 5.33301 9.5 9.16602 12.5 11.499
s7.5 3.5 13.5 3.5h85c6 0 10.5 -1.16699 13.5 -3.5s6.16699 -6.16602 9.5 -11.499l73 -124c1.33301 -2 2 -4.66699 2 -8z" />
    <glyph glyph-name="idieresis" unicode="&#xef;" horiz-adv-x="247" 
d="M260 530l-89 -510c-1.33301 -5.33301 -4.33301 -10 -9 -14s-9.66699 -6 -15 -6h-48c-10.667 -0 -16 5.33301 -16 16v4l89 510c1.33301 5.33301 4.33301 10 9 14s9.66699 6 15 6h48c10.667 0 16 -5.33301 16 -16v-4zM382 741l-15 -81
c-1.33301 -5.33301 -4.16602 -9.83301 -8.49902 -13.5s-9.16602 -5.5 -14.499 -5.5h-39c-4.66699 0 -8.66699 1.33301 -12 4s-5 6.66699 -5 12v3l15 81c1.33301 5.33301 4.16602 10 8.49902 14s9.16602 6 14.499 6h39c4.66699 0 8.66699 -1.66699 12 -5s5 -7.33301 5 -12v-3
zM207 741l-15 -81c-1.33301 -5.33301 -4.16602 -9.83301 -8.49902 -13.5s-9.16602 -5.5 -14.499 -5.5h-39c-4.66699 0 -8.66699 1.33301 -12 4s-5 6.66699 -5 12v3l15 81c1.33301 5.33301 4.16602 10 8.49902 14s9.16602 6 14.499 6h39c4.66699 0 8.66699 -1.66699 12 -5
s5 -7.33301 5 -12v-3z" />
    <glyph glyph-name="eth" unicode="&#xf0;" horiz-adv-x="545" 
d="M561 432c0 -20 -0.833008 -41.3359 -2.5 -64.0029s-4.83398 -46 -9.50098 -70l-10 -55c-7.33301 -40 -17.833 -75.5 -31.5 -106.5s-31.334 -57.167 -53.001 -78.5s-47.5 -37.5 -77.5 -48.5s-64.667 -16.5 -104 -16.5c-31.333 0 -58.5 4.5 -81.5 13.5
s-42.333 21.833 -58 38.5s-27.334 36.334 -35.001 59.001s-11.5 48 -11.5 76c0 20 2 41 6 63l10 55c16 88 46.333 151.667 91 191s103.334 59 176.001 59c18.667 0 38 -3.16699 58 -9.5s36.333 -16.166 49 -29.499c-5.33301 26 -18 51.5 -38 76.5s-48.333 46.833 -85 65.5
l-99 -68c-2.66699 -1.33301 -5.16699 -2.66602 -7.5 -3.99902s-4.5 -2 -6.5 -2c-4 0 -7.33301 2 -10 6l-14 19c-1.33301 2.66699 -2 4.66699 -2 6c0 3.33301 1.5 6.66602 4.5 9.99902s5.83301 6 8.5 8l72 49c-11.333 4 -23.333 7.83301 -36 11.5s-26 7.16699 -40 10.5
c-9.33301 2 -14 6.33301 -14 13c0 0.666992 0.666992 3 2 7l16 29c4 8 8.33301 12 13 12c2 0 5.66699 -0.666992 11 -2c22 -5.33301 42.5 -10.833 61.5 -16.5s37.167 -12.167 54.5 -19.5l109 73c4.66699 3.33301 9.33398 5 14.001 5c4 0 7.66699 -2 11 -6l13 -18
c2 -2 3 -4.33301 3 -7c0 -3.33301 -1.16699 -6.16602 -3.5 -8.49902s-5.16602 -4.5 -8.49902 -6.5l-85 -58c51.333 -32 87.5 -69.167 108.5 -111.5s31.5 -92.5 31.5 -150.5zM468 364.997c0 37.333 -8.83301 64.667 -26.5 82s-46.167 26 -85.5 26
c-23.333 0 -44.166 -4.33301 -62.499 -13s-34.333 -20.834 -48 -36.501s-24.834 -34.167 -33.501 -55.5s-15.334 -44.666 -20.001 -69.999l-10 -55c-2.66699 -13.333 -4.5 -25.666 -5.5 -36.999s-1.5 -22 -1.5 -32c0 -36 8.5 -62.5 25.5 -79.5s45.5 -25.5 85.5 -25.5
c46.667 0 83.334 15.5 110.001 46.5s45 73.5 55 127.5l10 55c4.66699 23.333 7 45.666 7 66.999z" />
    <glyph glyph-name="ntilde" unicode="&#xf1;" horiz-adv-x="557" 
d="M556 403c0 -17.333 -1.66406 -35.332 -4.99707 -53.999l-58 -329c-1.33301 -5.33301 -4.33301 -10 -9 -14s-9.66699 -6 -15 -6h-48c-6 0 -10.5 2 -13.5 6s-3.83301 8.66699 -2.5 14l58 329c1.33301 9.33301 2.5 18.833 3.5 28.5s1.5 18.5 1.5 26.5
c0 24 -6.33301 42.667 -19 56s-37.334 20 -74.001 20c-19.333 0 -39.666 -2.5 -60.999 -7.5s-48 -15.167 -80 -30.5l-74 -422c-1.33301 -5.33301 -4.33301 -10 -9 -14s-9.66699 -6 -15 -6h-49c-6 0 -10.333 2.16699 -13 6.5s-3.33398 8.83301 -2.00098 13.5l89 510
c1.33301 5.33301 3.66602 10 6.99902 14s9.66602 6 18.999 6h42c14.667 0 21 -6.66699 19 -20l-3 -21c24 13.333 48.333 24.666 73 33.999s54 14 88 14c26.667 0 49.5 -4 68.5 -12s34.5 -19 46.5 -33s20.833 -30.333 26.5 -49s8.5 -38.667 8.5 -60zM594.003 754.001
l-3.99707 -22.999c-6 -34.667 -16.5 -60.834 -31.5 -78.501s-38.5 -26.5 -70.5 -26.5c-11.333 0 -24 1.5 -38 4.5s-26.667 10.167 -38 21.5l-47 44c-10 9.33301 -17.167 15.333 -21.5 18s-9.5 4 -15.5 4c-22.667 0 -36 -15.333 -40 -46l-3 -21
c-0.666992 -4.66699 -2.5 -8.66699 -5.5 -12s-6.83301 -5 -11.5 -5h-34c-8.66699 0 -13 4.66699 -13 14v3l3 21c5.33301 40 17.166 68.167 35.499 84.5s41.166 24.5 68.499 24.5c15.333 0 28.166 -2.33301 38.499 -7s22.166 -12.667 35.499 -24l54 -49
c4.66699 -4 10 -7.33301 16 -10s11.333 -4 16 -4c10 0 18 3 24 9s10.667 17.667 14 35l4 23c1.33301 4.66699 3.33301 8.66699 6 12s6.33398 5 11.001 5h34c8.66699 0 13 -4.66699 13 -14v-3z" />
    <glyph glyph-name="ograve" unicode="&#xf2;" horiz-adv-x="545" 
d="M555 369c0 -9.33301 -0.5 -18.668 -1.5 -28.001s-2.16699 -18.666 -3.5 -27.999l-13 -76c-6.66699 -38 -16.834 -72.167 -30.501 -102.5s-31.334 -56 -53.001 -77s-47.667 -37 -78 -48s-65.166 -16.5 -104.499 -16.5c-30 0 -56.5 4.66699 -79.5 14
s-42.167 22.333 -57.5 39s-27 36.5 -35 59.5s-12 48.5 -12 76.5c0 9.33301 0.5 18.5 1.5 27.5s2.16699 18.167 3.5 27.5l13 76c28 162.667 116.333 244 265 244c30.667 0 57.5 -4.66699 80.5 -14s42.333 -22.333 58 -39s27.334 -36.5 35.001 -59.5s11.5 -48.167 11.5 -75.5z
M467 369.998c0 36 -8.5 63.333 -25.5 82s-45.167 28 -84.5 28c-44 0 -80.167 -15 -108.5 -45s-46.833 -70.667 -55.5 -122l-13 -76c-4 -22 -6 -41.667 -6 -59c0 -36 8.5 -63 25.5 -81s45.167 -27 84.5 -27c22 0 42.167 4.16699 60.5 12.5s34.5 19.833 48.5 34.5
s25.833 32.167 35.5 52.5s16.5 42.833 20.5 67.5l13 76c2 10.667 3.33301 20.667 4 30s1 18.333 1 27zM441 631.998c0 -6 -3.33301 -9 -10 -9h-54c-5.33301 0 -9.33301 1.16699 -12 3.5s-5.66699 6.16602 -9 11.499l-90 126c-2 2.66699 -3 5 -3 7c0 5.33301 4 8 12 8h66
c6 0 10.5 -1.16699 13.5 -3.5s6.16699 -6.16602 9.5 -11.499l75 -124c1.33301 -2 2 -4.66699 2 -8z" />
    <glyph glyph-name="oacute" unicode="&#xf3;" horiz-adv-x="545" 
d="M555 369c0 -9.33301 -0.5 -18.668 -1.5 -28.001s-2.16699 -18.666 -3.5 -27.999l-13 -76c-6.66699 -38 -16.834 -72.167 -30.501 -102.5s-31.334 -56 -53.001 -77s-47.667 -37 -78 -48s-65.166 -16.5 -104.499 -16.5c-30 0 -56.5 4.66699 -79.5 14
s-42.167 22.333 -57.5 39s-27 36.5 -35 59.5s-12 48.5 -12 76.5c0 9.33301 0.5 18.5 1.5 27.5s2.16699 18.167 3.5 27.5l13 76c28 162.667 116.333 244 265 244c30.667 0 57.5 -4.66699 80.5 -14s42.333 -22.333 58 -39s27.334 -36.5 35.001 -59.5s11.5 -48.167 11.5 -75.5z
M467 369.998c0 36 -8.5 63.333 -25.5 82s-45.167 28 -84.5 28c-44 0 -80.167 -15 -108.5 -45s-46.833 -70.667 -55.5 -122l-13 -76c-4 -22 -6 -41.667 -6 -59c0 -36 8.5 -63 25.5 -81s45.167 -27 84.5 -27c22 0 42.167 4.16699 60.5 12.5s34.5 19.833 48.5 34.5
s25.833 32.167 35.5 52.5s16.5 42.833 20.5 67.5l13 76c2 10.667 3.33301 20.667 4 30s1 18.333 1 27zM562 772.998c0 -2.66699 -1.66699 -5.66699 -5 -9l-136 -126c-5.33301 -5.33301 -9.5 -9.16602 -12.5 -11.499s-7.16699 -3.5 -12.5 -3.5h-54c-5.33301 0 -8 2 -8 6
c0 3.33301 2 7 6 11l120 124c5.33301 5.33301 9.5 9.16602 12.5 11.499s7.5 3.5 13.5 3.5h66c6.66699 0 10 -2 10 -6z" />
    <glyph glyph-name="ocircumflex" unicode="&#xf4;" horiz-adv-x="545" 
d="M555 369c0 -9.33301 -0.5 -18.668 -1.5 -28.001s-2.16699 -18.666 -3.5 -27.999l-13 -76c-6.66699 -38 -16.834 -72.167 -30.501 -102.5s-31.334 -56 -53.001 -77s-47.667 -37 -78 -48s-65.166 -16.5 -104.499 -16.5c-30 0 -56.5 4.66699 -79.5 14
s-42.167 22.333 -57.5 39s-27 36.5 -35 59.5s-12 48.5 -12 76.5c0 9.33301 0.5 18.5 1.5 27.5s2.16699 18.167 3.5 27.5l13 76c28 162.667 116.333 244 265 244c30.667 0 57.5 -4.66699 80.5 -14s42.333 -22.333 58 -39s27.334 -36.5 35.001 -59.5s11.5 -48.167 11.5 -75.5z
M467 369.998c0 36 -8.5 63.333 -25.5 82s-45.167 28 -84.5 28c-44 0 -80.167 -15 -108.5 -45s-46.833 -70.667 -55.5 -122l-13 -76c-4 -22 -6 -41.667 -6 -59c0 -36 8.5 -63 25.5 -81s45.167 -27 84.5 -27c22 0 42.167 4.16699 60.5 12.5s34.5 19.833 48.5 34.5
s25.833 32.167 35.5 52.5s16.5 42.833 20.5 67.5l13 76c2 10.667 3.33301 20.667 4 30s1 18.333 1 27zM551 631.998c0 -6 -3.33301 -9 -10 -9h-49c-5.33301 0 -9.33301 1.16699 -12 3.5s-5.66699 6.16602 -9 11.499l-64 97l-101 -97
c-5.33301 -5.33301 -9.5 -9.16602 -12.5 -11.499s-7.16699 -3.5 -12.5 -3.5h-55c-5.33301 0 -8 2 -8 6c0 3.33301 2 7 6 11l118 124c5.33301 5.33301 9.5 9.16602 12.5 11.499s7.5 3.5 13.5 3.5h85c6 0 10.5 -1.16699 13.5 -3.5s6.16699 -6.16602 9.5 -11.499l73 -124
c1.33301 -2 2 -4.66699 2 -8z" />
    <glyph glyph-name="otilde" unicode="&#xf5;" horiz-adv-x="545" 
d="M555 369c0 -9.33301 -0.5 -18.668 -1.5 -28.001s-2.16699 -18.666 -3.5 -27.999l-13 -76c-6.66699 -38 -16.834 -72.167 -30.501 -102.5s-31.334 -56 -53.001 -77s-47.667 -37 -78 -48s-65.166 -16.5 -104.499 -16.5c-30 0 -56.5 4.66699 -79.5 14
s-42.167 22.333 -57.5 39s-27 36.5 -35 59.5s-12 48.5 -12 76.5c0 9.33301 0.5 18.5 1.5 27.5s2.16699 18.167 3.5 27.5l13 76c28 162.667 116.333 244 265 244c30.667 0 57.5 -4.66699 80.5 -14s42.333 -22.333 58 -39s27.334 -36.5 35.001 -59.5s11.5 -48.167 11.5 -75.5z
M467 369.998c0 36 -8.5 63.333 -25.5 82s-45.167 28 -84.5 28c-44 0 -80.167 -15 -108.5 -45s-46.833 -70.667 -55.5 -122l-13 -76c-4 -22 -6 -41.667 -6 -59c0 -36 8.5 -63 25.5 -81s45.167 -27 84.5 -27c22 0 42.167 4.16699 60.5 12.5s34.5 19.833 48.5 34.5
s25.833 32.167 35.5 52.5s16.5 42.833 20.5 67.5l13 76c2 10.667 3.33301 20.667 4 30s1 18.333 1 27zM589 753.998l-3.99707 -22.999c-6 -34.667 -16.5 -60.834 -31.5 -78.501s-38.5 -26.5 -70.5 -26.5c-11.333 0 -24 1.5 -38 4.5s-26.667 10.167 -38 21.5l-47 44
c-10 9.33301 -17.167 15.333 -21.5 18s-9.5 4 -15.5 4c-22.667 0 -36 -15.333 -40 -46l-3 -21c-0.666992 -4.66699 -2.5 -8.66699 -5.5 -12s-6.83301 -5 -11.5 -5h-34c-8.66699 0 -13 4.66699 -13 14v3l3 21c5.33301 40 17.166 68.167 35.499 84.5s41.166 24.5 68.499 24.5
c15.333 0 28.166 -2.33301 38.499 -7s22.166 -12.667 35.499 -24l54 -49c4.66699 -4 10 -7.33301 16 -10s11.333 -4 16 -4c10 0 18 3 24 9s10.667 17.667 14 35l4 23c1.33301 4.66699 3.33301 8.66699 6 12s6.33398 5 11.001 5h34c8.66699 0 13 -4.66699 13 -14v-3z" />
    <glyph glyph-name="odieresis" unicode="&#xf6;" horiz-adv-x="545" 
d="M555 369c0 -9.33301 -0.5 -18.668 -1.5 -28.001s-2.16699 -18.666 -3.5 -27.999l-13 -76c-6.66699 -38 -16.834 -72.167 -30.501 -102.5s-31.334 -56 -53.001 -77s-47.667 -37 -78 -48s-65.166 -16.5 -104.499 -16.5c-30 0 -56.5 4.66699 -79.5 14
s-42.167 22.333 -57.5 39s-27 36.5 -35 59.5s-12 48.5 -12 76.5c0 9.33301 0.5 18.5 1.5 27.5s2.16699 18.167 3.5 27.5l13 76c28 162.667 116.333 244 265 244c30.667 0 57.5 -4.66699 80.5 -14s42.333 -22.333 58 -39s27.334 -36.5 35.001 -59.5s11.5 -48.167 11.5 -75.5z
M467 369.998c0 36 -8.5 63.333 -25.5 82s-45.167 28 -84.5 28c-44 0 -80.167 -15 -108.5 -45s-46.833 -70.667 -55.5 -122l-13 -76c-4 -22 -6 -41.667 -6 -59c0 -36 8.5 -63 25.5 -81s45.167 -27 84.5 -27c22 0 42.167 4.16699 60.5 12.5s34.5 19.833 48.5 34.5
s25.833 32.167 35.5 52.5s16.5 42.833 20.5 67.5l13 76c2 10.667 3.33301 20.667 4 30s1 18.333 1 27zM532 740.998l-15 -81c-1.33301 -5.33301 -4.16602 -9.83301 -8.49902 -13.5s-9.16602 -5.5 -14.499 -5.5h-39c-4.66699 0 -8.66699 1.33301 -12 4s-5 6.66699 -5 12v3
l15 81c1.33301 5.33301 4.16602 10 8.49902 14s9.16602 6 14.499 6h39c4.66699 0 8.66699 -1.66699 12 -5s5 -7.33301 5 -12v-3zM357 740.998l-15 -81c-1.33301 -5.33301 -4.16602 -9.83301 -8.49902 -13.5s-9.16602 -5.5 -14.499 -5.5h-39
c-4.66699 0 -8.66699 1.33301 -12 4s-5 6.66699 -5 12v3l15 81c1.33301 5.33301 4.16602 10 8.49902 14s9.16602 6 14.499 6h39c4.66699 0 8.66699 -1.66699 12 -5s5 -7.33301 5 -12v-3z" />
    <glyph glyph-name="divide" unicode="&#xf7;" horiz-adv-x="595" 
d="M413 527c0 -5.33301 -1.83301 -10 -5.5 -14s-8.16699 -6 -13.5 -6h-48c-5.33301 0 -10 2 -14 6s-6 8.66699 -6 14v88c0 5.33301 2 9.83301 6 13.5s8.66699 5.5 14 5.5h48c5.33301 0 9.83301 -1.83301 13.5 -5.5s5.5 -8.16699 5.5 -13.5v-88zM583 371
c0 -5.33301 -2 -9.33301 -6 -12s-8.66699 -4 -14 -4h-385c-5.33301 0 -10 1.33301 -14 4s-6 6.66699 -6 12v40c0 5.33301 2 9.33301 6 12s8.66699 4 14 4h385c5.33301 0 10 -1.33301 14 -4s6 -6.66699 6 -12v-40zM413 162c0 -5.33301 -1.83301 -9.83301 -5.5 -13.5
s-8.16699 -5.5 -13.5 -5.5h-48c-5.33301 0 -10 1.83301 -14 5.5s-6 8.16699 -6 13.5v89c0 5.33301 2 9.83301 6 13.5s8.66699 5.5 14 5.5h48c5.33301 0 9.83301 -1.83301 13.5 -5.5s5.5 -8.16699 5.5 -13.5v-89z" />
    <glyph glyph-name="oslash" unicode="&#xf8;" horiz-adv-x="545" 
d="M630 577c0 -4 -2.33301 -8.33203 -7 -12.999l-86 -94c12.667 -25.333 19 -56.333 19 -93c0 -20 -2 -41.333 -6 -64l-13 -76c-6 -36.667 -16.5 -70 -31.5 -100s-33.667 -55.667 -56 -77s-48.5 -37.833 -78.5 -49.5s-63.333 -17.5 -100 -17.5c-56 0 -100 14 -132 42
l-54 -60c-4 -4.66699 -7.16699 -7.5 -9.5 -8.5s-5.16602 -1.5 -8.49902 -1.5h-49c-4.66699 0 -7 2 -7 6c0 4.66699 2 9 6 13l88 96c-12.667 25.333 -19 56.333 -19 93c0 19.333 2 40.666 6 63.999l13 76c6 36.667 16.333 70 31 100s33.167 55.667 55.5 77
s48.5 37.833 78.5 49.5s63.333 17.5 100 17.5c56.667 0 101 -14 133 -42l52 58c4 4.66699 7.16699 7.5 9.5 8.5s5.16602 1.5 8.49902 1.5h50c4.66699 0 7 -2 7 -6zM441 449.001c-18.667 20.667 -46.6689 31 -84.002 31c-47.333 0 -84.166 -14.833 -110.499 -44.5
s-44.166 -70.5 -53.499 -122.5l-13 -76c-1.33301 -10 -2.5 -19.5 -3.5 -28.5s-1.5 -17.833 -1.5 -26.5v-13c0 -4 0.333008 -7.66699 1 -11zM466.998 364.001c0 4.66699 -0.166992 9.16797 -0.5 13.501s-0.833008 8.83301 -1.5 13.5l-265 -290
c18.667 -20.667 46.667 -31 84 -31c47.333 0 84.333 14.833 111 44.5s44.667 70.5 54 122.5l13 76c1.33301 9.33301 2.5 18.166 3.5 26.499s1.5 16.5 1.5 24.5z" />
    <glyph glyph-name="ugrave" unicode="&#xf9;" horiz-adv-x="557" 
d="M567 550c7.33301 0 12 -2.16797 14 -6.50098s2.33301 -8.83301 1 -13.5l-89 -510c-1.33301 -5.33301 -4.16602 -10 -8.49902 -14s-9.16602 -6 -14.499 -6h-47c-6 0 -10.333 2 -13 6s-3.33398 8.66699 -2.00098 14l3 18c-30 -15.333 -57.667 -26.666 -83 -33.999
s-53 -11 -83 -11c-43.333 0 -78.5 13.167 -105.5 39.5s-40.5 65.833 -40.5 118.5c0 18.667 2 39 6 61l56 318c1.33301 7.33301 4.33301 12.5 9 15.5s9.66699 4.5 15 4.5h48c12.667 0 18 -6.66699 16 -20l-58 -329c-4 -22 -6 -41 -6 -57c0 -28 7.16699 -47.333 21.5 -58
s38.166 -16 71.499 -16c21.333 0 44 3.33301 68 10s48.667 15.667 74 27l74 423c1.33301 5.33301 3.5 10 6.5 14s8.83301 6 17.5 6h49zM447 631.999c0 -6 -3.33301 -9 -10 -9h-54c-5.33301 0 -9.33301 1.16699 -12 3.5s-5.66699 6.16602 -9 11.499l-90 126
c-2 2.66699 -3 5 -3 7c0 5.33301 4 8 12 8h66c6 0 10.5 -1.16699 13.5 -3.5s6.16699 -6.16602 9.5 -11.499l75 -124c1.33301 -2 2 -4.66699 2 -8z" />
    <glyph glyph-name="uacute" unicode="&#xfa;" horiz-adv-x="557" 
d="M567 550c7.33301 0 12 -2.16797 14 -6.50098s2.33301 -8.83301 1 -13.5l-89 -510c-1.33301 -5.33301 -4.16602 -10 -8.49902 -14s-9.16602 -6 -14.499 -6h-47c-6 0 -10.333 2 -13 6s-3.33398 8.66699 -2.00098 14l3 18c-30 -15.333 -57.667 -26.666 -83 -33.999
s-53 -11 -83 -11c-43.333 0 -78.5 13.167 -105.5 39.5s-40.5 65.833 -40.5 118.5c0 18.667 2 39 6 61l56 318c1.33301 7.33301 4.33301 12.5 9 15.5s9.66699 4.5 15 4.5h48c12.667 0 18 -6.66699 16 -20l-58 -329c-4 -22 -6 -41 -6 -57c0 -28 7.16699 -47.333 21.5 -58
s38.166 -16 71.499 -16c21.333 0 44 3.33301 68 10s48.667 15.667 74 27l74 423c1.33301 5.33301 3.5 10 6.5 14s8.83301 6 17.5 6h49zM570 772.999c0 -2.66699 -1.66699 -5.66699 -5 -9l-136 -126c-5.33301 -5.33301 -9.5 -9.16602 -12.5 -11.499s-7.16699 -3.5 -12.5 -3.5
h-54c-5.33301 0 -8 2 -8 6c0 3.33301 2 7 6 11l120 124c5.33301 5.33301 9.5 9.16602 12.5 11.499s7.5 3.5 13.5 3.5h66c6.66699 0 10 -2 10 -6z" />
    <glyph glyph-name="ucircumflex" unicode="&#xfb;" horiz-adv-x="557" 
d="M567 550c7.33301 0 12 -2.16797 14 -6.50098s2.33301 -8.83301 1 -13.5l-89 -510c-1.33301 -5.33301 -4.16602 -10 -8.49902 -14s-9.16602 -6 -14.499 -6h-47c-6 0 -10.333 2 -13 6s-3.33398 8.66699 -2.00098 14l3 18c-30 -15.333 -57.667 -26.666 -83 -33.999
s-53 -11 -83 -11c-43.333 0 -78.5 13.167 -105.5 39.5s-40.5 65.833 -40.5 118.5c0 18.667 2 39 6 61l56 318c1.33301 7.33301 4.33301 12.5 9 15.5s9.66699 4.5 15 4.5h48c12.667 0 18 -6.66699 16 -20l-58 -329c-4 -22 -6 -41 -6 -57c0 -28 7.16699 -47.333 21.5 -58
s38.166 -16 71.499 -16c21.333 0 44 3.33301 68 10s48.667 15.667 74 27l74 423c1.33301 5.33301 3.5 10 6.5 14s8.83301 6 17.5 6h49zM555 631.999c0 -6 -3.33301 -9 -10 -9h-49c-5.33301 0 -9.33301 1.16699 -12 3.5s-5.66699 6.16602 -9 11.499l-64 97l-101 -97
c-5.33301 -5.33301 -9.5 -9.16602 -12.5 -11.499s-7.16699 -3.5 -12.5 -3.5h-55c-5.33301 0 -8 2 -8 6c0 3.33301 2 7 6 11l118 124c5.33301 5.33301 9.5 9.16602 12.5 11.499s7.5 3.5 13.5 3.5h85c6 0 10.5 -1.16699 13.5 -3.5s6.16699 -6.16602 9.5 -11.499l73 -124
c1.33301 -2 2 -4.66699 2 -8z" />
    <glyph glyph-name="udieresis" unicode="&#xfc;" horiz-adv-x="557" 
d="M567 550c7.33301 0 12 -2.16797 14 -6.50098s2.33301 -8.83301 1 -13.5l-89 -510c-1.33301 -5.33301 -4.16602 -10 -8.49902 -14s-9.16602 -6 -14.499 -6h-47c-6 0 -10.333 2 -13 6s-3.33398 8.66699 -2.00098 14l3 18c-30 -15.333 -57.667 -26.666 -83 -33.999
s-53 -11 -83 -11c-43.333 0 -78.5 13.167 -105.5 39.5s-40.5 65.833 -40.5 118.5c0 18.667 2 39 6 61l56 318c1.33301 7.33301 4.33301 12.5 9 15.5s9.66699 4.5 15 4.5h48c12.667 0 18 -6.66699 16 -20l-58 -329c-4 -22 -6 -41 -6 -57c0 -28 7.16699 -47.333 21.5 -58
s38.166 -16 71.499 -16c21.333 0 44 3.33301 68 10s48.667 15.667 74 27l74 423c1.33301 5.33301 3.5 10 6.5 14s8.83301 6 17.5 6h49zM537 740.999l-15 -81c-1.33301 -5.33301 -4.16602 -9.83301 -8.49902 -13.5s-9.16602 -5.5 -14.499 -5.5h-39
c-4.66699 0 -8.66699 1.33301 -12 4s-5 6.66699 -5 12v3l15 81c1.33301 5.33301 4.16602 10 8.49902 14s9.16602 6 14.499 6h39c4.66699 0 8.66699 -1.66699 12 -5s5 -7.33301 5 -12v-3zM362 740.999l-15 -81c-1.33301 -5.33301 -4.16602 -9.83301 -8.49902 -13.5
s-9.16602 -5.5 -14.499 -5.5h-39c-4.66699 0 -8.66699 1.33301 -12 4s-5 6.66699 -5 12v3l15 81c1.33301 5.33301 4.16602 10 8.49902 14s9.16602 6 14.499 6h39c4.66699 0 8.66699 -1.66699 12 -5s5 -7.33301 5 -12v-3z" />
    <glyph glyph-name="yacute" unicode="&#xfd;" horiz-adv-x="534" 
d="M592 537c0 -3.33301 -0.999023 -6.99707 -2.99902 -10.9971l-267 -576c-12.667 -27.333 -25.167 -50.333 -37.5 -69s-26.5 -33.834 -42.5 -45.501s-34.333 -20.167 -55 -25.5s-45.334 -8 -74.001 -8c-14 0 -28.667 0.833008 -44 2.5s-28 3.83398 -38 6.50098
c-5.33301 1.33301 -10.166 3 -14.499 5s-5.83301 5.66699 -4.5 11l7 37c1.33301 7.33301 3.5 12.166 6.5 14.499s9.16699 2.83301 18.5 1.5c5.33301 -0.666992 11.833 -1.33398 19.5 -2.00098l24 -2c8.33301 -0.666992 16.5 -1.16699 24.5 -1.5s14.667 -0.5 20 -0.5
c14 0 26.5 1.16699 37.5 3.5s21 6.66602 30 12.999s17.167 15 24.5 26s14.666 25.167 21.999 42.5l17 41h-11c-8 0 -15.5 1 -22.5 3s-13.5 5.83301 -19.5 11.5s-11 13.5 -15 23.5s-7 23.333 -9 40l-51 448c-1.33301 10.667 0 17.334 4 20.001s9.66699 4 17 4h52
c6 0 9.66699 -1.66699 11 -5s2.33301 -7 3 -11l42 -434c1.33301 -10 3.33301 -16.167 6 -18.5s5.66699 -3.5 9 -3.5h16l202 457c2 5.33301 4.33301 9.16602 7 11.499s7.66699 3.5 15 3.5h59c9.33301 0 14 -4.33301 14 -13zM572.001 773.003
c0 -2.66699 -1.66699 -5.66699 -5 -9l-136 -126c-5.33301 -5.33301 -9.5 -9.16602 -12.5 -11.499s-7.16699 -3.5 -12.5 -3.5h-54c-5.33301 0 -8 2 -8 6c0 3.33301 2 7 6 11l120 124c5.33301 5.33301 9.5 9.16602 12.5 11.499s7.5 3.5 13.5 3.5h66c6.66699 0 10 -2 10 -6z
" />
    <glyph glyph-name="thorn" unicode="&#xfe;" horiz-adv-x="541" 
d="M552 376c0 -21.333 -2.00195 -43.333 -6.00195 -66l-13 -72c-14.667 -81.333 -42.334 -142.5 -83.001 -183.5s-100 -61.5 -178 -61.5c-15.333 0 -33.666 1 -54.999 3s-41.333 4.66699 -60 8l-32 -181c-1.33301 -7.33301 -3.5 -12.333 -6.5 -15s-8.5 -4 -16.5 -4h-51
c-4.66699 0 -8.5 1.5 -11.5 4.5s-3.83301 7.83301 -2.5 14.5l160 909c1.33301 5.33301 3.5 10 6.5 14s8.83301 6 17.5 6h48c6.66699 0 11.334 -1.33301 14.001 -4s3.33398 -8 2.00098 -16l-33 -185c20 3.33301 40.167 5.83301 60.5 7.5s39.833 2.5 58.5 2.5
c62 0 107.667 -16.667 137 -50s44 -77 44 -131zM464.998 377c0 34.667 -8.16699 61 -24.5 79s-43.833 27 -82.5 27c-21.333 0 -43 -1 -65 -3s-40 -4.33301 -54 -7l-69 -396c16 -3.33301 35.167 -5.83301 57.5 -7.5s41.5 -2.5 57.5 -2.5c47.333 0 83.5 15.333 108.5 46
s42.167 72.334 51.5 125.001l13 72c4.66699 23.333 7 45.666 7 66.999z" />
    <glyph glyph-name="ydieresis" unicode="&#xff;" horiz-adv-x="534" 
d="M592 537c0 -3.33301 -0.999023 -6.99707 -2.99902 -10.9971l-267 -576c-12.667 -27.333 -25.167 -50.333 -37.5 -69s-26.5 -33.834 -42.5 -45.501s-34.333 -20.167 -55 -25.5s-45.334 -8 -74.001 -8c-14 0 -28.667 0.833008 -44 2.5s-28 3.83398 -38 6.50098
c-5.33301 1.33301 -10.166 3 -14.499 5s-5.83301 5.66699 -4.5 11l7 37c1.33301 7.33301 3.5 12.166 6.5 14.499s9.16699 2.83301 18.5 1.5c5.33301 -0.666992 11.833 -1.33398 19.5 -2.00098l24 -2c8.33301 -0.666992 16.5 -1.16699 24.5 -1.5s14.667 -0.5 20 -0.5
c14 0 26.5 1.16699 37.5 3.5s21 6.66602 30 12.999s17.167 15 24.5 26s14.666 25.167 21.999 42.5l17 41h-11c-8 0 -15.5 1 -22.5 3s-13.5 5.83301 -19.5 11.5s-11 13.5 -15 23.5s-7 23.333 -9 40l-51 448c-1.33301 10.667 0 17.334 4 20.001s9.66699 4 17 4h52
c6 0 9.66699 -1.66699 11 -5s2.33301 -7 3 -11l42 -434c1.33301 -10 3.33301 -16.167 6 -18.5s5.66699 -3.5 9 -3.5h16l202 457c2 5.33301 4.33301 9.16602 7 11.499s7.66699 3.5 15 3.5h59c9.33301 0 14 -4.33301 14 -13zM535.001 741.003l-15 -81
c-1.33301 -5.33301 -4.16602 -9.83301 -8.49902 -13.5s-9.16602 -5.5 -14.499 -5.5h-39c-4.66699 0 -8.66699 1.33301 -12 4s-5 6.66699 -5 12v3l15 81c1.33301 5.33301 4.16602 10 8.49902 14s9.16602 6 14.499 6h39c4.66699 0 8.66699 -1.66699 12 -5s5 -7.33301 5 -12v-3
zM360.001 741.003l-15 -81c-1.33301 -5.33301 -4.16602 -9.83301 -8.49902 -13.5s-9.16602 -5.5 -14.499 -5.5h-39c-4.66699 0 -8.66699 1.33301 -12 4s-5 6.66699 -5 12v3l15 81c1.33301 5.33301 4.16602 10 8.49902 14s9.16602 6 14.499 6h39
c4.66699 0 8.66699 -1.66699 12 -5s5 -7.33301 5 -12v-3z" />
    <glyph glyph-name="dotlessi" unicode="&#x131;" horiz-adv-x="247" 
d="M260 530l-89 -510c-1.33301 -5.33301 -4.33301 -10 -9 -14s-9.66699 -6 -15 -6h-48c-10.667 -0 -16 5.33301 -16 16v4l89 510c1.33301 5.33301 4.33301 10 9 14s9.66699 6 15 6h48c10.667 0 16 -5.33301 16 -16v-4z" />
    <glyph glyph-name="OE" unicode="&#x152;" horiz-adv-x="983" 
d="M1056 727l-8.00195 -46.9971c-1.33301 -8 -5.66602 -12 -12.999 -12h-193c-26.667 0 -48.334 -1.83301 -65.001 -5.5s-30.167 -9.66699 -40.5 -18s-18.166 -19.166 -23.499 -32.499s-9.66602 -29.333 -12.999 -48l-24 -139h307c10.667 0 16 -5.66699 16 -17v-3l-6 -38
c-1.33301 -5.33301 -4.33301 -10 -9 -14s-9.66699 -6 -15 -6h-307l-30 -169c-1.33301 -8 -2.33301 -15.333 -3 -22s-1 -13 -1 -19c0 -22.667 7.66699 -38.834 23 -48.501s44 -14.5 86 -14.5h193c6 0 9 -3 9 -9v-3l-8 -47c-0.666992 -3.33301 -2.16699 -6.33301 -4.5 -9
s-5.16602 -4.33398 -8.49902 -5.00098c-13.333 -2 -37.5 -4 -72.5 -6s-76.167 -3 -123.5 -3c-48 0 -85.5 6.33301 -112.5 19s-47.167 34 -60.5 64c-29.333 -28 -60.833 -48.667 -94.5 -62s-75.167 -20 -124.5 -20c-32.667 0 -62.667 4.83301 -90 14.5s-51 24.167 -71 43.5
s-35.5 43.5 -46.5 72.5s-16.5 62.833 -16.5 101.5c0 12.667 0.666992 25.667 2 39s3.33301 27.666 6 42.999l23 129c10.667 58 26.167 107 46.5 147s44.5 72.333 72.5 97s59.5 42.5 94.5 53.5s72.5 16.5 112.5 16.5c41.333 0 76.666 -6.83301 105.999 -20.5
s53.666 -34.167 72.999 -61.5c23.333 32 51.833 53.667 85.5 65s76.167 17 127.5 17c47.333 0 88.333 -1 123 -3s58.334 -4 71.001 -6c4.66699 -0.666992 7 -4.33398 7 -11.001v-3zM595.998 518.003c0 22 -2.49414 42.1689 -7.49414 60.502s-13.167 34.166 -24.5 47.499
s-26.333 23.666 -45 30.999s-42 11 -70 11c-27.333 0 -52.833 -4.16699 -76.5 -12.5s-44.834 -21.833 -63.501 -40.5s-34.834 -42.667 -48.501 -72s-24.167 -65 -31.5 -107l-23 -129c-3.33301 -15.333 -5.5 -30 -6.5 -44s-1.5 -27 -1.5 -39
c0 -54.667 12.833 -93.167 38.5 -115.5s61.5 -33.5 107.5 -33.5c35.333 0 65.666 6.33301 90.999 19s46.666 29.5 63.999 50.5s31.166 45.5 41.499 73.5s18.166 57.333 23.499 88l24 134c5.33301 28.667 8 54.667 8 78z" />
    <glyph glyph-name="oe" unicode="&#x153;" horiz-adv-x="901" 
d="M910 369c0 -9.33301 -0.99707 -18.8359 -2.99707 -28.5029s-3.66699 -19.5 -5 -29.5l-7 -42c-2 -14.667 -9.33301 -22 -22 -22h-335c-2.66699 -13.333 -4.83398 -25.666 -6.50098 -36.999s-2.5 -22.333 -2.5 -33c0 -35.333 9.5 -62.5 28.5 -81.5s51.5 -28.5 97.5 -28.5
c29.333 0 59.666 1.5 90.999 4.5s58.666 6.16699 81.999 9.5h5c3.33301 0 6.5 -0.833008 9.5 -2.5s4.5 -4.5 4.5 -8.5v-3l-6 -34c-1.33301 -7.33301 -3.5 -12.666 -6.5 -15.999s-8.83301 -5.66602 -17.5 -6.99902c-30 -5.33301 -58.167 -9.5 -84.5 -12.5
s-56.5 -4.5 -90.5 -4.5c-43.333 0 -79.333 6 -108 18s-52.334 34 -71.001 66c-24 -28 -51.167 -49 -81.5 -63s-66.5 -21 -108.5 -21c-30.667 0 -57.5 4.66699 -80.5 14s-42.167 22.333 -57.5 39s-26.833 36.334 -34.5 59.001s-11.5 47.667 -11.5 75c0 8.66699 0.5 18 1.5 28
s2.16699 19.667 3.5 29l13 76c14 83.333 43.167 144.833 87.5 184.5s103.5 59.5 177.5 59.5c42 0 74.833 -7.33301 98.5 -22s44.167 -36 61.5 -64c24 30 52.167 51.833 84.5 65.5s68.5 20.5 108.5 20.5c30.667 0 57.5 -4.83301 80.5 -14.5s42.333 -23 58 -40
s27.334 -36.833 35.001 -59.5s11.5 -47.334 11.5 -74.001zM824.003 373.997c0 72 -36 107.998 -108 107.998c-25.333 0 -47.333 -4.66699 -66 -14s-34.5 -21.666 -47.5 -36.999s-23.667 -33.166 -32 -53.499s-14.833 -41.5 -19.5 -63.5h266l1 5c4 20 6 38.333 6 55z
M470.003 363.995c0 36 -8.83105 64.334 -26.498 85.001s-45.834 31 -84.501 31c-47.333 0 -84.333 -15.333 -111 -46s-44.334 -71 -53.001 -121l-13 -76c-2 -10.667 -3.33301 -20.667 -4 -30s-1 -18.333 -1 -27c0 -36 8.5 -63.333 25.5 -82s44.833 -28 83.5 -28
c47.333 0 84.5 15 111.5 45s45.167 70.667 54.5 122l13 76c1.33301 9.33301 2.5 18.166 3.5 26.499s1.5 16.5 1.5 24.5z" />
    <glyph glyph-name="Scaron" unicode="&#x160;" horiz-adv-x="550" 
d="M406 750c14.667 0 30.999 -0.331055 48.999 -0.998047s35.667 -1.5 53 -2.5s33.5 -2.33301 48.5 -4s27.167 -3.16699 36.5 -4.5c6.66699 -1.33301 11 -3 13 -5s2.33301 -6 1 -12l-7 -43c-1.33301 -6 -3.16602 -10.5 -5.49902 -13.5s-7.83301 -3.83301 -16.5 -2.5
c-22 1.33301 -48.833 2.66602 -80.5 3.99902s-62.167 2 -91.5 2c-20 0 -40 -1.16699 -60 -3.5s-37.833 -7.16602 -53.5 -14.499s-28.334 -17.666 -38.001 -30.999s-14.5 -31 -14.5 -53c0 -12 1.5 -22.667 4.5 -32s8 -18.5 15 -27.5s16.167 -18 27.5 -27
s25.333 -18.833 42 -29.5l82 -55c23.333 -15.333 43 -30.333 59 -45s29 -29.5 39 -44.5s17.167 -30.667 21.5 -47s6.5 -33.5 6.5 -51.5c0 -35.333 -7 -66.333 -21 -93s-33.5 -49 -58.5 -67s-54.5 -31.5 -88.5 -40.5s-71 -13.5 -111 -13.5c-14 0 -28.667 0.333008 -44 1
s-30.5 1.66699 -45.5 3s-29.5 2.83301 -43.5 4.5s-26.333 3.5 -37 5.5c-6 1.33301 -10.5 3.16602 -13.5 5.49902s-3.83301 6.5 -2.5 12.5l7 40c1.33301 7.33301 3.33301 12.166 6 14.499s8.33398 2.83301 17.001 1.5c11.333 -1.33301 24 -2.33301 38 -3
s28.5 -1.16699 43.5 -1.5l44 -1c14.333 -0.333008 27.166 -0.5 38.499 -0.5c54 0 96.667 10.167 128 30.5s47 54.166 47 101.499c0 12 -1.66699 22.667 -5 32s-8.83301 18.5 -16.5 27.5s-17.667 18.333 -30 28s-27.166 20.5 -44.499 32.5l-87 59
c-34 23.333 -60.667 49.333 -80 78s-29 61 -29 97c0 34.667 7 64 21 88s32.833 43.5 56.5 58.5s51 25.833 82 32.5s63.5 10 97.5 10zM621.999 944.002c0 -3.33301 -2.00098 -7 -6.00098 -11l-119 -124c-5.33301 -5.33301 -9.66602 -9.16602 -12.999 -11.499
s-8 -3.5 -14 -3.5h-85c-6 0 -10.333 1.16699 -13 3.5s-5.66699 6.16602 -9 11.499l-76 124c-1.33301 2 -2 4.66699 -2 8c0 6 3.33301 9 10 9h47c5.33301 0 9.33301 -1.33301 12 -4s5.66699 -6.66699 9 -12l66 -96l99 96c5.33301 5.33301 9.5 9.33301 12.5 12
s7.16699 4 12.5 4h61c5.33301 0 8 -2 8 -6z" />
    <glyph glyph-name="scaron" unicode="&#x161;" horiz-adv-x="466" 
d="M329 557c19.333 0 35.835 -0.333984 49.502 -1.00098s26 -1.5 37 -2.5s21.167 -2.33301 30.5 -4l30 -5.5c7.33301 -1.33301 12 -3.16602 14 -5.49902s2.33301 -7.16602 1 -14.499l-5 -33c-2 -13.333 -9.66699 -19 -23 -17c-17.333 2 -39.166 3.83301 -65.499 5.5
s-53.5 2.5 -81.5 2.5c-11.333 0 -23.166 -1 -35.499 -3s-23.666 -5.66699 -33.999 -11s-18.833 -12.5 -25.5 -21.5s-10 -20.833 -10 -35.5c0 -12.667 4.66699 -24 14 -34s22.666 -20.667 39.999 -32l89 -59c17.333 -11.333 31.666 -22.333 42.999 -33
s20.5 -21.167 27.5 -31.5s11.833 -21.166 14.5 -32.499s4 -23.666 4 -36.999c0 -29.333 -6 -54.166 -18 -74.499s-28 -36.833 -48 -49.5s-43 -21.667 -69 -27s-52.667 -8 -80 -8c-10.667 0 -22.667 0.333008 -36 1s-27 1.5 -41 2.5s-28 2.5 -42 4.5s-26.333 4.33301 -37 7
c-5.33301 1.33301 -9.83301 3.66602 -13.5 6.99902s-4.83398 7.66602 -3.50098 12.999l6 35c1.33301 6.66699 3.66602 11.167 6.99902 13.5s9.33301 2.83301 18 1.5c12 -1.33301 25 -2.66602 39 -3.99902s28.167 -2.5 42.5 -3.5s27.833 -1.83301 40.5 -2.5s23.667 -1 33 -1
c14.667 0 28.834 1.5 42.501 4.5s25.667 7.66699 36 14s18.666 15 24.999 26s9.5 24.5 9.5 40.5c0 11.333 -4 22.166 -12 32.499s-23.333 23.166 -46 38.499l-90 59c-28 18 -49 37.333 -63 58s-21 44.667 -21 72c0 28 6.16699 51.167 18.5 69.5s28.166 33.166 47.499 44.499
s41.333 19.333 66 24s49.667 7 75 7zM532.002 772.999c0 -3.33301 -2.00098 -7 -6.00098 -11l-119 -124c-5.33301 -5.33301 -9.66602 -9.16602 -12.999 -11.499s-8 -3.5 -14 -3.5h-85c-6 0 -10.333 1.16699 -13 3.5s-5.66699 6.16602 -9 11.499l-76 124
c-1.33301 2 -2 4.66699 -2 8c0 6 3.33301 9 10 9h47c5.33301 0 9.33301 -1.33301 12 -4s5.66699 -6.66699 9 -12l66 -96l99 96c5.33301 5.33301 9.5 9.33301 12.5 12s7.16699 4 12.5 4h61c5.33301 0 8 -2 8 -6z" />
    <glyph glyph-name="Ydieresis" unicode="&#x178;" horiz-adv-x="583" 
d="M677 731c0 -3.33301 -1.66797 -7.66602 -5.00098 -12.999l-217 -348c-12.667 -20 -24.167 -35 -34.5 -45s-20.5 -17 -30.5 -21l-50 -284c-1.33301 -5.33301 -3.33301 -10 -6 -14s-8 -6 -16 -6h-55c-11.333 0 -16 6.66699 -14 20l50 284
c-8.66699 3.33301 -16.667 10.166 -24 20.499s-13.666 25.5 -18.999 45.5l-92 348c-4.66699 16.667 1.33301 25 18 25h58c5.33301 0 9 -1.5 11 -4.5s3.66699 -6.16699 5 -9.5l80 -324c3.33301 -11.333 6.5 -18.5 9.5 -21.5s6.16699 -4.5 9.5 -4.5s6.83301 1.5 10.5 4.5
s9.16699 10.167 16.5 21.5l197 324c3.33301 5.33301 6.5 9 9.5 11s8.16699 3 15.5 3h58c10 0 15 -4 15 -12zM583.999 902l-15 -81c-1.33301 -5.33301 -4.16602 -9.83301 -8.49902 -13.5s-9.16602 -5.5 -14.499 -5.5h-39c-4.66699 0 -8.66699 1.33301 -12 4s-5 6.66699 -5 12
v3l15 81c1.33301 5.33301 4.16602 10 8.49902 14s9.16602 6 14.499 6h39c4.66699 0 8.66699 -1.66699 12 -5s5 -7.33301 5 -12v-3zM408.999 902l-15 -81c-1.33301 -5.33301 -4.16602 -9.83301 -8.49902 -13.5s-9.16602 -5.5 -14.499 -5.5h-39
c-4.66699 0 -8.66699 1.33301 -12 4s-5 6.66699 -5 12v3l15 81c1.33301 5.33301 4.16602 10 8.49902 14s9.16602 6 14.499 6h39c4.66699 0 8.66699 -1.66699 12 -5s5 -7.33301 5 -12v-3z" />
    <glyph glyph-name="Zcaron" unicode="&#x17d;" horiz-adv-x="597" 
d="M645 674c0 -13.333 -2.66699 -26.501 -8 -39.501s-15.666 -28.167 -30.999 -45.5l-429 -493c-2.66699 -2.66699 -4 -5.33398 -4 -8.00098c0 -4 2.66699 -6 8 -6h357c8.66699 0 14 -1.5 16 -4.5s2.33301 -7.16699 1 -12.5l-8 -47
c-1.33301 -5.33301 -3.16602 -9.66602 -5.49902 -12.999s-8.16602 -5 -17.499 -5h-343c-34.667 0 -60 6.83301 -76 20.5s-24 32.167 -24 55.5c0 12 2.33301 24.5 7 37.5s12 25.167 22 36.5l425 492c3.33301 4 5.5 7 6.5 9s1.5 3.66699 1.5 5c0 4 -3 6 -9 6h-327
c-5.33301 0 -9.83301 1 -13.5 3s-4.83398 6.66699 -3.50098 14l8 47c1.33301 5.33301 3.16602 9.5 5.49902 12.5s8.16602 4.5 17.499 4.5h330c36 0 60.667 -6.16699 74 -18.5s20 -29.166 20 -50.499zM636 943.999c0 -3.33301 -2.00098 -7 -6.00098 -11l-119 -124
c-5.33301 -5.33301 -9.66602 -9.16602 -12.999 -11.499s-8 -3.5 -14 -3.5h-85c-6 0 -10.333 1.16699 -13 3.5s-5.66699 6.16602 -9 11.499l-76 124c-1.33301 2 -2 4.66699 -2 8c0 6 3.33301 9 10 9h47c5.33301 0 9.33301 -1.33301 12 -4s5.66699 -6.66699 9 -12l66 -96
l99 96c5.33301 5.33301 9.5 9.33301 12.5 12s7.16699 4 12.5 4h61c5.33301 0 8 -2 8 -6z" />
    <glyph glyph-name="zcaron" unicode="&#x17e;" horiz-adv-x="466" 
d="M493 481c0 -10.667 -2.16699 -21.332 -6.5 -31.999s-11.166 -21 -20.499 -31l-313 -325c-4.66699 -4.66699 -7 -8.66699 -7 -12c0 -4.66699 3.33301 -7 10 -7h255c8.66699 0 13.834 -2 15.501 -6s1.83398 -8.66699 0.500977 -14l-6 -34
c-1.33301 -7.33301 -3.33301 -12.5 -6 -15.5s-8.33398 -4.5 -17.001 -4.5h-253c-30 0 -52 6.83301 -66 20.5s-21 30.167 -21 49.5c0 10 1.66699 20.167 5 30.5s9.33301 19.833 18 28.5l319 331c4 4 6 7.66699 6 11s-3.33301 5 -10 5h-246c-12.667 0 -18 6.66699 -16 20l6 34
c1.33301 8 4.16602 13.333 8.49902 16s9.16602 4 14.499 4h250c28.667 0 49.167 -6.83301 61.5 -20.5s18.5 -29.834 18.5 -48.501zM549 773.002c0 -3.33301 -2.00098 -7 -6.00098 -11l-119 -124c-5.33301 -5.33301 -9.66602 -9.16602 -12.999 -11.499s-8 -3.5 -14 -3.5h-85
c-6 0 -10.333 1.16699 -13 3.5s-5.66699 6.16602 -9 11.499l-76 124c-1.33301 2 -2 4.66699 -2 8c0 6 3.33301 9 10 9h47c5.33301 0 9.33301 -1.33301 12 -4s5.66699 -6.66699 9 -12l66 -96l99 96c5.33301 5.33301 9.5 9.33301 12.5 12s7.16699 4 12.5 4h61
c5.33301 0 8 -2 8 -6z" />
    <glyph glyph-name="florin" unicode="&#x192;" 
d="M614 743c0 -0.666992 -0.165039 -1.16602 -0.498047 -1.49902s-0.5 -1.16602 -0.5 -2.49902l-7 -32c-2 -10 -10.333 -15 -25 -15h-55c-24 0 -41.833 -4.83301 -53.5 -14.5s-20.5 -27.5 -26.5 -53.5l-45 -196h143c10.667 0 16 -4.66699 16 -14v-4l-8 -37
c-1.33301 -5.33301 -4.33301 -9.66602 -9 -12.999s-9.66699 -5 -15 -5h-143l-81 -357c-6 -26 -14.5 -47.833 -25.5 -65.5s-23.833 -31.667 -38.5 -42s-31.167 -17.833 -49.5 -22.5s-37.833 -7 -58.5 -7c-17.333 0 -31.333 0.5 -42 1.5s-19.667 2.16699 -27 3.5
c-10.667 2 -16 6 -16 12c0 1.33301 0.166992 2.16602 0.5 2.49902s0.5 1.16602 0.5 2.49902l7 32c2 10 10.333 15 25 15h55c24 0 41.833 4.83301 53.5 14.5s20.5 27.5 26.5 53.5l81 357h-128c-10.667 0 -16 4.66699 -16 14v4l8 37c1.33301 5.33301 4.33301 9.66602 9 12.999
s9.66699 5 15 5h128l45 196c6 26 14.5 47.833 25.5 65.5s23.833 31.667 38.5 42s31.167 17.833 49.5 22.5s37.833 7 58.5 7c17.333 0 31.166 -0.5 41.499 -1.5s19.166 -2.16699 26.499 -3.5c11.333 -2 17 -6.33301 17 -13z" />
    <glyph glyph-name="circumflex" unicode="&#x2c6;" horiz-adv-x="373" 
d="M464 632c0 -6 -3.33301 -9 -10 -9h-49c-5.33301 0 -9.33301 1.16699 -12 3.5s-5.66699 6.16602 -9 11.499l-64 97l-101 -97c-5.33301 -5.33301 -9.5 -9.16602 -12.5 -11.499s-7.16699 -3.5 -12.5 -3.5h-55c-5.33301 0 -8 2 -8 6c0 3.33301 2 7 6 11l118 124
c5.33301 5.33301 9.5 9.16602 12.5 11.499s7.5 3.5 13.5 3.5h85c6 0 10.5 -1.16699 13.5 -3.5s6.16699 -6.16602 9.5 -11.499l73 -124c1.33301 -2 2 -4.66699 2 -8z" />
    <glyph glyph-name="tilde" unicode="&#x2dc;" horiz-adv-x="493" 
d="M552 754l-3.99707 -22.999c-6 -34.667 -16.5 -60.834 -31.5 -78.501s-38.5 -26.5 -70.5 -26.5c-11.333 0 -24 1.5 -38 4.5s-26.667 10.167 -38 21.5l-47 44c-10 9.33301 -17.167 15.333 -21.5 18s-9.5 4 -15.5 4c-22.667 0 -36 -15.333 -40 -46l-3 -21
c-0.666992 -4.66699 -2.5 -8.66699 -5.5 -12s-6.83301 -5 -11.5 -5h-34c-8.66699 0 -13 4.66699 -13 14v3l3 21c5.33301 40 17.166 68.167 35.499 84.5s41.166 24.5 68.499 24.5c15.333 0 28.166 -2.33301 38.499 -7s22.166 -12.667 35.499 -24l54 -49
c4.66699 -4 10 -7.33301 16 -10s11.333 -4 16 -4c10 0 18 3 24 9s10.667 17.667 14 35l4 23c1.33301 4.66699 3.33301 8.66699 6 12s6.33398 5 11.001 5h34c8.66699 0 13 -4.66699 13 -14v-3z" />
    <glyph glyph-name="endash" unicode="&#x2013;" horiz-adv-x="310" 
d="M371 263c-2 -11.333 -9.33203 -17 -21.999 -17h-302c-12.667 0 -18 5.66699 -16 17l7 39c1.33301 5.33301 4 9.66602 8 12.999s8.66699 5 14 5h302c5.33301 0 9.66602 -1.66699 12.999 -5s4.33301 -7.66602 3 -12.999l-7 -39v0z" />
    <glyph glyph-name="emdash" unicode="&#x2014;" horiz-adv-x="600" 
d="M661 263c-2 -11.333 -9.33203 -17 -21.999 -17h-592c-12.667 0 -18 5.66699 -16 17l7 39c1.33301 5.33301 4 9.66602 8 12.999s8.66699 5 14 5h592c5.33301 0 9.66602 -1.66699 12.999 -5s4.33301 -7.66602 3 -12.999l-7 -39v0z" />
    <glyph glyph-name="quoteleft" unicode="&#x2018;" horiz-adv-x="186" 
d="M288 746c0 -4 -0.999023 -8.33301 -2.99902 -13l-70 -189c-4.66699 -12.667 -12.334 -19 -23.001 -19h-59c-6.66699 0 -10 2.66699 -10 8c0 3.33301 1 7 3 11l94 189c6 12.667 13.667 19 23 19h38c4.66699 0 7 -2 7 -6z" />
    <glyph glyph-name="quoteright" unicode="&#x2019;" horiz-adv-x="186" 
d="M288 744c0 -3.33301 -1 -7 -3 -11l-94 -189c-3.33301 -7.33301 -6.5 -12.333 -9.5 -15s-7.16699 -4 -12.5 -4h-38c-5.33301 0 -8 2.33301 -8 7c0 2.66699 1 6.66699 3 12l70 189c4.66699 12.667 12.667 19 24 19h59c6 0 9 -2.66699 9 -8z" />
    <glyph glyph-name="quotesinglbase" unicode="&#x201a;" horiz-adv-x="186" 
d="M189 121c0 -3.33301 -1 -7 -3 -11l-108 -189c-3.33301 -6.66699 -6.5 -11.5 -9.5 -14.5s-7.16699 -4.5 -12.5 -4.5h-41c-7.33301 0 -11 3 -11 9c0 2.66699 1 6 3 10l90 189c6 12.667 14 19 24 19h58c6.66699 0 10 -2.66699 10 -8z" />
    <glyph glyph-name="quotedblleft" unicode="&#x201c;" horiz-adv-x="336" 
d="M438 746c0 -4 -0.999023 -8.33301 -2.99902 -13l-70 -189c-4.66699 -12.667 -12.334 -19 -23.001 -19h-59c-6.66699 0 -10 2.66699 -10 8c0 3.33301 1 7 3 11l94 189c6 12.667 13.667 19 23 19h38c4.66699 0 7 -2 7 -6zM288.001 746
c0 -4 -0.999023 -8.33301 -2.99902 -13l-70 -189c-4.66699 -12.667 -12.334 -19 -23.001 -19h-59c-6.66699 0 -10 2.66699 -10 8c0 3.33301 1 7 3 11l94 189c6 12.667 13.667 19 23 19h38c4.66699 0 7 -2 7 -6z" />
    <glyph glyph-name="quotedblright" unicode="&#x201d;" horiz-adv-x="336" 
d="M438 745c0 -3.33301 -1 -7 -3 -11l-94 -189c-3.33301 -7.33301 -6.5 -12.333 -9.5 -15s-7.16699 -4 -12.5 -4h-38c-5.33301 0 -8 2.33301 -8 7c0 2.66699 1 6.66699 3 12l70 189c4.66699 12.667 12.667 19 24 19h59c6 0 9 -2.66699 9 -8zM288 745
c0 -3.33301 -1 -7 -3 -11l-94 -189c-3.33301 -7.33301 -6.5 -12.333 -9.5 -15s-7.16699 -4 -12.5 -4h-38c-5.33301 0 -8 2.33301 -8 7c0 2.66699 1 6.66699 3 12l70 189c4.66699 12.667 12.667 19 24 19h59c6 0 9 -2.66699 9 -8z" />
    <glyph glyph-name="quotedblbase" unicode="&#x201e;" horiz-adv-x="336" 
d="M355 121c0 -3.33301 -1 -7 -3 -11l-108 -189c-3.33301 -6.66699 -6.5 -11.5 -9.5 -14.5s-7.16699 -4.5 -12.5 -4.5h-41c-7.33301 0 -11 3 -11 9c0 2.66699 1 6 3 10l90 189c6 12.667 14 19 24 19h58c6.66699 0 10 -2.66699 10 -8zM175 121c0 -3.33301 -1 -7 -3 -11
l-108 -189c-3.33301 -6.66699 -6.5 -11.5 -9.5 -14.5s-7.16699 -4.5 -12.5 -4.5h-41c-7.33301 0 -11 3 -11 9c0 2.66699 1 6 3 10l90 189c6 12.667 14 19 24 19h58c6.66699 0 10 -2.66699 10 -8z" />
    <glyph glyph-name="dagger" unicode="&#x2020;" horiz-adv-x="404" 
d="M462 540l-8.00195 -45c-2 -10.667 -9.33301 -16 -22 -16h-109l-80 -459c-1.33301 -5.33301 -3.66602 -10 -6.99902 -14s-7.66602 -6 -12.999 -6h-57c-8.66699 0 -13 4.66699 -13 14c0 1.33301 0.166992 2.33301 0.5 3s0.5 1.66699 0.5 3l80 459h-94
c-10.667 0 -16 4.33301 -16 13v3l8 45c2 10 9.33301 15 22 15h94l31 178c1.33301 5.33301 3.83301 9.83301 7.5 13.5s8.16699 5.5 13.5 5.5h56c8 0 12 -4.66699 12 -14v-5l-31 -178h109c10.667 0 16 -4 16 -12v-3z" />
    <glyph glyph-name="daggerdbl" unicode="&#x2021;" horiz-adv-x="404" 
d="M462 540l-8.00195 -45c-2 -10.667 -9.33301 -16 -22 -16h-109l-23 -134h109c10.667 0 16 -4 16 -12v-3l-8 -45c-2 -10.667 -9.33301 -16 -22 -16h-109l-43 -249c-1.33301 -5.33301 -3.66602 -10 -6.99902 -14s-7.66602 -6 -12.999 -6h-57c-8.66699 0 -13 4.66699 -13 14
c0 1.33301 0.166992 2.33301 0.5 3s0.5 1.66699 0.5 3l43 249h-94c-10.667 0 -16 4.33301 -16 13v3l8 45c2 10 9.33301 15 22 15h94l23 134h-94c-10.667 0 -16 4.33301 -16 13v3l8 45c2 10 9.33301 15 22 15h94l31 178c1.33301 5.33301 3.83301 9.83301 7.5 13.5
s8.16699 5.5 13.5 5.5h56c8 0 12 -4.66699 12 -14v-5l-31 -178h109c10.667 0 16 -4 16 -12v-3z" />
    <glyph glyph-name="bullet" unicode="&#x2022;" horiz-adv-x="418" 
d="M438 367c0 -22 -4.16699 -42.667 -12.5 -62s-19.666 -36.166 -33.999 -50.499s-31.166 -25.666 -50.499 -33.999s-40 -12.5 -62 -12.5s-42.667 4.16699 -62 12.5s-36.166 19.666 -50.499 33.999s-25.666 31.166 -33.999 50.499s-12.5 40 -12.5 62s4.16699 42.667 12.5 62
s19.666 36.166 33.999 50.499s31.166 25.666 50.499 33.999s40 12.5 62 12.5s42.667 -4.16699 62 -12.5s36.166 -19.666 50.499 -33.999s25.666 -31.166 33.999 -50.499s12.5 -40 12.5 -62z" />
    <glyph glyph-name="ellipsis" unicode="&#x2026;" horiz-adv-x="606" 
d="M568 113l-16.998 -94c-1.33301 -5.33301 -4 -9.83301 -8 -13.5s-8.66699 -5.5 -14 -5.5h-48c-4.66699 0 -8.66699 1.5 -12 4.5s-5 6.83301 -5 11.5v3l17 94c1.33301 5.33301 4.16602 9.83301 8.49902 13.5s9.16602 5.5 14.499 5.5h48c10.667 0 16 -5.33301 16 -16v-3z
M367.002 113l-17.002 -94c-1.33301 -5.33301 -4.16602 -9.83301 -8.49902 -13.5s-9.16602 -5.5 -14.499 -5.5h-48c-10.667 -0 -16 5.33301 -16 16v3l17 94c1.33301 5.33301 4 9.83301 8 13.5s8.66699 5.5 14 5.5h48c4.66699 0 8.66699 -1.5 12 -4.5s5 -6.83301 5 -11.5v-3z
M165 113l-16.998 -94c-1.33301 -5.33301 -4 -9.83301 -8 -13.5s-8.66699 -5.5 -14 -5.5h-48c-4.66699 0 -8.66699 1.5 -12 4.5s-5 6.83301 -5 11.5v3l17 94c1.33301 5.33301 4.16602 9.83301 8.49902 13.5s9.16602 5.5 14.499 5.5h48c10.667 0 16 -5.33301 16 -16v-3z" />
    <glyph glyph-name="perthousand" unicode="&#x2030;" horiz-adv-x="1134" 
d="M1137 294c0 -7.33301 -0.332031 -14.8311 -0.999023 -22.498s-1.66699 -15.5 -3 -23.5l-17 -93c-10.667 -58.667 -29.5 -100.334 -56.5 -125.001s-62.167 -37 -105.5 -37c-34 0 -61 10.333 -81 31s-30 50 -30 88c0 6.66699 0.333008 13.667 1 21s1.66699 14.666 3 21.999
l17 93c10.667 58 29.667 99.333 57 124s62.666 37 105.999 37c34.667 0 61.667 -9.66699 81 -29s29 -48 29 -86zM797.001 294.002c0 -7.33301 -0.332031 -14.8311 -0.999023 -22.498s-1.66699 -15.5 -3 -23.5l-17 -93c-10.667 -58.667 -29.5 -100.334 -56.5 -125.001
s-62.167 -37 -105.5 -37c-34 0 -61 10.333 -81 31s-30 50 -30 88c0 6.66699 0.333008 13.667 1 21s1.66699 14.666 3 21.999l17 93c10.667 58 29.667 99.333 57 124s62.666 37 105.999 37c34.667 0 61.667 -9.66699 81 -29s29 -48 29 -86zM780.002 738.004
c0 -4 -2.33301 -8.66699 -7 -14l-543 -708c-5.33301 -7.33301 -9.66602 -12.5 -12.999 -15.5s-7.66602 -4.5 -12.999 -4.5h-49c-5.33301 0 -8 2 -8 6s2 8.66699 6 14l543 708c5.33301 7.33301 9.66602 12.333 12.999 15s7.66602 4 12.999 4h51c4.66699 0 7 -1.66699 7 -5z
M422.002 635.004c0 -7.33301 -0.332031 -14.8311 -0.999023 -22.498s-1.66699 -15.5 -3 -23.5l-17 -93c-10.667 -58.667 -29.5 -100.334 -56.5 -125.001s-62.167 -37 -105.5 -37c-34 0 -61 10.333 -81 31s-30 50 -30 88c0 6.66699 0.333008 13.667 1 21
s1.66699 14.666 3 21.999l17 93c10.667 58 29.667 99.333 57 124s62.666 37 105.999 37c34.667 0 61.667 -9.66699 81 -29s29 -48 29 -86zM1075 290.006c0 23.333 -5.00098 39.665 -15.001 48.998s-24.333 14 -43 14c-21.333 0 -40 -8 -56 -24s-27.667 -43 -35 -81l-17 -93
c-1.33301 -8 -2.33301 -15.5 -3 -22.5s-1 -13.5 -1 -19.5c0 -23.333 5.16699 -39.666 15.5 -48.999s24.833 -14 43.5 -14c22 0 40.833 8.33301 56.5 25s26.834 43.334 33.501 80.001l17 93c1.33301 8 2.33301 15.5 3 22.5s1 13.5 1 19.5zM735.002 290.005
c0 23.333 -5.00098 39.665 -15.001 48.998s-24.333 14 -43 14c-21.333 0 -40 -8 -56 -24s-27.667 -43 -35 -81l-17 -93c-1.33301 -8 -2.33301 -15.5 -3 -22.5s-1 -13.5 -1 -19.5c0 -23.333 5.16699 -39.666 15.5 -48.999s24.833 -14 43.5 -14c22 0 40.833 8.33301 56.5 25
s26.834 43.334 33.501 80.001l17 93c1.33301 8 2.33301 15.5 3 22.5s1 13.5 1 19.5zM360.001 631.004c0 23.333 -5.00098 39.665 -15.001 48.998s-24.333 14 -43 14c-21.333 0 -40 -8 -56 -24s-27.667 -43 -35 -81l-17 -93c-1.33301 -8 -2.33301 -15.5 -3 -22.5
s-1 -13.5 -1 -19.5c0 -23.333 5.16699 -39.666 15.5 -48.999s24.833 -14 43.5 -14c22 0 40.833 8.33301 56.5 25s26.834 43.334 33.501 80.001l17 93c1.33301 8 2.33301 15.5 3 22.5s1 13.5 1 19.5z" />
    <glyph glyph-name="guilsinglleft" unicode="&#x2039;" horiz-adv-x="354" 
d="M389 477c0 -2 -0.666992 -4.5 -2 -7.5s-3.33301 -5.5 -6 -7.5l-210 -185l139 -185c2.66699 -4 4 -7.66699 4 -11c0 -7.33301 -4 -11 -12 -11h-53c-6.66699 0 -13 3.33301 -19 10l-139 169c-5.33301 6 -8 14.333 -8 25c0 14 4 24.333 12 31l199 169
c5.33301 4 9.83301 6.66699 13.5 8s7.5 2 11.5 2h61c6 0 9 -2.33301 9 -7z" />
    <glyph glyph-name="guilsinglright" unicode="&#x203a;" horiz-adv-x="354" 
d="M373 280c0 -14 -4 -24.333 -12 -31l-199 -169c-8.66699 -6.66699 -17 -10 -25 -10h-61c-6 0 -9 2.33301 -9 7c0 2 0.666992 4.5 2 7.5s3.33301 5.5 6 7.5l210 185l-139 185c-2.66699 4 -4 7.66699 -4 11c0 7.33301 4 11 12 11h53c6.66699 0 13 -3.33301 19 -10l139 -169
c5.33301 -6 8 -14.333 8 -25z" />
    </font>
</defs>
</svg>
